if (_typeface_js && _typeface_js.loadFace) _typeface_js.loadFace({"glyphs":{"0":{"ha":764,"x_min":53,"x_max":711,"o":"m 382 -14 q 138 113 222 -14 q 53 486 53 240 q 138 859 53 732 q 382 986 222 986 q 626 859 542 986 q 711 486 711 732 q 626 113 711 240 q 382 -14 542 -14 m 382 83 q 532 185 481 83 q 583 486 583 286 q 532 788 583 686 q 382 889 481 889 q 232 788 283 889 q 181 486 181 686 q 232 185 181 286 q 382 83 283 83 z "},"1":{"ha":764,"x_min":154,"x_max":639,"o":"m 179 101 l 346 101 l 346 822 l 154 710 l 154 826 l 392 972 l 474 972 l 474 101 l 639 101 l 639 0 l 179 0 l 179 101 z "},"2":{"ha":764,"x_min":64,"x_max":700,"o":"m 89 110 q 288 283 189 182 q 457 497 388 383 q 526 713 526 611 q 482 835 526 790 q 361 881 438 881 q 230 847 292 881 q 132 758 168 814 l 64 835 q 187 946 107 906 q 363 986 267 986 q 578 913 499 986 q 657 717 657 840 q 541 410 657 569 q 257 101 425 250 l 700 101 l 700 0 l 89 0 l 89 110 z "},"3":{"ha":764,"x_min":68,"x_max":699,"o":"m 372 -14 q 188 24 269 -14 q 68 129 107 63 l 132 204 q 233 122 168 153 q 368 92 297 92 q 515 142 460 92 q 569 271 569 192 q 501 408 569 358 q 313 458 432 458 l 263 458 l 263 560 l 311 560 q 474 610 413 560 q 535 742 535 661 q 492 844 535 808 q 371 881 449 881 q 239 851 300 881 q 140 768 178 821 l 78 843 q 203 948 122 910 q 382 986 285 986 q 585 923 508 986 q 663 756 663 860 q 613 609 663 674 q 476 514 564 544 q 641 426 583 490 q 699 265 699 361 q 658 120 699 183 q 544 22 618 57 q 372 -14 469 -14 z "},"4":{"ha":764,"x_min":40,"x_max":724,"o":"m 486 167 l 40 167 l 40 275 l 458 972 l 614 972 l 614 272 l 724 272 l 724 167 l 614 167 l 614 0 l 486 0 l 486 167 m 486 272 l 486 824 l 157 272 l 486 272 z "},"5":{"ha":764,"x_min":63,"x_max":701,"o":"m 364 -14 q 185 25 267 -14 q 63 129 104 64 l 124 211 q 226 123 164 154 q 360 92 288 92 q 513 153 457 92 q 569 321 569 215 q 518 481 569 422 q 379 540 467 540 q 277 515 325 540 q 203 446 229 489 l 96 446 l 142 972 l 668 972 l 668 867 l 257 867 l 232 583 q 309 625 260 610 q 411 640 358 640 q 622 554 543 640 q 701 324 701 468 q 660 146 701 222 q 542 28 618 69 q 364 -14 465 -14 z "},"6":{"ha":764,"x_min":63,"x_max":703,"o":"m 390 -14 q 217 32 290 -14 q 103 161 143 78 q 63 354 63 244 q 136 644 63 507 q 338 874 210 782 q 618 989 465 967 l 631 890 q 388 770 496 860 q 236 558 279 681 q 301 605 257 586 q 400 624 346 624 q 563 582 494 624 q 667 468 632 540 q 703 304 703 396 q 665 140 703 213 q 556 27 626 68 q 390 -14 486 -14 m 388 92 q 526 149 475 92 q 578 306 578 207 q 526 460 578 403 q 388 518 475 518 q 249 460 301 518 q 197 306 197 403 q 249 150 197 208 q 388 92 301 92 z "},"7":{"ha":764,"x_min":74,"x_max":692,"o":"m 258 0 q 287 308 263 168 q 372 589 311 447 q 544 867 433 731 l 74 867 l 74 972 l 692 972 l 692 869 q 465 488 543 707 q 388 0 388 268 l 258 0 z "},"8":{"ha":764,"x_min":56,"x_max":708,"o":"m 382 -14 q 142 60 229 -14 q 56 265 56 135 q 97 418 56 351 q 217 518 139 485 q 124 603 158 543 q 89 736 89 664 q 169 918 89 850 q 382 986 249 986 q 595 918 515 986 q 675 736 675 850 q 640 603 675 664 q 547 518 606 543 q 667 418 625 485 q 708 265 708 351 q 622 60 708 135 q 382 -14 535 -14 m 382 565 q 503 608 458 565 q 547 724 547 651 q 503 838 547 794 q 382 881 458 881 q 261 838 306 881 q 217 724 217 794 q 261 608 217 651 q 382 565 306 565 m 382 92 q 528 142 475 92 q 581 282 581 193 q 528 420 581 371 q 382 469 475 469 q 236 420 289 469 q 183 282 183 371 q 236 142 183 193 q 382 92 289 92 z "},"9":{"ha":764,"x_min":63,"x_max":703,"o":"m 135 82 q 390 205 278 114 q 535 414 501 296 q 465 367 511 386 q 365 349 419 349 q 203 390 272 349 q 99 505 135 432 q 63 668 63 578 q 101 832 63 760 q 209 945 139 904 q 375 986 279 986 q 549 940 475 986 q 663 810 622 894 q 703 613 703 725 q 632 317 703 451 q 436 94 561 182 q 153 -17 311 7 l 135 82 m 375 449 q 515 508 463 449 q 568 667 568 568 q 516 822 568 764 q 376 881 464 881 q 239 822 290 881 q 188 667 188 764 q 238 508 188 567 q 375 449 289 449 z "},"\u0000":{"ha":0,"x_min":0,"x_max":0,"o":""},"\r":{"ha":338,"x_min":0,"x_max":0,"o":""}," ":{"ha":338,"x_min":0,"x_max":0,"o":""},"A":{"ha":828,"x_min":24,"x_max":804,"o":"m 603 210 l 225 210 l 160 0 l 24 0 l 354 972 l 474 972 l 804 0 l 668 0 l 603 210 m 569 314 l 414 813 l 258 314 l 569 314 z "},"Á":{"ha":828,"x_min":24,"x_max":804,"o":"m 603 210 l 225 210 l 160 0 l 24 0 l 354 972 l 474 972 l 804 0 l 668 0 l 603 210 m 569 314 l 414 813 l 258 314 l 569 314 m 481 1250 l 601 1250 l 467 1047 l 372 1047 l 481 1250 z "},"Ă":{"ha":828,"x_min":24,"x_max":804,"o":"m 603 210 l 225 210 l 160 0 l 24 0 l 354 972 l 474 972 l 804 0 l 668 0 l 603 210 m 569 314 l 414 813 l 258 314 l 569 314 m 414 1047 q 270 1094 324 1047 q 213 1232 217 1140 l 288 1232 q 322 1155 290 1183 q 414 1126 354 1126 q 503 1153 469 1126 q 540 1232 536 1179 l 615 1232 q 562 1097 613 1146 q 414 1047 511 1047 z "},"Ắ":{"ha":828,"x_min":24,"x_max":804,"o":"m 603 210 l 225 210 l 160 0 l 24 0 l 354 972 l 474 972 l 804 0 l 668 0 l 603 210 m 569 314 l 414 813 l 258 314 l 569 314 m 435 1407 l 536 1407 l 444 1257 l 364 1257 l 435 1407 m 414 1047 q 270 1094 324 1047 q 213 1232 217 1140 l 288 1232 q 322 1155 290 1183 q 414 1126 354 1126 q 503 1153 469 1126 q 540 1232 536 1179 l 615 1232 q 562 1097 613 1146 q 414 1047 511 1047 z "},"Ặ":{"ha":828,"x_min":24,"x_max":804,"o":"m 603 210 l 225 210 l 160 0 l 24 0 l 354 972 l 474 972 l 804 0 l 668 0 l 603 210 m 569 314 l 414 813 l 258 314 l 569 314 m 414 -242 q 362 -222 382 -242 q 342 -171 342 -201 q 362 -120 342 -140 q 414 -100 382 -100 q 466 -120 446 -100 q 486 -171 486 -140 q 466 -222 486 -201 q 414 -242 446 -242 m 414 1047 q 270 1094 324 1047 q 213 1232 217 1140 l 288 1232 q 322 1155 290 1183 q 414 1126 354 1126 q 503 1153 469 1126 q 540 1232 536 1179 l 615 1232 q 562 1097 613 1146 q 414 1047 511 1047 z "},"Ằ":{"ha":828,"x_min":24,"x_max":804,"o":"m 603 210 l 225 210 l 160 0 l 24 0 l 354 972 l 474 972 l 804 0 l 668 0 l 603 210 m 569 314 l 414 813 l 258 314 l 569 314 m 281 1407 l 382 1407 l 453 1257 l 372 1257 l 281 1407 m 414 1047 q 270 1094 324 1047 q 213 1232 217 1140 l 288 1232 q 322 1155 290 1183 q 414 1126 354 1126 q 503 1153 469 1126 q 540 1232 536 1179 l 615 1232 q 562 1097 613 1146 q 414 1047 511 1047 z "},"Ẳ":{"ha":828,"x_min":24,"x_max":804,"o":"m 603 210 l 225 210 l 160 0 l 24 0 l 354 972 l 474 972 l 804 0 l 668 0 l 603 210 m 569 314 l 414 813 l 258 314 l 569 314 m 378 1244 q 390 1293 378 1276 q 428 1329 403 1310 q 456 1355 447 1344 q 464 1382 464 1365 q 451 1408 464 1399 q 417 1418 439 1418 q 377 1408 396 1418 q 346 1376 358 1397 l 307 1411 q 355 1458 324 1440 q 424 1475 386 1475 q 499 1451 469 1475 q 528 1385 528 1426 q 516 1341 528 1358 q 482 1304 504 1324 q 452 1274 461 1286 q 443 1244 443 1263 l 378 1244 m 414 1047 q 270 1094 324 1047 q 213 1232 217 1140 l 288 1232 q 322 1155 290 1183 q 414 1126 354 1126 q 503 1153 469 1126 q 540 1232 536 1179 l 615 1232 q 562 1097 613 1146 q 414 1047 511 1047 z "},"Ẵ":{"ha":828,"x_min":24,"x_max":804,"o":"m 603 210 l 225 210 l 160 0 l 24 0 l 354 972 l 474 972 l 804 0 l 668 0 l 603 210 m 569 314 l 414 813 l 258 314 l 569 314 m 486 1288 q 449 1294 467 1288 q 418 1310 432 1301 q 400 1321 404 1318 q 336 1349 360 1349 q 285 1294 300 1349 l 228 1294 q 267 1382 238 1350 q 342 1414 296 1414 q 385 1405 364 1414 q 431 1381 406 1396 q 468 1360 454 1367 q 497 1354 482 1354 q 549 1413 536 1354 l 604 1413 q 563 1321 594 1354 q 486 1288 532 1288 m 414 1047 q 270 1094 324 1047 q 213 1232 217 1140 l 288 1232 q 322 1155 290 1183 q 414 1126 354 1126 q 503 1153 469 1126 q 540 1232 536 1179 l 615 1232 q 562 1097 613 1146 q 414 1047 511 1047 z "},"Ǎ":{"ha":828,"x_min":24,"x_max":804,"o":"m 603 210 l 225 210 l 160 0 l 24 0 l 354 972 l 474 972 l 804 0 l 668 0 l 603 210 m 569 314 l 414 813 l 258 314 l 569 314 m 218 1246 l 321 1246 l 414 1124 l 507 1246 l 610 1246 l 454 1047 l 374 1047 l 218 1246 z "},"Â":{"ha":828,"x_min":24,"x_max":804,"o":"m 603 210 l 225 210 l 160 0 l 24 0 l 354 972 l 474 972 l 804 0 l 668 0 l 603 210 m 569 314 l 414 813 l 258 314 l 569 314 m 374 1246 l 454 1246 l 610 1047 l 507 1047 l 414 1169 l 321 1047 l 218 1047 l 374 1246 z "},"Ấ":{"ha":828,"x_min":24,"x_max":804,"o":"m 603 210 l 225 210 l 160 0 l 24 0 l 354 972 l 474 972 l 804 0 l 668 0 l 603 210 m 569 314 l 414 813 l 258 314 l 569 314 m 604 1351 l 703 1351 l 615 1208 l 539 1208 l 604 1351 m 374 1246 l 454 1246 l 610 1047 l 507 1047 l 414 1169 l 321 1047 l 218 1047 l 374 1246 z "},"Ậ":{"ha":828,"x_min":24,"x_max":804,"o":"m 603 210 l 225 210 l 160 0 l 24 0 l 354 972 l 474 972 l 804 0 l 668 0 l 603 210 m 569 314 l 414 813 l 258 314 l 569 314 m 414 -242 q 362 -222 382 -242 q 342 -171 342 -201 q 362 -120 342 -140 q 414 -100 382 -100 q 466 -120 446 -100 q 486 -171 486 -140 q 466 -222 486 -201 q 414 -242 446 -242 m 374 1246 l 454 1246 l 610 1047 l 507 1047 l 414 1169 l 321 1047 l 218 1047 l 374 1246 z "},"Ầ":{"ha":828,"x_min":24,"x_max":804,"o":"m 603 210 l 225 210 l 160 0 l 24 0 l 354 972 l 474 972 l 804 0 l 668 0 l 603 210 m 569 314 l 414 813 l 258 314 l 569 314 m 497 1351 l 596 1351 l 661 1208 l 585 1208 l 497 1351 m 374 1246 l 454 1246 l 610 1047 l 507 1047 l 414 1169 l 321 1047 l 218 1047 l 374 1246 z "},"Ẩ":{"ha":828,"x_min":24,"x_max":804,"o":"m 603 210 l 225 210 l 160 0 l 24 0 l 354 972 l 474 972 l 804 0 l 668 0 l 603 210 m 569 314 l 414 813 l 258 314 l 569 314 m 579 1199 q 592 1247 579 1229 q 628 1283 604 1264 q 655 1307 646 1296 q 664 1335 664 1318 q 652 1360 664 1350 q 619 1369 640 1369 q 580 1359 599 1369 q 549 1328 561 1349 l 507 1365 q 556 1410 524 1393 q 626 1428 588 1428 q 702 1404 674 1428 q 731 1338 731 1381 q 719 1295 731 1311 q 685 1258 708 1279 q 656 1230 665 1243 q 646 1199 646 1217 l 579 1199 m 374 1246 l 454 1246 l 610 1047 l 507 1047 l 414 1169 l 321 1047 l 218 1047 l 374 1246 z "},"Ẫ":{"ha":828,"x_min":24,"x_max":804,"o":"m 603 210 l 225 210 l 160 0 l 24 0 l 354 972 l 474 972 l 804 0 l 668 0 l 603 210 m 569 314 l 414 813 l 258 314 l 569 314 m 485 1289 q 445 1298 464 1289 q 401 1324 426 1307 q 365 1345 378 1339 q 336 1351 351 1351 q 285 1296 300 1351 l 228 1296 q 267 1383 238 1351 q 342 1415 296 1415 q 383 1407 363 1415 q 429 1383 403 1399 q 469 1363 454 1369 q 497 1357 483 1357 q 549 1414 536 1357 l 604 1414 q 563 1322 594 1356 q 485 1289 532 1289 m 374 1246 l 454 1246 l 610 1047 l 507 1047 l 414 1169 l 321 1047 l 218 1047 l 374 1246 z "},"Ä":{"ha":828,"x_min":24,"x_max":804,"o":"m 603 210 l 225 210 l 160 0 l 24 0 l 354 972 l 474 972 l 804 0 l 668 0 l 603 210 m 569 314 l 414 813 l 258 314 l 569 314 m 275 1047 q 224 1067 244 1047 q 203 1118 203 1088 q 223 1169 203 1149 q 275 1189 243 1189 q 326 1169 306 1189 q 347 1118 347 1149 q 326 1067 347 1088 q 275 1047 306 1047 m 553 1047 q 501 1067 522 1047 q 481 1118 481 1088 q 501 1169 481 1149 q 553 1189 522 1189 q 605 1169 585 1189 q 625 1118 625 1149 q 604 1067 625 1088 q 553 1047 583 1047 z "},"Ạ":{"ha":828,"x_min":24,"x_max":804,"o":"m 603 210 l 225 210 l 160 0 l 24 0 l 354 972 l 474 972 l 804 0 l 668 0 l 603 210 m 569 314 l 414 813 l 258 314 l 569 314 m 414 -242 q 362 -222 382 -242 q 342 -171 342 -201 q 362 -120 342 -140 q 414 -100 382 -100 q 466 -120 446 -100 q 486 -171 486 -140 q 466 -222 486 -201 q 414 -242 446 -242 z "},"À":{"ha":828,"x_min":24,"x_max":804,"o":"m 603 210 l 225 210 l 160 0 l 24 0 l 354 972 l 474 972 l 804 0 l 668 0 l 603 210 m 569 314 l 414 813 l 258 314 l 569 314 m 232 1250 l 353 1250 l 461 1047 l 367 1047 l 232 1250 z "},"Ả":{"ha":828,"x_min":24,"x_max":804,"o":"m 603 210 l 225 210 l 160 0 l 24 0 l 354 972 l 474 972 l 804 0 l 668 0 l 603 210 m 569 314 l 414 813 l 258 314 l 569 314 m 367 1047 q 381 1103 367 1082 q 422 1149 396 1125 q 456 1187 446 1172 q 467 1224 467 1201 q 410 1268 467 1268 q 322 1206 356 1268 l 269 1253 q 329 1316 290 1293 q 419 1339 368 1339 q 519 1310 482 1339 q 556 1228 556 1282 q 541 1171 556 1194 q 499 1118 526 1147 q 466 1081 476 1096 q 456 1047 456 1065 l 367 1047 z "},"Ā":{"ha":828,"x_min":24,"x_max":804,"o":"m 603 210 l 225 210 l 160 0 l 24 0 l 354 972 l 474 972 l 804 0 l 668 0 l 603 210 m 569 314 l 414 813 l 258 314 l 569 314 m 197 1143 l 631 1143 l 631 1061 l 197 1061 l 197 1143 z "},"Ą":{"ha":828,"x_min":24,"x_max":828,"o":"m 828 -251 q 772 -282 804 -271 q 703 -293 739 -293 q 603 -262 640 -293 q 567 -168 567 -231 q 685 0 567 -65 l 668 0 l 603 210 l 225 210 l 160 0 l 24 0 l 354 972 l 474 972 l 804 0 l 765 0 q 653 -151 653 -78 q 674 -200 653 -182 q 740 -218 696 -218 q 813 -201 771 -218 l 828 -251 m 569 314 l 414 813 l 258 314 l 569 314 z "},"Å":{"ha":828,"x_min":24,"x_max":804,"o":"m 603 210 l 225 210 l 160 0 l 24 0 l 354 972 l 474 972 l 804 0 l 668 0 l 603 210 m 569 314 l 414 813 l 258 314 l 569 314 m 414 997 q 319 1032 356 997 q 282 1121 282 1067 q 319 1210 282 1175 q 414 1244 356 1244 q 509 1210 472 1244 q 546 1121 546 1175 q 509 1032 546 1067 q 414 997 472 997 m 414 1050 q 464 1070 444 1050 q 483 1121 483 1090 q 464 1172 483 1151 q 414 1192 444 1192 q 364 1172 383 1192 q 344 1121 344 1151 q 364 1070 344 1090 q 414 1050 383 1050 z "},"Ǻ":{"ha":828,"x_min":24,"x_max":804,"o":"m 471 1278 l 385 1278 l 456 1421 l 563 1421 l 471 1278 m 414 997 q 319 1032 356 997 q 282 1121 282 1067 q 319 1210 282 1175 q 414 1244 356 1244 q 509 1210 472 1244 q 546 1121 546 1175 q 509 1032 546 1067 q 414 997 472 997 m 414 1192 q 364 1172 383 1192 q 344 1121 344 1151 q 364 1070 344 1090 q 414 1050 383 1050 q 464 1070 444 1050 q 483 1121 483 1090 q 464 1172 483 1151 q 414 1192 444 1192 m 603 210 l 225 210 l 160 0 l 24 0 l 354 972 l 474 972 l 804 0 l 668 0 l 603 210 m 569 314 l 414 813 l 258 314 l 569 314 z "},"Ã":{"ha":828,"x_min":24,"x_max":804,"o":"m 603 210 l 225 210 l 160 0 l 24 0 l 354 972 l 474 972 l 804 0 l 668 0 l 603 210 m 569 314 l 414 813 l 258 314 l 569 314 m 211 1047 q 242 1149 211 1110 q 324 1188 274 1188 q 369 1179 349 1188 q 426 1150 389 1171 q 492 1122 469 1122 q 522 1139 511 1122 q 535 1193 532 1156 l 607 1193 q 574 1087 606 1126 q 490 1047 542 1047 q 440 1058 464 1047 q 383 1088 417 1068 q 326 1113 343 1113 q 297 1095 308 1113 q 283 1047 285 1078 l 211 1047 z "},"Æ":{"ha":1111,"x_min":24,"x_max":1040,"o":"m 647 868 l 647 563 l 993 563 l 993 458 l 647 458 l 647 104 l 1040 104 l 1040 0 l 519 0 l 519 200 l 253 200 l 165 0 l 24 0 l 476 972 l 1040 972 l 1040 868 l 647 868 m 519 300 l 519 807 l 297 300 l 519 300 z "},"Ǽ":{"ha":1111,"x_min":24,"x_max":1040,"o":"m 647 868 l 647 563 l 993 563 l 993 458 l 647 458 l 647 104 l 1040 104 l 1040 0 l 519 0 l 519 200 l 253 200 l 165 0 l 24 0 l 476 972 l 1040 972 l 1040 868 l 647 868 m 519 300 l 519 807 l 297 300 l 519 300 m 701 1250 l 822 1250 l 688 1047 l 593 1047 l 701 1250 z "},"B":{"ha":818,"x_min":113,"x_max":749,"o":"m 113 972 l 369 972 q 626 915 542 972 q 710 739 710 857 q 674 604 710 657 q 561 522 638 551 l 561 518 q 703 434 658 492 q 749 278 749 376 q 668 69 749 138 q 424 0 588 0 l 113 0 l 113 972 m 401 563 q 536 605 490 563 q 582 729 582 647 q 532 836 582 803 q 374 869 482 869 l 240 869 l 240 563 l 401 563 m 428 103 q 622 281 622 103 q 562 421 622 376 q 371 465 501 465 l 240 465 l 240 103 l 428 103 z "},"C":{"ha":813,"x_min":47,"x_max":775,"o":"m 467 -14 q 244 47 339 -14 q 99 221 150 108 q 47 486 47 333 q 99 751 47 639 q 247 925 151 864 q 472 986 343 986 q 656 946 575 986 q 775 835 736 906 l 703 764 q 474 881 626 881 q 255 777 333 881 q 176 486 176 674 q 253 196 176 300 q 467 92 331 92 q 608 120 550 92 q 703 208 665 149 l 775 138 q 654 26 735 65 q 467 -14 574 -14 z "},"Ć":{"ha":813,"x_min":47,"x_max":775,"o":"m 467 -14 q 244 47 339 -14 q 99 221 150 108 q 47 486 47 333 q 99 751 47 639 q 247 925 151 864 q 472 986 343 986 q 656 946 575 986 q 775 835 736 906 l 703 764 q 474 881 626 881 q 255 777 333 881 q 176 486 176 674 q 253 196 176 300 q 467 92 331 92 q 608 120 550 92 q 703 208 665 149 l 775 138 q 654 26 735 65 q 467 -14 574 -14 m 533 1250 l 654 1250 l 519 1047 l 425 1047 l 533 1250 z "},"Č":{"ha":813,"x_min":47,"x_max":775,"o":"m 467 -14 q 244 47 339 -14 q 99 221 150 108 q 47 486 47 333 q 99 751 47 639 q 247 925 151 864 q 472 986 343 986 q 656 946 575 986 q 775 835 736 906 l 703 764 q 474 881 626 881 q 255 777 333 881 q 176 486 176 674 q 253 196 176 300 q 467 92 331 92 q 608 120 550 92 q 703 208 665 149 l 775 138 q 654 26 735 65 q 467 -14 574 -14 m 271 1246 l 374 1246 l 467 1124 l 560 1246 l 663 1246 l 507 1047 l 426 1047 l 271 1246 z "},"Ç":{"ha":813,"x_min":47,"x_max":775,"o":"m 467 92 q 608 120 550 92 q 703 208 665 149 l 775 138 q 672 35 740 74 q 513 -12 604 -4 l 474 -86 q 565 -112 531 -86 q 600 -185 600 -137 q 562 -274 600 -240 q 457 -307 524 -307 q 399 -302 429 -307 q 351 -289 368 -297 l 363 -235 q 440 -244 394 -244 q 495 -230 474 -244 q 517 -187 517 -215 q 489 -149 517 -162 q 410 -136 461 -135 l 382 -106 l 435 -12 q 229 58 317 -6 q 94 231 142 121 q 47 486 47 340 q 99 751 47 639 q 247 925 151 864 q 472 986 343 986 q 656 946 575 986 q 775 835 736 906 l 703 764 q 474 881 626 881 q 255 777 333 881 q 176 486 176 674 q 253 196 176 300 q 467 92 331 92 z "},"Ĉ":{"ha":813,"x_min":47,"x_max":775,"o":"m 467 -14 q 244 47 339 -14 q 99 221 150 108 q 47 486 47 333 q 99 751 47 639 q 247 925 151 864 q 472 986 343 986 q 656 946 575 986 q 775 835 736 906 l 703 764 q 474 881 626 881 q 255 777 333 881 q 176 486 176 674 q 253 196 176 300 q 467 92 331 92 q 608 120 550 92 q 703 208 665 149 l 775 138 q 654 26 735 65 q 467 -14 574 -14 m 426 1246 l 507 1246 l 663 1047 l 560 1047 l 467 1169 l 374 1047 l 271 1047 l 426 1246 z "},"Ċ":{"ha":813,"x_min":47,"x_max":775,"o":"m 467 -14 q 244 47 339 -14 q 99 221 150 108 q 47 486 47 333 q 99 751 47 639 q 247 925 151 864 q 472 986 343 986 q 656 946 575 986 q 775 835 736 906 l 703 764 q 474 881 626 881 q 255 777 333 881 q 176 486 176 674 q 253 196 176 300 q 467 92 331 92 q 608 120 550 92 q 703 208 665 149 l 775 138 q 654 26 735 65 q 467 -14 574 -14 m 467 1047 q 415 1067 436 1047 q 394 1118 394 1088 q 415 1169 394 1149 q 467 1189 435 1189 q 519 1169 499 1189 q 539 1118 539 1149 q 518 1067 539 1088 q 467 1047 497 1047 z "},"D":{"ha":865,"x_min":113,"x_max":804,"o":"m 113 972 l 421 972 q 708 854 611 972 q 804 506 804 736 q 761 215 804 325 q 626 52 718 104 q 382 0 533 0 l 113 0 l 113 972 m 404 106 q 611 201 546 106 q 676 506 676 297 q 613 778 676 690 q 415 867 549 867 l 240 867 l 240 106 l 404 106 z "},"Ð":{"ha":868,"x_min":11,"x_max":807,"o":"m 424 972 q 710 854 614 972 q 807 506 807 736 q 764 215 807 325 q 628 52 721 104 q 385 0 536 0 l 115 0 l 115 419 l 11 419 l 11 518 l 115 518 l 115 972 l 424 972 m 407 106 q 614 201 549 106 q 679 506 679 297 q 615 778 679 690 q 418 867 551 867 l 243 867 l 243 518 l 529 518 l 529 419 l 243 419 l 243 106 l 407 106 z "},"Ď":{"ha":865,"x_min":113,"x_max":804,"o":"m 113 972 l 421 972 q 708 854 611 972 q 804 506 804 736 q 761 215 804 325 q 626 52 718 104 q 382 0 533 0 l 113 0 l 113 972 m 404 106 q 611 201 546 106 q 676 506 676 297 q 613 778 676 690 q 415 867 549 867 l 240 867 l 240 106 l 404 106 m 238 1246 l 340 1246 l 433 1124 l 526 1246 l 629 1246 l 474 1047 l 393 1047 l 238 1246 z "},"Đ":{"ha":868,"x_min":11,"x_max":807,"o":"m 424 972 q 710 854 614 972 q 807 506 807 736 q 764 215 807 325 q 628 52 721 104 q 385 0 536 0 l 115 0 l 115 419 l 11 419 l 11 518 l 115 518 l 115 972 l 424 972 m 407 106 q 614 201 549 106 q 679 506 679 297 q 615 778 679 690 q 418 867 551 867 l 243 867 l 243 518 l 529 518 l 529 419 l 243 419 l 243 106 l 407 106 z "},"Ḍ":{"ha":865,"x_min":113,"x_max":804,"o":"m 113 972 l 421 972 q 708 854 611 972 q 804 506 804 736 q 761 215 804 325 q 626 52 718 104 q 382 0 533 0 l 113 0 l 113 972 m 404 106 q 611 201 546 106 q 676 506 676 297 q 613 778 676 690 q 415 867 549 867 l 240 867 l 240 106 l 404 106 m 417 -242 q 365 -222 385 -242 q 344 -171 344 -201 q 365 -120 344 -140 q 417 -100 385 -100 q 469 -120 449 -100 q 489 -171 489 -140 q 469 -222 489 -201 q 417 -242 449 -242 z "},"Ḏ":{"ha":865,"x_min":113,"x_max":804,"o":"m 113 972 l 421 972 q 708 854 611 972 q 804 506 804 736 q 761 215 804 325 q 626 52 718 104 q 382 0 533 0 l 113 0 l 113 972 m 404 106 q 611 201 546 106 q 676 506 676 297 q 613 778 676 690 q 415 867 549 867 l 240 867 l 240 106 l 404 106 m 200 -89 l 633 -89 l 633 -171 l 200 -171 l 200 -89 z "},"E":{"ha":767,"x_min":113,"x_max":696,"o":"m 113 972 l 696 972 l 696 867 l 240 867 l 240 564 l 647 564 l 647 458 l 240 458 l 240 106 l 696 106 l 696 0 l 113 0 l 113 972 z "},"É":{"ha":767,"x_min":113,"x_max":696,"o":"m 113 972 l 696 972 l 696 867 l 240 867 l 240 564 l 647 564 l 647 458 l 240 458 l 240 106 l 696 106 l 696 0 l 113 0 l 113 972 m 476 1250 l 597 1250 l 463 1047 l 368 1047 l 476 1250 z "},"Ĕ":{"ha":767,"x_min":113,"x_max":696,"o":"m 113 972 l 696 972 l 696 867 l 240 867 l 240 564 l 647 564 l 647 458 l 240 458 l 240 106 l 696 106 l 696 0 l 113 0 l 113 972 m 410 1047 q 266 1094 319 1047 q 208 1232 213 1140 l 283 1232 q 318 1155 286 1183 q 410 1126 350 1126 q 499 1153 465 1126 q 536 1232 532 1179 l 611 1232 q 558 1097 608 1146 q 410 1047 507 1047 z "},"Ě":{"ha":767,"x_min":113,"x_max":696,"o":"m 113 972 l 696 972 l 696 867 l 240 867 l 240 564 l 647 564 l 647 458 l 240 458 l 240 106 l 696 106 l 696 0 l 113 0 l 113 972 m 214 1246 l 317 1246 l 410 1124 l 503 1246 l 606 1246 l 450 1047 l 369 1047 l 214 1246 z "},"Ê":{"ha":767,"x_min":113,"x_max":696,"o":"m 113 972 l 696 972 l 696 867 l 240 867 l 240 564 l 647 564 l 647 458 l 240 458 l 240 106 l 696 106 l 696 0 l 113 0 l 113 972 m 369 1246 l 450 1246 l 606 1047 l 503 1047 l 410 1169 l 317 1047 l 214 1047 l 369 1246 z "},"Ế":{"ha":767,"x_min":113,"x_max":699,"o":"m 113 972 l 696 972 l 696 867 l 240 867 l 240 564 l 647 564 l 647 458 l 240 458 l 240 106 l 696 106 l 696 0 l 113 0 l 113 972 m 600 1351 l 699 1351 l 611 1208 l 535 1208 l 600 1351 m 369 1246 l 450 1246 l 606 1047 l 503 1047 l 410 1169 l 317 1047 l 214 1047 l 369 1246 z "},"Ệ":{"ha":767,"x_min":113,"x_max":696,"o":"m 113 972 l 696 972 l 696 867 l 240 867 l 240 564 l 647 564 l 647 458 l 240 458 l 240 106 l 696 106 l 696 0 l 113 0 l 113 972 m 410 -242 q 358 -222 378 -242 q 338 -171 338 -201 q 358 -120 338 -140 q 410 -100 378 -100 q 462 -120 442 -100 q 482 -171 482 -140 q 462 -222 482 -201 q 410 -242 442 -242 m 369 1246 l 450 1246 l 606 1047 l 503 1047 l 410 1169 l 317 1047 l 214 1047 l 369 1246 z "},"Ề":{"ha":767,"x_min":113,"x_max":696,"o":"m 113 972 l 696 972 l 696 867 l 240 867 l 240 564 l 647 564 l 647 458 l 240 458 l 240 106 l 696 106 l 696 0 l 113 0 l 113 972 m 493 1351 l 592 1351 l 657 1208 l 581 1208 l 493 1351 m 369 1246 l 450 1246 l 606 1047 l 503 1047 l 410 1169 l 317 1047 l 214 1047 l 369 1246 z "},"Ể":{"ha":767,"x_min":113,"x_max":726,"o":"m 113 972 l 696 972 l 696 867 l 240 867 l 240 564 l 647 564 l 647 458 l 240 458 l 240 106 l 696 106 l 696 0 l 113 0 l 113 972 m 575 1199 q 588 1247 575 1229 q 624 1283 600 1264 q 651 1307 642 1296 q 660 1335 660 1318 q 648 1360 660 1350 q 615 1369 636 1369 q 576 1359 594 1369 q 544 1328 557 1349 l 503 1365 q 551 1410 519 1393 q 622 1428 583 1428 q 698 1404 669 1428 q 726 1338 726 1381 q 715 1295 726 1311 q 681 1258 704 1279 q 651 1230 661 1243 q 642 1199 642 1217 l 575 1199 m 369 1246 l 450 1246 l 606 1047 l 503 1047 l 410 1169 l 317 1047 l 214 1047 l 369 1246 z "},"Ễ":{"ha":767,"x_min":113,"x_max":696,"o":"m 113 972 l 696 972 l 696 867 l 240 867 l 240 564 l 647 564 l 647 458 l 240 458 l 240 106 l 696 106 l 696 0 l 113 0 l 113 972 m 481 1289 q 441 1298 460 1289 q 397 1324 422 1307 q 360 1345 374 1339 q 332 1351 347 1351 q 281 1296 296 1351 l 224 1296 q 263 1383 233 1351 q 338 1415 292 1415 q 378 1407 358 1415 q 425 1383 399 1399 q 465 1363 450 1369 q 493 1357 479 1357 q 544 1414 532 1357 l 600 1414 q 559 1322 590 1356 q 481 1289 528 1289 m 369 1246 l 450 1246 l 606 1047 l 503 1047 l 410 1169 l 317 1047 l 214 1047 l 369 1246 z "},"Ë":{"ha":767,"x_min":113,"x_max":696,"o":"m 113 972 l 696 972 l 696 867 l 240 867 l 240 564 l 647 564 l 647 458 l 240 458 l 240 106 l 696 106 l 696 0 l 113 0 l 113 972 m 271 1047 q 219 1067 240 1047 q 199 1118 199 1088 q 219 1169 199 1149 q 271 1189 239 1189 q 322 1169 301 1189 q 343 1118 343 1149 q 322 1067 343 1088 q 271 1047 301 1047 m 549 1047 q 497 1067 518 1047 q 476 1118 476 1088 q 497 1169 476 1149 q 549 1189 518 1189 q 601 1169 581 1189 q 621 1118 621 1149 q 600 1067 621 1088 q 549 1047 579 1047 z "},"Ė":{"ha":767,"x_min":113,"x_max":696,"o":"m 113 972 l 696 972 l 696 867 l 240 867 l 240 564 l 647 564 l 647 458 l 240 458 l 240 106 l 696 106 l 696 0 l 113 0 l 113 972 m 410 1047 q 358 1067 379 1047 q 338 1118 338 1088 q 358 1169 338 1149 q 410 1189 378 1189 q 462 1169 442 1189 q 482 1118 482 1149 q 461 1067 482 1088 q 410 1047 440 1047 z "},"Ẹ":{"ha":767,"x_min":113,"x_max":696,"o":"m 113 972 l 696 972 l 696 867 l 240 867 l 240 564 l 647 564 l 647 458 l 240 458 l 240 106 l 696 106 l 696 0 l 113 0 l 113 972 m 410 -242 q 358 -222 378 -242 q 338 -171 338 -201 q 358 -120 338 -140 q 410 -100 378 -100 q 462 -120 442 -100 q 482 -171 482 -140 q 462 -222 482 -201 q 410 -242 442 -242 z "},"È":{"ha":767,"x_min":113,"x_max":696,"o":"m 113 972 l 696 972 l 696 867 l 240 867 l 240 564 l 647 564 l 647 458 l 240 458 l 240 106 l 696 106 l 696 0 l 113 0 l 113 972 m 228 1250 l 349 1250 l 457 1047 l 363 1047 l 228 1250 z "},"Ẻ":{"ha":767,"x_min":113,"x_max":696,"o":"m 113 972 l 696 972 l 696 867 l 240 867 l 240 564 l 647 564 l 647 458 l 240 458 l 240 106 l 696 106 l 696 0 l 113 0 l 113 972 m 363 1047 q 377 1103 363 1082 q 418 1149 392 1125 q 452 1187 442 1172 q 463 1224 463 1201 q 406 1268 463 1268 q 318 1206 351 1268 l 265 1253 q 325 1316 286 1293 q 415 1339 364 1339 q 515 1310 478 1339 q 551 1228 551 1282 q 537 1171 551 1194 q 494 1118 522 1147 q 462 1081 472 1096 q 451 1047 451 1065 l 363 1047 z "},"Ē":{"ha":767,"x_min":113,"x_max":696,"o":"m 113 972 l 696 972 l 696 867 l 240 867 l 240 564 l 647 564 l 647 458 l 240 458 l 240 106 l 696 106 l 696 0 l 113 0 l 113 972 m 193 1143 l 626 1143 l 626 1061 l 193 1061 l 193 1143 z "},"Ę":{"ha":767,"x_min":113,"x_max":758,"o":"m 758 -251 q 702 -282 735 -271 q 633 -293 669 -293 q 534 -262 571 -293 q 497 -168 497 -231 q 615 0 497 -65 l 113 0 l 113 972 l 696 972 l 696 867 l 240 867 l 240 564 l 647 564 l 647 458 l 240 458 l 240 106 l 696 106 l 696 0 q 583 -151 583 -78 q 605 -200 583 -182 q 671 -218 626 -218 q 743 -201 701 -218 l 758 -251 z "},"Ẽ":{"ha":767,"x_min":113,"x_max":696,"o":"m 113 972 l 696 972 l 696 867 l 240 867 l 240 564 l 647 564 l 647 458 l 240 458 l 240 106 l 696 106 l 696 0 l 113 0 l 113 972 m 207 1047 q 238 1149 207 1110 q 319 1188 269 1188 q 365 1179 344 1188 q 422 1150 385 1171 q 488 1122 465 1122 q 517 1139 507 1122 q 531 1193 528 1156 l 603 1193 q 569 1087 601 1126 q 486 1047 538 1047 q 436 1058 460 1047 q 379 1088 413 1068 q 322 1113 339 1113 q 292 1095 304 1113 q 279 1047 281 1078 l 207 1047 z "},"F":{"ha":764,"x_min":113,"x_max":703,"o":"m 113 972 l 703 972 l 703 867 l 240 867 l 240 525 l 672 525 l 672 419 l 240 419 l 240 0 l 113 0 l 113 972 z "},"G":{"ha":883,"x_min":47,"x_max":799,"o":"m 799 503 l 799 0 l 713 0 l 692 61 q 584 6 646 25 q 453 -14 522 -14 q 236 47 328 -14 q 96 219 144 107 q 47 486 47 332 q 99 750 47 638 q 247 924 151 863 q 469 986 342 986 q 661 946 578 986 q 783 835 744 906 l 713 764 q 615 851 676 821 q 471 881 553 881 q 254 776 332 881 q 176 486 176 672 q 252 192 176 297 q 464 86 328 86 q 581 104 528 86 q 672 157 635 122 l 672 408 l 440 408 l 440 503 l 799 503 z "},"Ğ":{"ha":883,"x_min":47,"x_max":799,"o":"m 799 503 l 799 0 l 713 0 l 692 61 q 584 6 646 25 q 453 -14 522 -14 q 236 47 328 -14 q 96 219 144 107 q 47 486 47 332 q 99 750 47 638 q 247 924 151 863 q 469 986 342 986 q 661 946 578 986 q 783 835 744 906 l 713 764 q 615 851 676 821 q 471 881 553 881 q 254 776 332 881 q 176 486 176 672 q 252 192 176 297 q 464 86 328 86 q 581 104 528 86 q 672 157 635 122 l 672 408 l 440 408 l 440 503 l 799 503 m 468 1047 q 324 1094 378 1047 q 267 1232 271 1140 l 342 1232 q 376 1155 344 1183 q 468 1126 408 1126 q 557 1153 524 1126 q 594 1232 590 1179 l 669 1232 q 616 1097 667 1146 q 468 1047 565 1047 z "},"Ǧ":{"ha":883,"x_min":47,"x_max":799,"o":"m 799 503 l 799 0 l 713 0 l 692 61 q 584 6 646 25 q 453 -14 522 -14 q 236 47 328 -14 q 96 219 144 107 q 47 486 47 332 q 99 750 47 638 q 247 924 151 863 q 469 986 342 986 q 661 946 578 986 q 783 835 744 906 l 713 764 q 615 851 676 821 q 471 881 553 881 q 254 776 332 881 q 176 486 176 672 q 252 192 176 297 q 464 86 328 86 q 581 104 528 86 q 672 157 635 122 l 672 408 l 440 408 l 440 503 l 799 503 m 272 1246 l 375 1246 l 468 1124 l 561 1246 l 664 1246 l 508 1047 l 428 1047 l 272 1246 z "},"Ĝ":{"ha":883,"x_min":47,"x_max":799,"o":"m 799 503 l 799 0 l 713 0 l 692 61 q 584 6 646 25 q 453 -14 522 -14 q 236 47 328 -14 q 96 219 144 107 q 47 486 47 332 q 99 750 47 638 q 247 924 151 863 q 469 986 342 986 q 661 946 578 986 q 783 835 744 906 l 713 764 q 615 851 676 821 q 471 881 553 881 q 254 776 332 881 q 176 486 176 672 q 252 192 176 297 q 464 86 328 86 q 581 104 528 86 q 672 157 635 122 l 672 408 l 440 408 l 440 503 l 799 503 m 428 1246 l 508 1246 l 664 1047 l 561 1047 l 468 1169 l 375 1047 l 272 1047 l 428 1246 z "},"Ģ":{"ha":883,"x_min":47,"x_max":799,"o":"m 799 503 l 799 0 l 713 0 l 692 61 q 584 6 646 25 q 453 -14 522 -14 q 236 47 328 -14 q 96 219 144 107 q 47 486 47 332 q 99 750 47 638 q 247 924 151 863 q 469 986 342 986 q 661 946 578 986 q 783 835 744 906 l 713 764 q 615 851 676 821 q 471 881 553 881 q 254 776 332 881 q 176 486 176 672 q 252 192 176 297 q 464 86 328 86 q 581 104 528 86 q 672 157 635 122 l 672 408 l 440 408 l 440 503 l 799 503 m 468 -100 q 531 -126 508 -100 q 553 -192 553 -151 q 528 -290 553 -237 q 465 -382 504 -343 l 415 -346 q 438 -312 418 -342 q 468 -250 458 -282 l 465 -250 q 413 -230 433 -250 q 392 -176 392 -210 q 413 -122 392 -143 q 468 -100 433 -100 z "},"Ġ":{"ha":883,"x_min":47,"x_max":799,"o":"m 799 503 l 799 0 l 713 0 l 692 61 q 584 6 646 25 q 453 -14 522 -14 q 236 47 328 -14 q 96 219 144 107 q 47 486 47 332 q 99 750 47 638 q 247 924 151 863 q 469 986 342 986 q 661 946 578 986 q 783 835 744 906 l 713 764 q 615 851 676 821 q 471 881 553 881 q 254 776 332 881 q 176 486 176 672 q 252 192 176 297 q 464 86 328 86 q 581 104 528 86 q 672 157 635 122 l 672 408 l 440 408 l 440 503 l 799 503 m 468 1047 q 417 1067 438 1047 q 396 1118 396 1088 q 416 1169 396 1149 q 468 1189 436 1189 q 520 1169 500 1189 q 540 1118 540 1149 q 519 1067 540 1088 q 468 1047 499 1047 z "},"Ḡ":{"ha":883,"x_min":47,"x_max":799,"o":"m 799 503 l 799 0 l 713 0 l 692 61 q 584 6 646 25 q 453 -14 522 -14 q 236 47 328 -14 q 96 219 144 107 q 47 486 47 332 q 99 750 47 638 q 247 924 151 863 q 469 986 342 986 q 661 946 578 986 q 783 835 744 906 l 713 764 q 615 851 676 821 q 471 881 553 881 q 254 776 332 881 q 176 486 176 672 q 252 192 176 297 q 464 86 328 86 q 581 104 528 86 q 672 157 635 122 l 672 408 l 440 408 l 440 503 l 799 503 m 251 1143 l 685 1143 l 685 1061 l 251 1061 l 251 1143 z "},"H":{"ha":942,"x_min":111,"x_max":831,"o":"m 111 972 l 239 972 l 239 544 l 703 544 l 703 972 l 831 972 l 831 0 l 703 0 l 703 439 l 239 439 l 239 0 l 111 0 l 111 972 z "},"Ħ":{"ha":969,"x_min":42,"x_max":928,"o":"m 928 696 l 844 696 l 844 0 l 717 0 l 717 439 l 253 439 l 253 0 l 125 0 l 125 696 l 42 696 l 42 779 l 125 779 l 125 972 l 253 972 l 253 779 l 717 779 l 717 972 l 844 972 l 844 779 l 928 779 l 928 696 m 717 696 l 253 696 l 253 544 l 717 544 l 717 696 z "},"Ḫ":{"ha":942,"x_min":111,"x_max":831,"o":"m 111 972 l 239 972 l 239 544 l 703 544 l 703 972 l 831 972 l 831 0 l 703 0 l 703 439 l 239 439 l 239 0 l 111 0 l 111 972 m 471 -283 q 327 -237 381 -283 q 269 -100 274 -192 l 344 -100 q 379 -177 347 -149 q 471 -206 411 -206 q 560 -179 526 -206 q 597 -100 593 -153 l 672 -100 q 619 -235 669 -186 q 471 -283 568 -283 z "},"Ĥ":{"ha":942,"x_min":111,"x_max":831,"o":"m 111 972 l 239 972 l 239 544 l 703 544 l 703 972 l 831 972 l 831 0 l 703 0 l 703 439 l 239 439 l 239 0 l 111 0 l 111 972 m 431 1246 l 511 1246 l 667 1047 l 564 1047 l 471 1169 l 378 1047 l 275 1047 l 431 1246 z "},"Ḥ":{"ha":942,"x_min":111,"x_max":831,"o":"m 111 972 l 239 972 l 239 544 l 703 544 l 703 972 l 831 972 l 831 0 l 703 0 l 703 439 l 239 439 l 239 0 l 111 0 l 111 972 m 471 -242 q 419 -222 439 -242 q 399 -171 399 -201 q 419 -120 399 -140 q 471 -100 439 -100 q 523 -120 503 -100 q 543 -171 543 -140 q 523 -222 543 -201 q 471 -242 503 -242 z "},"I":{"ha":406,"x_min":139,"x_max":267,"o":"m 139 972 l 267 972 l 267 0 l 139 0 l 139 972 z "},"Ĳ":{"ha":1017,"x_min":139,"x_max":906,"o":"m 139 972 l 267 972 l 267 0 l 139 0 l 139 972 m 626 -14 q 509 6 567 -14 q 415 58 451 26 l 464 150 q 535 108 492 124 q 622 92 579 92 q 741 148 704 92 q 778 332 778 204 l 778 972 l 906 972 l 906 310 q 839 64 906 142 q 626 -14 772 -14 z "},"Í":{"ha":406,"x_min":139,"x_max":392,"o":"m 139 972 l 267 972 l 267 0 l 139 0 l 139 972 m 271 1250 l 392 1250 l 257 1047 l 163 1047 l 271 1250 z "},"Ĭ":{"ha":406,"x_min":3,"x_max":406,"o":"m 139 972 l 267 972 l 267 0 l 139 0 l 139 972 m 204 1047 q 60 1094 114 1047 q 3 1232 7 1140 l 78 1232 q 113 1155 81 1183 q 204 1126 144 1126 q 293 1153 260 1126 q 331 1232 326 1179 l 406 1232 q 352 1097 403 1146 q 204 1047 301 1047 z "},"Ǐ":{"ha":406,"x_min":8,"x_max":400,"o":"m 139 972 l 267 972 l 267 0 l 139 0 l 139 972 m 8 1246 l 111 1246 l 204 1124 l 297 1246 l 400 1246 l 244 1047 l 164 1047 l 8 1246 z "},"Î":{"ha":406,"x_min":8,"x_max":400,"o":"m 139 972 l 267 972 l 267 0 l 139 0 l 139 972 m 164 1246 l 244 1246 l 400 1047 l 297 1047 l 204 1169 l 111 1047 l 8 1047 l 164 1246 z "},"Ï":{"ha":406,"x_min":-7,"x_max":415,"o":"m 139 972 l 267 972 l 267 0 l 139 0 l 139 972 m 65 1047 q 14 1067 35 1047 q -7 1118 -7 1088 q 13 1169 -7 1149 q 65 1189 33 1189 q 117 1169 96 1189 q 138 1118 138 1149 q 117 1067 138 1088 q 65 1047 96 1047 m 343 1047 q 292 1067 313 1047 q 271 1118 271 1088 q 292 1169 271 1149 q 343 1189 313 1189 q 395 1169 375 1189 q 415 1118 415 1149 q 394 1067 415 1088 q 343 1047 374 1047 z "},"İ":{"ha":406,"x_min":132,"x_max":276,"o":"m 139 972 l 267 972 l 267 0 l 139 0 l 139 972 m 204 1047 q 153 1067 174 1047 q 132 1118 132 1088 q 152 1169 132 1149 q 204 1189 172 1189 q 256 1169 236 1189 q 276 1118 276 1149 q 256 1067 276 1088 q 204 1047 235 1047 z "},"Ị":{"ha":406,"x_min":132,"x_max":276,"o":"m 139 972 l 267 972 l 267 0 l 139 0 l 139 972 m 204 -242 q 152 -222 172 -242 q 132 -171 132 -201 q 152 -120 132 -140 q 204 -100 172 -100 q 256 -120 236 -100 q 276 -171 276 -140 q 256 -222 276 -201 q 204 -242 236 -242 z "},"Ì":{"ha":406,"x_min":22,"x_max":267,"o":"m 139 972 l 267 972 l 267 0 l 139 0 l 139 972 m 22 1250 l 143 1250 l 251 1047 l 157 1047 l 22 1250 z "},"Ỉ":{"ha":406,"x_min":60,"x_max":346,"o":"m 139 972 l 267 972 l 267 0 l 139 0 l 139 972 m 157 1047 q 172 1103 157 1082 q 213 1149 186 1125 q 247 1187 236 1172 q 257 1224 257 1201 q 200 1268 257 1268 q 113 1206 146 1268 l 60 1253 q 119 1316 81 1293 q 210 1339 158 1339 q 309 1310 272 1339 q 346 1228 346 1282 q 331 1171 346 1194 q 289 1118 317 1147 q 256 1081 267 1096 q 246 1047 246 1065 l 157 1047 z "},"Ī":{"ha":406,"x_min":-12,"x_max":421,"o":"m 139 972 l 267 972 l 267 0 l 139 0 l 139 972 m -12 1143 l 421 1143 l 421 1061 l -12 1061 l -12 1143 z "},"Į":{"ha":406,"x_min":44,"x_max":306,"o":"m 306 -251 q 249 -282 282 -271 q 181 -293 217 -293 q 81 -262 118 -293 q 44 -168 44 -231 q 163 0 44 -65 l 139 0 l 139 972 l 267 972 l 267 0 l 243 0 q 131 -151 131 -78 q 152 -200 131 -182 q 218 -218 174 -218 q 290 -201 249 -218 l 306 -251 z "},"Ĩ":{"ha":406,"x_min":1,"x_max":397,"o":"m 139 972 l 267 972 l 267 0 l 139 0 l 139 972 m 1 1047 q 33 1149 1 1110 q 114 1188 64 1188 q 159 1179 139 1188 q 217 1150 179 1171 q 282 1122 260 1122 q 312 1139 301 1122 q 325 1193 322 1156 l 397 1193 q 364 1087 396 1126 q 281 1047 332 1047 q 231 1058 254 1047 q 174 1088 207 1068 q 117 1113 133 1113 q 87 1095 99 1113 q 74 1047 75 1078 l 1 1047 z "},"J":{"ha":611,"x_min":10,"x_max":500,"o":"m 221 -14 q 103 6 161 -14 q 10 58 46 26 l 58 150 q 130 108 86 124 q 217 92 174 92 q 335 148 299 92 q 372 332 372 204 l 372 972 l 500 972 l 500 310 q 433 64 500 142 q 221 -14 367 -14 z "},"Ĵ":{"ha":611,"x_min":10,"x_max":514,"o":"m 221 -14 q 103 6 161 -14 q 10 58 46 26 l 58 150 q 130 108 86 124 q 217 92 174 92 q 335 148 299 92 q 372 332 372 204 l 372 972 l 500 972 l 500 310 q 433 64 500 142 q 221 -14 367 -14 m 278 1246 l 358 1246 l 514 1047 l 411 1047 l 318 1169 l 225 1047 l 122 1047 l 278 1246 z "},"K":{"ha":840,"x_min":111,"x_max":826,"o":"m 688 0 l 378 485 l 239 318 l 239 0 l 111 0 l 111 972 l 239 972 l 239 490 l 635 972 l 783 972 l 463 586 l 826 0 l 688 0 z "},"Ķ":{"ha":840,"x_min":111,"x_max":826,"o":"m 688 0 l 378 485 l 239 318 l 239 0 l 111 0 l 111 972 l 239 972 l 239 490 l 635 972 l 783 972 l 463 586 l 826 0 l 688 0 m 422 -100 q 485 -126 463 -100 q 507 -192 507 -151 q 483 -290 507 -237 q 419 -382 458 -343 l 369 -346 q 392 -312 372 -342 q 422 -250 413 -282 l 419 -250 q 367 -230 388 -250 q 346 -176 346 -210 q 367 -122 346 -143 q 422 -100 388 -100 z "},"L":{"ha":761,"x_min":111,"x_max":708,"o":"m 111 972 l 239 972 l 239 106 l 708 106 l 708 0 l 111 0 l 111 972 z "},"Ĺ":{"ha":761,"x_min":111,"x_max":708,"o":"m 111 972 l 239 972 l 239 106 l 708 106 l 708 0 l 111 0 l 111 972 m 242 1250 l 363 1250 l 228 1047 l 133 1047 l 242 1250 z "},"Ľ":{"ha":761,"x_min":111,"x_max":708,"o":"m 111 972 l 239 972 l 239 106 l 708 106 l 708 0 l 111 0 l 111 972 m 574 986 q 636 960 614 986 q 658 894 658 935 q 634 796 658 849 q 571 704 610 743 l 521 740 q 544 775 524 746 q 574 835 564 804 l 571 835 q 518 856 539 835 q 497 908 497 876 q 518 965 497 943 q 574 986 539 986 z "},"Ļ":{"ha":761,"x_min":111,"x_max":708,"o":"m 111 972 l 239 972 l 239 106 l 708 106 l 708 0 l 111 0 l 111 972 m 407 -100 q 469 -126 447 -100 q 492 -192 492 -151 q 467 -290 492 -237 q 404 -382 443 -343 l 354 -346 q 377 -312 357 -342 q 407 -250 397 -282 l 404 -250 q 351 -230 372 -250 q 331 -176 331 -210 q 351 -122 331 -143 q 407 -100 372 -100 z "},"Ŀ":{"ha":761,"x_min":111,"x_max":708,"o":"m 111 972 l 239 972 l 239 106 l 708 106 l 708 0 l 111 0 l 111 972 m 465 393 q 403 419 428 393 q 379 483 379 444 q 403 549 379 524 q 465 575 428 575 q 527 549 503 575 q 551 483 551 524 q 527 419 551 444 q 465 393 503 393 z "},"Ḷ":{"ha":761,"x_min":111,"x_max":708,"o":"m 111 972 l 239 972 l 239 106 l 708 106 l 708 0 l 111 0 l 111 972 m 407 -242 q 355 -222 375 -242 q 335 -171 335 -201 q 355 -120 335 -140 q 407 -100 375 -100 q 459 -120 439 -100 q 479 -171 479 -140 q 459 -222 479 -201 q 407 -242 439 -242 z "},"Ḹ":{"ha":761,"x_min":-42,"x_max":708,"o":"m 111 972 l 239 972 l 239 106 l 708 106 l 708 0 l 111 0 l 111 972 m 407 -242 q 355 -222 375 -242 q 335 -171 335 -201 q 355 -120 335 -140 q 407 -100 375 -100 q 459 -120 439 -100 q 479 -171 479 -140 q 459 -222 479 -201 q 407 -242 439 -242 m -42 1143 l 392 1143 l 392 1061 l -42 1061 l -42 1143 z "},"Ḻ":{"ha":761,"x_min":111,"x_max":708,"o":"m 111 972 l 239 972 l 239 106 l 708 106 l 708 0 l 111 0 l 111 972 m 190 -89 l 624 -89 l 624 -171 l 190 -171 l 190 -89 z "},"Ł":{"ha":761,"x_min":24,"x_max":708,"o":"m 708 106 l 708 0 l 111 0 l 111 385 l 24 349 l 24 450 l 111 488 l 111 972 l 239 972 l 239 542 l 483 647 l 483 540 l 239 439 l 239 106 l 708 106 z "},"M":{"ha":1108,"x_min":113,"x_max":996,"o":"m 996 972 l 996 0 l 871 0 l 871 736 l 599 0 l 510 0 l 238 736 l 238 0 l 113 0 l 113 972 l 260 972 l 554 161 l 849 972 l 996 972 z "},"Ṃ":{"ha":1108,"x_min":113,"x_max":996,"o":"m 996 972 l 996 0 l 871 0 l 871 736 l 599 0 l 510 0 l 238 736 l 238 0 l 113 0 l 113 972 l 260 972 l 554 161 l 849 972 l 996 972 m 554 -242 q 502 -222 522 -242 q 482 -171 482 -201 q 502 -120 482 -140 q 554 -100 522 -100 q 606 -120 586 -100 q 626 -171 626 -140 q 606 -222 626 -201 q 554 -242 586 -242 z "},"N":{"ha":947,"x_min":111,"x_max":836,"o":"m 836 972 l 836 0 l 710 0 l 239 769 l 239 0 l 111 0 l 111 972 l 246 972 l 708 213 l 708 972 l 836 972 z "},"Ń":{"ha":947,"x_min":111,"x_max":836,"o":"m 836 972 l 836 0 l 710 0 l 239 769 l 239 0 l 111 0 l 111 972 l 246 972 l 708 213 l 708 972 l 836 972 m 540 1250 l 661 1250 l 526 1047 l 432 1047 l 540 1250 z "},"Ň":{"ha":947,"x_min":111,"x_max":836,"o":"m 836 972 l 836 0 l 710 0 l 239 769 l 239 0 l 111 0 l 111 972 l 246 972 l 708 213 l 708 972 l 836 972 m 278 1246 l 381 1246 l 474 1124 l 567 1246 l 669 1246 l 514 1047 l 433 1047 l 278 1246 z "},"Ņ":{"ha":947,"x_min":111,"x_max":836,"o":"m 836 972 l 836 0 l 710 0 l 239 769 l 239 0 l 111 0 l 111 972 l 246 972 l 708 213 l 708 972 l 836 972 m 474 -100 q 536 -126 514 -100 q 558 -192 558 -151 q 534 -290 558 -237 q 471 -382 510 -343 l 421 -346 q 444 -312 424 -342 q 474 -250 464 -282 l 471 -250 q 418 -230 439 -250 q 397 -176 397 -210 q 418 -122 397 -143 q 474 -100 439 -100 z "},"Ṅ":{"ha":947,"x_min":111,"x_max":836,"o":"m 836 972 l 836 0 l 710 0 l 239 769 l 239 0 l 111 0 l 111 972 l 246 972 l 708 213 l 708 972 l 836 972 m 474 1047 q 422 1067 443 1047 q 401 1118 401 1088 q 422 1169 401 1149 q 474 1189 442 1189 q 526 1169 506 1189 q 546 1118 546 1149 q 525 1067 546 1088 q 474 1047 504 1047 z "},"Ṇ":{"ha":947,"x_min":111,"x_max":836,"o":"m 836 972 l 836 0 l 710 0 l 239 769 l 239 0 l 111 0 l 111 972 l 246 972 l 708 213 l 708 972 l 836 972 m 474 -242 q 422 -222 442 -242 q 401 -171 401 -201 q 422 -120 401 -140 q 474 -100 442 -100 q 526 -120 506 -100 q 546 -171 546 -140 q 526 -222 546 -201 q 474 -242 506 -242 z "},"Ŋ":{"ha":947,"x_min":111,"x_max":836,"o":"m 111 972 l 246 972 l 708 213 l 708 972 l 836 972 l 836 -56 q 771 -289 836 -214 q 568 -364 706 -364 q 464 -347 515 -364 q 381 -304 413 -331 l 424 -219 q 490 -255 451 -242 q 563 -268 528 -268 q 676 -217 640 -268 q 711 -50 711 -165 l 710 0 l 239 769 l 239 0 l 111 0 l 111 972 z "},"Ṉ":{"ha":947,"x_min":111,"x_max":836,"o":"m 836 972 l 836 0 l 710 0 l 239 769 l 239 0 l 111 0 l 111 972 l 246 972 l 708 213 l 708 972 l 836 972 m 257 -89 l 690 -89 l 690 -171 l 257 -171 l 257 -89 z "},"Ñ":{"ha":947,"x_min":111,"x_max":836,"o":"m 836 972 l 836 0 l 710 0 l 239 769 l 239 0 l 111 0 l 111 972 l 246 972 l 708 213 l 708 972 l 836 972 m 271 1047 q 302 1149 271 1110 q 383 1188 333 1188 q 428 1179 408 1188 q 486 1150 449 1171 q 551 1122 529 1122 q 581 1139 571 1122 q 594 1193 592 1156 l 667 1193 q 633 1087 665 1126 q 550 1047 601 1047 q 500 1058 524 1047 q 443 1088 476 1068 q 386 1113 403 1113 q 356 1095 368 1113 q 343 1047 344 1078 l 271 1047 z "},"O":{"ha":918,"x_min":47,"x_max":871,"o":"m 460 -14 q 240 47 333 -14 q 97 220 147 107 q 47 486 47 333 q 97 752 47 639 q 240 926 147 865 q 460 986 333 986 q 678 926 586 986 q 821 752 771 865 q 871 486 871 639 q 821 220 871 333 q 678 47 771 107 q 460 -14 586 -14 m 460 89 q 610 138 546 89 q 709 276 675 186 q 743 486 743 365 q 709 697 743 607 q 610 835 675 786 q 460 883 546 883 q 308 835 372 883 q 210 697 244 786 q 175 486 175 607 q 210 276 175 365 q 308 138 244 186 q 460 89 372 89 z "},"Ó":{"ha":918,"x_min":47,"x_max":871,"o":"m 460 -14 q 240 47 333 -14 q 97 220 147 107 q 47 486 47 333 q 97 752 47 639 q 240 926 147 865 q 460 986 333 986 q 678 926 586 986 q 821 752 771 865 q 871 486 871 639 q 821 220 871 333 q 678 47 771 107 q 460 -14 586 -14 m 460 89 q 610 138 546 89 q 709 276 675 186 q 743 486 743 365 q 709 697 743 607 q 610 835 675 786 q 460 883 546 883 q 308 835 372 883 q 210 697 244 786 q 175 486 175 607 q 210 276 175 365 q 308 138 244 186 q 460 89 372 89 m 526 1250 l 647 1250 l 513 1047 l 418 1047 l 526 1250 z "},"Ŏ":{"ha":918,"x_min":47,"x_max":871,"o":"m 460 -14 q 240 47 333 -14 q 97 220 147 107 q 47 486 47 333 q 97 752 47 639 q 240 926 147 865 q 460 986 333 986 q 678 926 586 986 q 821 752 771 865 q 871 486 871 639 q 821 220 871 333 q 678 47 771 107 q 460 -14 586 -14 m 460 89 q 610 138 546 89 q 709 276 675 186 q 743 486 743 365 q 709 697 743 607 q 610 835 675 786 q 460 883 546 883 q 308 835 372 883 q 210 697 244 786 q 175 486 175 607 q 210 276 175 365 q 308 138 244 186 q 460 89 372 89 m 460 1047 q 316 1094 369 1047 q 258 1232 263 1140 l 333 1232 q 368 1155 336 1183 q 460 1126 400 1126 q 549 1153 515 1126 q 586 1232 582 1179 l 661 1232 q 608 1097 658 1146 q 460 1047 557 1047 z "},"Ǒ":{"ha":918,"x_min":47,"x_max":871,"o":"m 460 -14 q 240 47 333 -14 q 97 220 147 107 q 47 486 47 333 q 97 752 47 639 q 240 926 147 865 q 460 986 333 986 q 678 926 586 986 q 821 752 771 865 q 871 486 871 639 q 821 220 871 333 q 678 47 771 107 q 460 -14 586 -14 m 460 89 q 610 138 546 89 q 709 276 675 186 q 743 486 743 365 q 709 697 743 607 q 610 835 675 786 q 460 883 546 883 q 308 835 372 883 q 210 697 244 786 q 175 486 175 607 q 210 276 175 365 q 308 138 244 186 q 460 89 372 89 m 264 1246 l 367 1246 l 460 1124 l 553 1246 l 656 1246 l 500 1047 l 419 1047 l 264 1246 z "},"Ô":{"ha":918,"x_min":47,"x_max":871,"o":"m 460 -14 q 240 47 333 -14 q 97 220 147 107 q 47 486 47 333 q 97 752 47 639 q 240 926 147 865 q 460 986 333 986 q 678 926 586 986 q 821 752 771 865 q 871 486 871 639 q 821 220 871 333 q 678 47 771 107 q 460 -14 586 -14 m 460 89 q 610 138 546 89 q 709 276 675 186 q 743 486 743 365 q 709 697 743 607 q 610 835 675 786 q 460 883 546 883 q 308 835 372 883 q 210 697 244 786 q 175 486 175 607 q 210 276 175 365 q 308 138 244 186 q 460 89 372 89 m 419 1246 l 500 1246 l 656 1047 l 553 1047 l 460 1169 l 367 1047 l 264 1047 l 419 1246 z "},"Ố":{"ha":918,"x_min":47,"x_max":871,"o":"m 460 -14 q 240 47 333 -14 q 97 220 147 107 q 47 486 47 333 q 97 752 47 639 q 240 926 147 865 q 460 986 333 986 q 678 926 586 986 q 821 752 771 865 q 871 486 871 639 q 821 220 871 333 q 678 47 771 107 q 460 -14 586 -14 m 460 89 q 610 138 546 89 q 709 276 675 186 q 743 486 743 365 q 709 697 743 607 q 610 835 675 786 q 460 883 546 883 q 308 835 372 883 q 210 697 244 786 q 175 486 175 607 q 210 276 175 365 q 308 138 244 186 q 460 89 372 89 m 650 1351 l 749 1351 l 661 1208 l 585 1208 l 650 1351 m 419 1246 l 500 1246 l 656 1047 l 553 1047 l 460 1169 l 367 1047 l 264 1047 l 419 1246 z "},"Ộ":{"ha":918,"x_min":47,"x_max":871,"o":"m 460 -14 q 240 47 333 -14 q 97 220 147 107 q 47 486 47 333 q 97 752 47 639 q 240 926 147 865 q 460 986 333 986 q 678 926 586 986 q 821 752 771 865 q 871 486 871 639 q 821 220 871 333 q 678 47 771 107 q 460 -14 586 -14 m 460 89 q 610 138 546 89 q 709 276 675 186 q 743 486 743 365 q 709 697 743 607 q 610 835 675 786 q 460 883 546 883 q 308 835 372 883 q 210 697 244 786 q 175 486 175 607 q 210 276 175 365 q 308 138 244 186 q 460 89 372 89 m 460 -242 q 408 -222 428 -242 q 388 -171 388 -201 q 408 -120 388 -140 q 460 -100 428 -100 q 512 -120 492 -100 q 532 -171 532 -140 q 512 -222 532 -201 q 460 -242 492 -242 m 419 1246 l 500 1246 l 656 1047 l 553 1047 l 460 1169 l 367 1047 l 264 1047 l 419 1246 z "},"Ồ":{"ha":918,"x_min":47,"x_max":871,"o":"m 460 -14 q 240 47 333 -14 q 97 220 147 107 q 47 486 47 333 q 97 752 47 639 q 240 926 147 865 q 460 986 333 986 q 678 926 586 986 q 821 752 771 865 q 871 486 871 639 q 821 220 871 333 q 678 47 771 107 q 460 -14 586 -14 m 460 89 q 610 138 546 89 q 709 276 675 186 q 743 486 743 365 q 709 697 743 607 q 610 835 675 786 q 460 883 546 883 q 308 835 372 883 q 210 697 244 786 q 175 486 175 607 q 210 276 175 365 q 308 138 244 186 q 460 89 372 89 m 543 1351 l 642 1351 l 707 1208 l 631 1208 l 543 1351 m 419 1246 l 500 1246 l 656 1047 l 553 1047 l 460 1169 l 367 1047 l 264 1047 l 419 1246 z "},"Ổ":{"ha":918,"x_min":47,"x_max":871,"o":"m 460 -14 q 240 47 333 -14 q 97 220 147 107 q 47 486 47 333 q 97 752 47 639 q 240 926 147 865 q 460 986 333 986 q 678 926 586 986 q 821 752 771 865 q 871 486 871 639 q 821 220 871 333 q 678 47 771 107 q 460 -14 586 -14 m 460 89 q 610 138 546 89 q 709 276 675 186 q 743 486 743 365 q 709 697 743 607 q 610 835 675 786 q 460 883 546 883 q 308 835 372 883 q 210 697 244 786 q 175 486 175 607 q 210 276 175 365 q 308 138 244 186 q 460 89 372 89 m 625 1199 q 638 1247 625 1229 q 674 1283 650 1264 q 701 1307 692 1296 q 710 1335 710 1318 q 698 1360 710 1350 q 665 1369 686 1369 q 626 1359 644 1369 q 594 1328 607 1349 l 553 1365 q 601 1410 569 1393 q 672 1428 633 1428 q 748 1404 719 1428 q 776 1338 776 1381 q 765 1295 776 1311 q 731 1258 754 1279 q 701 1230 711 1243 q 692 1199 692 1217 l 625 1199 m 419 1246 l 500 1246 l 656 1047 l 553 1047 l 460 1169 l 367 1047 l 264 1047 l 419 1246 z "},"Ỗ":{"ha":918,"x_min":47,"x_max":871,"o":"m 460 -14 q 240 47 333 -14 q 97 220 147 107 q 47 486 47 333 q 97 752 47 639 q 240 926 147 865 q 460 986 333 986 q 678 926 586 986 q 821 752 771 865 q 871 486 871 639 q 821 220 871 333 q 678 47 771 107 q 460 -14 586 -14 m 460 89 q 610 138 546 89 q 709 276 675 186 q 743 486 743 365 q 709 697 743 607 q 610 835 675 786 q 460 883 546 883 q 308 835 372 883 q 210 697 244 786 q 175 486 175 607 q 210 276 175 365 q 308 138 244 186 q 460 89 372 89 m 531 1289 q 491 1298 510 1289 q 447 1324 472 1307 q 410 1345 424 1339 q 382 1351 397 1351 q 331 1296 346 1351 l 274 1296 q 313 1383 283 1351 q 388 1415 342 1415 q 428 1407 408 1415 q 475 1383 449 1399 q 515 1363 500 1369 q 543 1357 529 1357 q 594 1414 582 1357 l 650 1414 q 609 1322 640 1356 q 531 1289 578 1289 m 419 1246 l 500 1246 l 656 1047 l 553 1047 l 460 1169 l 367 1047 l 264 1047 l 419 1246 z "},"Ö":{"ha":918,"x_min":47,"x_max":871,"o":"m 460 -14 q 240 47 333 -14 q 97 220 147 107 q 47 486 47 333 q 97 752 47 639 q 240 926 147 865 q 460 986 333 986 q 678 926 586 986 q 821 752 771 865 q 871 486 871 639 q 821 220 871 333 q 678 47 771 107 q 460 -14 586 -14 m 460 89 q 610 138 546 89 q 709 276 675 186 q 743 486 743 365 q 709 697 743 607 q 610 835 675 786 q 460 883 546 883 q 308 835 372 883 q 210 697 244 786 q 175 486 175 607 q 210 276 175 365 q 308 138 244 186 q 460 89 372 89 m 321 1047 q 269 1067 290 1047 q 249 1118 249 1088 q 269 1169 249 1149 q 321 1189 289 1189 q 372 1169 351 1189 q 393 1118 393 1149 q 372 1067 393 1088 q 321 1047 351 1047 m 599 1047 q 547 1067 568 1047 q 526 1118 526 1088 q 547 1169 526 1149 q 599 1189 568 1189 q 651 1169 631 1189 q 671 1118 671 1149 q 650 1067 671 1088 q 599 1047 629 1047 z "},"Ọ":{"ha":918,"x_min":47,"x_max":871,"o":"m 460 -14 q 240 47 333 -14 q 97 220 147 107 q 47 486 47 333 q 97 752 47 639 q 240 926 147 865 q 460 986 333 986 q 678 926 586 986 q 821 752 771 865 q 871 486 871 639 q 821 220 871 333 q 678 47 771 107 q 460 -14 586 -14 m 460 89 q 610 138 546 89 q 709 276 675 186 q 743 486 743 365 q 709 697 743 607 q 610 835 675 786 q 460 883 546 883 q 308 835 372 883 q 210 697 244 786 q 175 486 175 607 q 210 276 175 365 q 308 138 244 186 q 460 89 372 89 m 460 -242 q 408 -222 428 -242 q 388 -171 388 -201 q 408 -120 388 -140 q 460 -100 428 -100 q 512 -120 492 -100 q 532 -171 532 -140 q 512 -222 532 -201 q 460 -242 492 -242 z "},"Ò":{"ha":918,"x_min":47,"x_max":871,"o":"m 460 -14 q 240 47 333 -14 q 97 220 147 107 q 47 486 47 333 q 97 752 47 639 q 240 926 147 865 q 460 986 333 986 q 678 926 586 986 q 821 752 771 865 q 871 486 871 639 q 821 220 871 333 q 678 47 771 107 q 460 -14 586 -14 m 460 89 q 610 138 546 89 q 709 276 675 186 q 743 486 743 365 q 709 697 743 607 q 610 835 675 786 q 460 883 546 883 q 308 835 372 883 q 210 697 244 786 q 175 486 175 607 q 210 276 175 365 q 308 138 244 186 q 460 89 372 89 m 278 1250 l 399 1250 l 507 1047 l 413 1047 l 278 1250 z "},"Ỏ":{"ha":918,"x_min":47,"x_max":871,"o":"m 460 -14 q 240 47 333 -14 q 97 220 147 107 q 47 486 47 333 q 97 752 47 639 q 240 926 147 865 q 460 986 333 986 q 678 926 586 986 q 821 752 771 865 q 871 486 871 639 q 821 220 871 333 q 678 47 771 107 q 460 -14 586 -14 m 460 89 q 610 138 546 89 q 709 276 675 186 q 743 486 743 365 q 709 697 743 607 q 610 835 675 786 q 460 883 546 883 q 308 835 372 883 q 210 697 244 786 q 175 486 175 607 q 210 276 175 365 q 308 138 244 186 q 460 89 372 89 m 413 1047 q 427 1103 413 1082 q 468 1149 442 1125 q 502 1187 492 1172 q 513 1224 513 1201 q 456 1268 513 1268 q 368 1206 401 1268 l 315 1253 q 375 1316 336 1293 q 465 1339 414 1339 q 565 1310 528 1339 q 601 1228 601 1282 q 587 1171 601 1194 q 544 1118 572 1147 q 512 1081 522 1096 q 501 1047 501 1065 l 413 1047 z "},"Ơ":{"ha":968,"x_min":47,"x_max":1006,"o":"m 1006 972 l 1006 921 q 963 769 1006 836 q 850 667 921 703 q 871 486 871 586 q 821 220 871 333 q 678 47 771 107 q 460 -14 586 -14 q 240 47 333 -14 q 97 220 147 107 q 47 486 47 333 q 97 752 47 639 q 240 926 147 865 q 460 986 333 986 q 684 922 590 986 q 826 739 778 858 q 883 816 865 774 q 900 921 900 858 l 900 972 l 1006 972 m 460 89 q 610 138 546 89 q 709 276 675 186 q 743 486 743 365 q 709 697 743 607 q 610 835 675 786 q 460 883 546 883 q 308 835 372 883 q 210 697 244 786 q 175 486 175 607 q 210 276 175 365 q 308 138 244 186 q 460 89 372 89 z "},"Ớ":{"ha":968,"x_min":47,"x_max":1006,"o":"m 1006 972 l 1006 921 q 963 769 1006 836 q 850 667 921 703 q 871 486 871 586 q 821 220 871 333 q 678 47 771 107 q 460 -14 586 -14 q 240 47 333 -14 q 97 220 147 107 q 47 486 47 333 q 97 752 47 639 q 240 926 147 865 q 460 986 333 986 q 684 922 590 986 q 826 739 778 858 q 883 816 865 774 q 900 921 900 858 l 900 972 l 1006 972 m 460 89 q 610 138 546 89 q 709 276 675 186 q 743 486 743 365 q 709 697 743 607 q 610 835 675 786 q 460 883 546 883 q 308 835 372 883 q 210 697 244 786 q 175 486 175 607 q 210 276 175 365 q 308 138 244 186 q 460 89 372 89 m 526 1250 l 647 1250 l 513 1047 l 418 1047 l 526 1250 z "},"Ợ":{"ha":968,"x_min":47,"x_max":1006,"o":"m 1006 972 l 1006 921 q 963 769 1006 836 q 850 667 921 703 q 871 486 871 586 q 821 220 871 333 q 678 47 771 107 q 460 -14 586 -14 q 240 47 333 -14 q 97 220 147 107 q 47 486 47 333 q 97 752 47 639 q 240 926 147 865 q 460 986 333 986 q 684 922 590 986 q 826 739 778 858 q 883 816 865 774 q 900 921 900 858 l 900 972 l 1006 972 m 460 89 q 610 138 546 89 q 709 276 675 186 q 743 486 743 365 q 709 697 743 607 q 610 835 675 786 q 460 883 546 883 q 308 835 372 883 q 210 697 244 786 q 175 486 175 607 q 210 276 175 365 q 308 138 244 186 q 460 89 372 89 m 460 -242 q 408 -222 428 -242 q 388 -171 388 -201 q 408 -120 388 -140 q 460 -100 428 -100 q 512 -120 492 -100 q 532 -171 532 -140 q 512 -222 532 -201 q 460 -242 492 -242 z "},"Ờ":{"ha":968,"x_min":47,"x_max":1006,"o":"m 1006 972 l 1006 921 q 963 769 1006 836 q 850 667 921 703 q 871 486 871 586 q 821 220 871 333 q 678 47 771 107 q 460 -14 586 -14 q 240 47 333 -14 q 97 220 147 107 q 47 486 47 333 q 97 752 47 639 q 240 926 147 865 q 460 986 333 986 q 684 922 590 986 q 826 739 778 858 q 883 816 865 774 q 900 921 900 858 l 900 972 l 1006 972 m 460 89 q 610 138 546 89 q 709 276 675 186 q 743 486 743 365 q 709 697 743 607 q 610 835 675 786 q 460 883 546 883 q 308 835 372 883 q 210 697 244 786 q 175 486 175 607 q 210 276 175 365 q 308 138 244 186 q 460 89 372 89 m 278 1250 l 399 1250 l 507 1047 l 413 1047 l 278 1250 z "},"Ở":{"ha":968,"x_min":47,"x_max":1006,"o":"m 1006 972 l 1006 921 q 963 769 1006 836 q 850 667 921 703 q 871 486 871 586 q 821 220 871 333 q 678 47 771 107 q 460 -14 586 -14 q 240 47 333 -14 q 97 220 147 107 q 47 486 47 333 q 97 752 47 639 q 240 926 147 865 q 460 986 333 986 q 684 922 590 986 q 826 739 778 858 q 883 816 865 774 q 900 921 900 858 l 900 972 l 1006 972 m 460 89 q 610 138 546 89 q 709 276 675 186 q 743 486 743 365 q 709 697 743 607 q 610 835 675 786 q 460 883 546 883 q 308 835 372 883 q 210 697 244 786 q 175 486 175 607 q 210 276 175 365 q 308 138 244 186 q 460 89 372 89 m 413 1047 q 427 1103 413 1082 q 468 1149 442 1125 q 502 1187 492 1172 q 513 1224 513 1201 q 456 1268 513 1268 q 368 1206 401 1268 l 315 1253 q 375 1316 336 1293 q 465 1339 414 1339 q 565 1310 528 1339 q 601 1228 601 1282 q 587 1171 601 1194 q 544 1118 572 1147 q 512 1081 522 1096 q 501 1047 501 1065 l 413 1047 z "},"Ỡ":{"ha":968,"x_min":47,"x_max":1006,"o":"m 1006 972 l 1006 921 q 963 769 1006 836 q 850 667 921 703 q 871 486 871 586 q 821 220 871 333 q 678 47 771 107 q 460 -14 586 -14 q 240 47 333 -14 q 97 220 147 107 q 47 486 47 333 q 97 752 47 639 q 240 926 147 865 q 460 986 333 986 q 684 922 590 986 q 826 739 778 858 q 883 816 865 774 q 900 921 900 858 l 900 972 l 1006 972 m 460 89 q 610 138 546 89 q 709 276 675 186 q 743 486 743 365 q 709 697 743 607 q 610 835 675 786 q 460 883 546 883 q 308 835 372 883 q 210 697 244 786 q 175 486 175 607 q 210 276 175 365 q 308 138 244 186 q 460 89 372 89 m 257 1047 q 288 1149 257 1110 q 369 1188 319 1188 q 415 1179 394 1188 q 472 1150 435 1171 q 538 1122 515 1122 q 567 1139 557 1122 q 581 1193 578 1156 l 653 1193 q 619 1087 651 1126 q 536 1047 588 1047 q 486 1058 510 1047 q 429 1088 463 1068 q 372 1113 389 1113 q 342 1095 354 1113 q 329 1047 331 1078 l 257 1047 z "},"Ő":{"ha":918,"x_min":47,"x_max":871,"o":"m 460 -14 q 240 47 333 -14 q 97 220 147 107 q 47 486 47 333 q 97 752 47 639 q 240 926 147 865 q 460 986 333 986 q 678 926 586 986 q 821 752 771 865 q 871 486 871 639 q 821 220 871 333 q 678 47 771 107 q 460 -14 586 -14 m 460 89 q 610 138 546 89 q 709 276 675 186 q 743 486 743 365 q 709 697 743 607 q 610 835 675 786 q 460 883 546 883 q 308 835 372 883 q 210 697 244 786 q 175 486 175 607 q 210 276 175 365 q 308 138 244 186 q 460 89 372 89 m 407 1250 l 526 1250 l 393 1047 l 297 1047 l 407 1250 m 588 1250 l 707 1250 l 574 1047 l 478 1047 l 588 1250 z "},"Ō":{"ha":918,"x_min":47,"x_max":871,"o":"m 460 -14 q 240 47 333 -14 q 97 220 147 107 q 47 486 47 333 q 97 752 47 639 q 240 926 147 865 q 460 986 333 986 q 678 926 586 986 q 821 752 771 865 q 871 486 871 639 q 821 220 871 333 q 678 47 771 107 q 460 -14 586 -14 m 460 89 q 610 138 546 89 q 709 276 675 186 q 743 486 743 365 q 709 697 743 607 q 610 835 675 786 q 460 883 546 883 q 308 835 372 883 q 210 697 244 786 q 175 486 175 607 q 210 276 175 365 q 308 138 244 186 q 460 89 372 89 m 243 1143 l 676 1143 l 676 1061 l 243 1061 l 243 1143 z "},"Ø":{"ha":918,"x_min":47,"x_max":871,"o":"m 725 889 q 833 722 796 825 q 871 486 871 618 q 821 220 871 333 q 678 47 771 107 q 460 -14 586 -14 q 268 31 353 -14 l 219 -60 l 118 -60 l 193 83 q 85 251 122 149 q 47 486 47 354 q 97 752 47 639 q 240 926 147 865 q 460 986 333 986 q 647 943 564 986 l 681 1007 l 788 1007 l 725 889 m 175 486 q 253 194 175 303 l 596 846 q 460 883 538 883 q 308 835 372 883 q 210 697 244 786 q 175 486 175 607 m 460 89 q 610 138 546 89 q 709 276 675 186 q 743 486 743 365 q 665 778 743 672 l 319 129 q 460 89 381 89 z "},"Ǿ":{"ha":918,"x_min":47,"x_max":871,"o":"m 725 889 q 833 722 796 825 q 871 486 871 618 q 821 220 871 333 q 678 47 771 107 q 460 -14 586 -14 q 268 31 353 -14 l 219 -60 l 118 -60 l 193 83 q 85 251 122 149 q 47 486 47 354 q 97 752 47 639 q 240 926 147 865 q 460 986 333 986 q 647 943 564 986 l 681 1007 l 788 1007 l 725 889 m 175 486 q 253 194 175 303 l 596 846 q 460 883 538 883 q 308 835 372 883 q 210 697 244 786 q 175 486 175 607 m 460 89 q 610 138 546 89 q 709 276 675 186 q 743 486 743 365 q 665 778 743 672 l 319 129 q 460 89 381 89 m 526 1250 l 647 1250 l 513 1047 l 418 1047 l 526 1250 z "},"Õ":{"ha":918,"x_min":47,"x_max":871,"o":"m 460 -14 q 240 47 333 -14 q 97 220 147 107 q 47 486 47 333 q 97 752 47 639 q 240 926 147 865 q 460 986 333 986 q 678 926 586 986 q 821 752 771 865 q 871 486 871 639 q 821 220 871 333 q 678 47 771 107 q 460 -14 586 -14 m 460 89 q 610 138 546 89 q 709 276 675 186 q 743 486 743 365 q 709 697 743 607 q 610 835 675 786 q 460 883 546 883 q 308 835 372 883 q 210 697 244 786 q 175 486 175 607 q 210 276 175 365 q 308 138 244 186 q 460 89 372 89 m 257 1047 q 288 1149 257 1110 q 369 1188 319 1188 q 415 1179 394 1188 q 472 1150 435 1171 q 538 1122 515 1122 q 567 1139 557 1122 q 581 1193 578 1156 l 653 1193 q 619 1087 651 1126 q 536 1047 588 1047 q 486 1058 510 1047 q 429 1088 463 1068 q 372 1113 389 1113 q 342 1095 354 1113 q 329 1047 331 1078 l 257 1047 z "},"Œ":{"ha":1235,"x_min":47,"x_max":1164,"o":"m 771 868 l 771 561 l 1117 561 l 1117 463 l 771 463 l 771 104 l 1164 104 l 1164 0 l 643 0 l 643 89 q 404 -14 549 -14 q 139 115 231 -14 q 47 486 47 243 q 139 858 47 729 q 404 986 231 986 q 537 960 476 986 q 643 885 597 935 l 643 972 l 1164 972 l 1164 868 l 771 868 m 408 89 q 583 190 522 89 q 643 486 643 292 q 583 782 643 681 q 408 883 522 883 q 233 785 290 883 q 175 486 175 686 q 233 188 175 286 q 408 89 290 89 z "},"P":{"ha":796,"x_min":113,"x_max":725,"o":"m 113 972 l 399 972 q 642 897 560 972 q 725 678 725 822 q 639 444 725 525 q 392 363 553 363 l 240 363 l 240 0 l 113 0 l 113 972 m 408 468 q 552 521 501 468 q 603 671 603 574 q 550 817 603 767 q 397 867 497 867 l 240 867 l 240 468 l 408 468 z "},"Þ":{"ha":788,"x_min":113,"x_max":717,"o":"m 113 972 l 240 972 l 240 838 l 390 838 q 633 763 550 838 q 717 546 717 689 q 631 315 717 396 q 383 235 544 235 l 240 235 l 240 0 l 113 0 l 113 972 m 400 340 q 544 392 493 340 q 594 540 594 444 q 542 684 594 635 q 389 733 489 733 l 240 733 l 240 340 l 400 340 z "},"Q":{"ha":918,"x_min":47,"x_max":871,"o":"m 871 486 q 790 163 871 290 q 567 -1 710 35 q 846 -64 674 -43 l 825 -154 q 598 -102 711 -142 q 399 -10 485 -62 q 141 142 235 11 q 47 486 47 274 q 97 752 47 639 q 240 926 147 865 q 460 986 333 986 q 678 926 586 986 q 821 752 771 865 q 871 486 871 639 m 175 486 q 210 276 175 365 q 308 138 244 186 q 460 89 372 89 q 610 138 546 89 q 709 276 675 186 q 743 486 743 365 q 709 697 743 607 q 610 835 675 786 q 460 883 546 883 q 308 835 372 883 q 210 697 244 786 q 175 486 175 607 z "},"R":{"ha":807,"x_min":113,"x_max":765,"o":"m 113 972 l 411 972 q 647 908 569 972 q 725 713 725 843 q 676 548 725 615 q 542 457 628 481 l 542 454 q 589 413 571 435 q 619 361 607 392 l 765 0 l 628 0 l 506 314 q 449 396 482 375 q 344 417 415 417 l 240 417 l 240 0 l 113 0 l 113 972 m 404 521 q 603 704 603 521 q 553 826 603 786 q 400 867 503 867 l 240 867 l 240 521 l 404 521 z "},"Ŕ":{"ha":807,"x_min":113,"x_max":765,"o":"m 113 972 l 411 972 q 647 908 569 972 q 725 713 725 843 q 676 548 725 615 q 542 457 628 481 l 542 454 q 589 413 571 435 q 619 361 607 392 l 765 0 l 628 0 l 506 314 q 449 396 482 375 q 344 417 415 417 l 240 417 l 240 0 l 113 0 l 113 972 m 404 521 q 603 704 603 521 q 553 826 603 786 q 400 867 503 867 l 240 867 l 240 521 l 404 521 m 471 1250 l 592 1250 l 457 1047 l 363 1047 l 471 1250 z "},"Ř":{"ha":807,"x_min":113,"x_max":765,"o":"m 113 972 l 411 972 q 647 908 569 972 q 725 713 725 843 q 676 548 725 615 q 542 457 628 481 l 542 454 q 589 413 571 435 q 619 361 607 392 l 765 0 l 628 0 l 506 314 q 449 396 482 375 q 344 417 415 417 l 240 417 l 240 0 l 113 0 l 113 972 m 404 521 q 603 704 603 521 q 553 826 603 786 q 400 867 503 867 l 240 867 l 240 521 l 404 521 m 208 1246 l 311 1246 l 404 1124 l 497 1246 l 600 1246 l 444 1047 l 364 1047 l 208 1246 z "},"Ŗ":{"ha":807,"x_min":113,"x_max":765,"o":"m 113 972 l 411 972 q 647 908 569 972 q 725 713 725 843 q 676 548 725 615 q 542 457 628 481 l 542 454 q 589 413 571 435 q 619 361 607 392 l 765 0 l 628 0 l 506 314 q 449 396 482 375 q 344 417 415 417 l 240 417 l 240 0 l 113 0 l 113 972 m 404 521 q 603 704 603 521 q 553 826 603 786 q 400 867 503 867 l 240 867 l 240 521 l 404 521 m 404 -100 q 467 -126 444 -100 q 489 -192 489 -151 q 465 -290 489 -237 q 401 -382 440 -343 l 351 -346 q 374 -312 354 -342 q 404 -250 394 -282 l 401 -250 q 349 -230 369 -250 q 328 -176 328 -210 q 349 -122 328 -143 q 404 -100 369 -100 z "},"Ṛ":{"ha":807,"x_min":113,"x_max":765,"o":"m 113 972 l 411 972 q 647 908 569 972 q 725 713 725 843 q 676 548 725 615 q 542 457 628 481 l 542 454 q 589 413 571 435 q 619 361 607 392 l 765 0 l 628 0 l 506 314 q 449 396 482 375 q 344 417 415 417 l 240 417 l 240 0 l 113 0 l 113 972 m 404 521 q 603 704 603 521 q 553 826 603 786 q 400 867 503 867 l 240 867 l 240 521 l 404 521 m 404 -242 q 352 -222 372 -242 q 332 -171 332 -201 q 352 -120 332 -140 q 404 -100 372 -100 q 456 -120 436 -100 q 476 -171 476 -140 q 456 -222 476 -201 q 404 -242 436 -242 z "},"Ṝ":{"ha":807,"x_min":113,"x_max":765,"o":"m 113 972 l 411 972 q 647 908 569 972 q 725 713 725 843 q 676 548 725 615 q 542 457 628 481 l 542 454 q 589 413 571 435 q 619 361 607 392 l 765 0 l 628 0 l 506 314 q 449 396 482 375 q 344 417 415 417 l 240 417 l 240 0 l 113 0 l 113 972 m 404 521 q 603 704 603 521 q 553 826 603 786 q 400 867 503 867 l 240 867 l 240 521 l 404 521 m 404 -242 q 352 -222 372 -242 q 332 -171 332 -201 q 352 -120 332 -140 q 404 -100 372 -100 q 456 -120 436 -100 q 476 -171 476 -140 q 456 -222 476 -201 q 404 -242 436 -242 m 188 1143 l 621 1143 l 621 1061 l 188 1061 l 188 1143 z "},"Ṟ":{"ha":807,"x_min":113,"x_max":765,"o":"m 113 972 l 411 972 q 647 908 569 972 q 725 713 725 843 q 676 548 725 615 q 542 457 628 481 l 542 454 q 589 413 571 435 q 619 361 607 392 l 765 0 l 628 0 l 506 314 q 449 396 482 375 q 344 417 415 417 l 240 417 l 240 0 l 113 0 l 113 972 m 404 521 q 603 704 603 521 q 553 826 603 786 q 400 867 503 867 l 240 867 l 240 521 l 404 521 m 188 -89 l 621 -89 l 621 -171 l 188 -171 l 188 -89 z "},"S":{"ha":735,"x_min":53,"x_max":679,"o":"m 363 -14 q 185 26 268 -14 q 53 138 103 67 l 131 215 q 239 126 174 160 q 368 92 304 92 q 501 133 450 92 q 551 243 551 175 q 534 321 551 288 q 474 385 517 354 q 354 454 432 417 q 145 591 206 526 q 85 742 85 656 q 165 919 85 853 q 379 986 246 986 q 549 946 472 986 q 661 838 626 906 l 578 776 q 492 853 544 825 q 381 881 439 881 q 258 844 303 881 q 213 744 213 807 q 229 681 213 707 q 291 626 246 654 q 433 549 336 597 q 622 415 565 483 q 679 253 679 346 q 640 113 679 174 q 528 19 600 53 q 363 -14 457 -14 z "},"Ś":{"ha":735,"x_min":53,"x_max":679,"o":"m 363 -14 q 185 26 268 -14 q 53 138 103 67 l 131 215 q 239 126 174 160 q 368 92 304 92 q 501 133 450 92 q 551 243 551 175 q 534 321 551 288 q 474 385 517 354 q 354 454 432 417 q 145 591 206 526 q 85 742 85 656 q 165 919 85 853 q 379 986 246 986 q 549 946 472 986 q 661 838 626 906 l 578 776 q 492 853 544 825 q 381 881 439 881 q 258 844 303 881 q 213 744 213 807 q 229 681 213 707 q 291 626 246 654 q 433 549 336 597 q 622 415 565 483 q 679 253 679 346 q 640 113 679 174 q 528 19 600 53 q 363 -14 457 -14 m 435 1250 l 556 1250 l 421 1047 l 326 1047 l 435 1250 z "},"Š":{"ha":735,"x_min":53,"x_max":679,"o":"m 363 -14 q 185 26 268 -14 q 53 138 103 67 l 131 215 q 239 126 174 160 q 368 92 304 92 q 501 133 450 92 q 551 243 551 175 q 534 321 551 288 q 474 385 517 354 q 354 454 432 417 q 145 591 206 526 q 85 742 85 656 q 165 919 85 853 q 379 986 246 986 q 549 946 472 986 q 661 838 626 906 l 578 776 q 492 853 544 825 q 381 881 439 881 q 258 844 303 881 q 213 744 213 807 q 229 681 213 707 q 291 626 246 654 q 433 549 336 597 q 622 415 565 483 q 679 253 679 346 q 640 113 679 174 q 528 19 600 53 q 363 -14 457 -14 m 172 1246 l 275 1246 l 368 1124 l 461 1246 l 564 1246 l 408 1047 l 328 1047 l 172 1246 z "},"Ş":{"ha":735,"x_min":53,"x_max":679,"o":"m 679 253 q 604 69 679 140 q 403 -12 529 -1 l 364 -86 q 456 -112 421 -86 q 490 -185 490 -137 q 452 -274 490 -240 q 347 -307 414 -307 q 289 -302 319 -307 q 242 -289 258 -297 l 253 -235 q 331 -244 285 -244 q 385 -230 364 -244 q 407 -187 407 -215 q 379 -149 407 -162 q 300 -136 351 -135 l 272 -106 l 325 -12 q 169 35 240 -4 q 53 138 97 74 l 131 215 q 239 126 174 160 q 368 92 304 92 q 501 133 450 92 q 551 243 551 175 q 534 321 551 288 q 474 385 517 354 q 354 454 432 417 q 145 591 206 526 q 85 742 85 656 q 165 919 85 853 q 379 986 246 986 q 549 946 472 986 q 661 838 626 906 l 578 776 q 492 853 544 825 q 381 881 439 881 q 258 844 303 881 q 213 744 213 807 q 229 681 213 707 q 291 626 246 654 q 433 549 336 597 q 622 415 565 483 q 679 253 679 346 z "},"Ŝ":{"ha":735,"x_min":53,"x_max":679,"o":"m 363 -14 q 185 26 268 -14 q 53 138 103 67 l 131 215 q 239 126 174 160 q 368 92 304 92 q 501 133 450 92 q 551 243 551 175 q 534 321 551 288 q 474 385 517 354 q 354 454 432 417 q 145 591 206 526 q 85 742 85 656 q 165 919 85 853 q 379 986 246 986 q 549 946 472 986 q 661 838 626 906 l 578 776 q 492 853 544 825 q 381 881 439 881 q 258 844 303 881 q 213 744 213 807 q 229 681 213 707 q 291 626 246 654 q 433 549 336 597 q 622 415 565 483 q 679 253 679 346 q 640 113 679 174 q 528 19 600 53 q 363 -14 457 -14 m 328 1246 l 408 1246 l 564 1047 l 461 1047 l 368 1169 l 275 1047 l 172 1047 l 328 1246 z "},"Ș":{"ha":735,"x_min":53,"x_max":679,"o":"m 363 -14 q 185 26 268 -14 q 53 138 103 67 l 131 215 q 239 126 174 160 q 368 92 304 92 q 501 133 450 92 q 551 243 551 175 q 534 321 551 288 q 474 385 517 354 q 354 454 432 417 q 145 591 206 526 q 85 742 85 656 q 165 919 85 853 q 379 986 246 986 q 549 946 472 986 q 661 838 626 906 l 578 776 q 492 853 544 825 q 381 881 439 881 q 258 844 303 881 q 213 744 213 807 q 229 681 213 707 q 291 626 246 654 q 433 549 336 597 q 622 415 565 483 q 679 253 679 346 q 640 113 679 174 q 528 19 600 53 q 363 -14 457 -14 m 368 -100 q 431 -126 408 -100 q 453 -192 453 -151 q 428 -290 453 -237 q 365 -382 404 -343 l 315 -346 q 338 -312 318 -342 q 368 -250 358 -282 l 365 -250 q 313 -230 333 -250 q 292 -176 292 -210 q 313 -122 292 -143 q 368 -100 333 -100 z "},"Ṡ":{"ha":735,"x_min":53,"x_max":679,"o":"m 363 -14 q 185 26 268 -14 q 53 138 103 67 l 131 215 q 239 126 174 160 q 368 92 304 92 q 501 133 450 92 q 551 243 551 175 q 534 321 551 288 q 474 385 517 354 q 354 454 432 417 q 145 591 206 526 q 85 742 85 656 q 165 919 85 853 q 379 986 246 986 q 549 946 472 986 q 661 838 626 906 l 578 776 q 492 853 544 825 q 381 881 439 881 q 258 844 303 881 q 213 744 213 807 q 229 681 213 707 q 291 626 246 654 q 433 549 336 597 q 622 415 565 483 q 679 253 679 346 q 640 113 679 174 q 528 19 600 53 q 363 -14 457 -14 m 368 1047 q 317 1067 338 1047 q 296 1118 296 1088 q 316 1169 296 1149 q 368 1189 336 1189 q 420 1169 400 1189 q 440 1118 440 1149 q 419 1067 440 1088 q 368 1047 399 1047 z "},"Ṣ":{"ha":735,"x_min":53,"x_max":679,"o":"m 363 -14 q 185 26 268 -14 q 53 138 103 67 l 131 215 q 239 126 174 160 q 368 92 304 92 q 501 133 450 92 q 551 243 551 175 q 534 321 551 288 q 474 385 517 354 q 354 454 432 417 q 145 591 206 526 q 85 742 85 656 q 165 919 85 853 q 379 986 246 986 q 549 946 472 986 q 661 838 626 906 l 578 776 q 492 853 544 825 q 381 881 439 881 q 258 844 303 881 q 213 744 213 807 q 229 681 213 707 q 291 626 246 654 q 433 549 336 597 q 622 415 565 483 q 679 253 679 346 q 640 113 679 174 q 528 19 600 53 q 363 -14 457 -14 m 368 -242 q 316 -222 336 -242 q 296 -171 296 -201 q 316 -120 296 -140 q 368 -100 336 -100 q 420 -120 400 -100 q 440 -171 440 -140 q 420 -222 440 -201 q 368 -242 400 -242 z "},"ẞ":{"ha":865,"x_min":111,"x_max":810,"o":"m 538 -14 q 313 106 374 -14 l 386 157 q 449 99 413 117 q 536 81 485 81 q 646 128 604 81 q 688 253 688 176 q 660 355 688 314 q 572 426 633 396 q 404 481 511 456 l 404 542 l 567 867 l 239 867 l 239 0 l 111 0 l 111 972 l 700 972 l 700 886 l 525 547 q 740 438 669 511 q 810 253 810 365 q 735 60 810 133 q 538 -14 660 -14 z "},"Ə":{"ha":931,"x_min":47,"x_max":883,"o":"m 446 986 q 681 926 582 986 q 831 753 779 867 q 883 482 883 639 q 833 216 883 328 q 687 45 782 104 q 461 -14 592 -14 q 156 114 264 -14 q 47 474 47 242 l 47 535 l 754 535 q 663 792 743 700 q 449 883 582 883 q 290 844 361 883 q 171 732 218 806 l 93 810 q 240 940 149 894 q 446 986 331 986 m 460 89 q 667 181 589 89 q 754 438 744 274 l 178 438 l 178 425 q 254 180 178 271 q 460 89 331 89 z "},"T":{"ha":775,"x_min":24,"x_max":750,"o":"m 324 872 l 24 872 l 24 972 l 750 972 l 750 872 l 451 872 l 451 0 l 324 0 l 324 872 z "},"Ŧ":{"ha":775,"x_min":24,"x_max":750,"o":"m 451 872 l 451 511 l 679 511 l 679 425 l 451 425 l 451 0 l 324 0 l 324 425 l 96 425 l 96 511 l 324 511 l 324 872 l 24 872 l 24 972 l 750 972 l 750 872 l 451 872 z "},"Ť":{"ha":775,"x_min":24,"x_max":750,"o":"m 324 872 l 24 872 l 24 972 l 750 972 l 750 872 l 451 872 l 451 0 l 324 0 l 324 872 m 192 1246 l 294 1246 l 388 1124 l 481 1246 l 583 1246 l 428 1047 l 347 1047 l 192 1246 z "},"Ţ":{"ha":775,"x_min":24,"x_max":750,"o":"m 428 0 l 383 -86 q 475 -112 440 -86 q 510 -185 510 -137 q 472 -274 510 -240 q 367 -307 433 -307 q 308 -302 339 -307 q 261 -289 278 -297 l 272 -235 q 350 -244 304 -244 q 405 -230 383 -244 q 426 -187 426 -215 q 399 -149 426 -162 q 319 -136 371 -135 l 292 -106 l 351 0 l 324 0 l 324 872 l 24 872 l 24 972 l 750 972 l 750 872 l 451 872 l 451 0 l 428 0 z "},"Ț":{"ha":775,"x_min":24,"x_max":750,"o":"m 324 872 l 24 872 l 24 972 l 750 972 l 750 872 l 451 872 l 451 0 l 324 0 l 324 872 m 388 -100 q 450 -126 428 -100 q 472 -192 472 -151 q 448 -290 472 -237 q 385 -382 424 -343 l 335 -346 q 358 -312 338 -342 q 388 -250 378 -282 l 385 -250 q 332 -230 353 -250 q 311 -176 311 -210 q 332 -122 311 -143 q 388 -100 353 -100 z "},"Ṭ":{"ha":775,"x_min":24,"x_max":750,"o":"m 324 872 l 24 872 l 24 972 l 750 972 l 750 872 l 451 872 l 451 0 l 324 0 l 324 872 m 388 -242 q 335 -222 356 -242 q 315 -171 315 -201 q 335 -120 315 -140 q 388 -100 356 -100 q 440 -120 419 -100 q 460 -171 460 -140 q 440 -222 460 -201 q 388 -242 419 -242 z "},"Ṯ":{"ha":775,"x_min":24,"x_max":750,"o":"m 324 872 l 24 872 l 24 972 l 750 972 l 750 872 l 451 872 l 451 0 l 324 0 l 324 872 m 171 -89 l 604 -89 l 604 -171 l 171 -171 l 171 -89 z "},"U":{"ha":913,"x_min":107,"x_max":806,"o":"m 457 -14 q 195 85 283 -14 q 107 381 107 185 l 107 972 l 236 972 l 236 383 q 457 92 236 92 q 678 383 678 92 l 678 972 l 806 972 l 806 381 q 717 86 806 186 q 457 -14 629 -14 z "},"Ú":{"ha":913,"x_min":107,"x_max":806,"o":"m 457 -14 q 195 85 283 -14 q 107 381 107 185 l 107 972 l 236 972 l 236 383 q 457 92 236 92 q 678 383 678 92 l 678 972 l 806 972 l 806 381 q 717 86 806 186 q 457 -14 629 -14 m 524 1250 l 644 1250 l 510 1047 l 415 1047 l 524 1250 z "},"Ŭ":{"ha":913,"x_min":107,"x_max":806,"o":"m 457 -14 q 195 85 283 -14 q 107 381 107 185 l 107 972 l 236 972 l 236 383 q 457 92 236 92 q 678 383 678 92 l 678 972 l 806 972 l 806 381 q 717 86 806 186 q 457 -14 629 -14 m 457 1047 q 313 1094 367 1047 q 256 1232 260 1140 l 331 1232 q 365 1155 333 1183 q 457 1126 397 1126 q 546 1153 513 1126 q 583 1232 579 1179 l 658 1232 q 605 1097 656 1146 q 457 1047 554 1047 z "},"Ǔ":{"ha":913,"x_min":107,"x_max":806,"o":"m 457 -14 q 195 85 283 -14 q 107 381 107 185 l 107 972 l 236 972 l 236 383 q 457 92 236 92 q 678 383 678 92 l 678 972 l 806 972 l 806 381 q 717 86 806 186 q 457 -14 629 -14 m 261 1246 l 364 1246 l 457 1124 l 550 1246 l 653 1246 l 497 1047 l 417 1047 l 261 1246 z "},"Û":{"ha":913,"x_min":107,"x_max":806,"o":"m 457 -14 q 195 85 283 -14 q 107 381 107 185 l 107 972 l 236 972 l 236 383 q 457 92 236 92 q 678 383 678 92 l 678 972 l 806 972 l 806 381 q 717 86 806 186 q 457 -14 629 -14 m 417 1246 l 497 1246 l 653 1047 l 550 1047 l 457 1169 l 364 1047 l 261 1047 l 417 1246 z "},"Ü":{"ha":913,"x_min":107,"x_max":806,"o":"m 457 -14 q 195 85 283 -14 q 107 381 107 185 l 107 972 l 236 972 l 236 383 q 457 92 236 92 q 678 383 678 92 l 678 972 l 806 972 l 806 381 q 717 86 806 186 q 457 -14 629 -14 m 318 1047 q 267 1067 288 1047 q 246 1118 246 1088 q 266 1169 246 1149 q 318 1189 286 1189 q 369 1169 349 1189 q 390 1118 390 1149 q 369 1067 390 1088 q 318 1047 349 1047 m 596 1047 q 544 1067 565 1047 q 524 1118 524 1088 q 544 1169 524 1149 q 596 1189 565 1189 q 648 1169 628 1189 q 668 1118 668 1149 q 647 1067 668 1088 q 596 1047 626 1047 z "},"Ǘ":{"ha":913,"x_min":107,"x_max":806,"o":"m 457 -14 q 195 85 283 -14 q 107 381 107 185 l 107 972 l 236 972 l 236 383 q 457 92 236 92 q 678 383 678 92 l 678 972 l 806 972 l 806 381 q 717 86 806 186 q 457 -14 629 -14 m 476 1369 l 574 1369 l 486 1226 l 411 1226 l 476 1369 m 318 1047 q 267 1067 288 1047 q 246 1118 246 1088 q 266 1169 246 1149 q 318 1189 286 1189 q 369 1169 349 1189 q 390 1118 390 1149 q 369 1067 390 1088 q 318 1047 349 1047 m 596 1047 q 544 1067 565 1047 q 524 1118 524 1088 q 544 1169 524 1149 q 596 1189 565 1189 q 648 1169 628 1189 q 668 1118 668 1149 q 647 1067 668 1088 q 596 1047 626 1047 z "},"Ǚ":{"ha":913,"x_min":107,"x_max":806,"o":"m 457 -14 q 195 85 283 -14 q 107 381 107 185 l 107 972 l 236 972 l 236 383 q 457 92 236 92 q 678 383 678 92 l 678 972 l 806 972 l 806 381 q 717 86 806 186 q 457 -14 629 -14 m 268 1382 l 368 1382 l 457 1279 l 546 1382 l 646 1382 l 493 1214 l 419 1214 l 268 1382 m 318 1047 q 267 1067 288 1047 q 246 1118 246 1088 q 266 1169 246 1149 q 318 1189 286 1189 q 369 1169 349 1189 q 390 1118 390 1149 q 369 1067 390 1088 q 318 1047 349 1047 m 596 1047 q 544 1067 565 1047 q 524 1118 524 1088 q 544 1169 524 1149 q 596 1189 565 1189 q 648 1169 628 1189 q 668 1118 668 1149 q 647 1067 668 1088 q 596 1047 626 1047 z "},"Ǜ":{"ha":913,"x_min":107,"x_max":806,"o":"m 457 -14 q 195 85 283 -14 q 107 381 107 185 l 107 972 l 236 972 l 236 383 q 457 92 236 92 q 678 383 678 92 l 678 972 l 806 972 l 806 381 q 717 86 806 186 q 457 -14 629 -14 m 339 1369 l 436 1369 l 501 1226 l 426 1226 l 339 1369 m 318 1047 q 267 1067 288 1047 q 246 1118 246 1088 q 266 1169 246 1149 q 318 1189 286 1189 q 369 1169 349 1189 q 390 1118 390 1149 q 369 1067 390 1088 q 318 1047 349 1047 m 596 1047 q 544 1067 565 1047 q 524 1118 524 1088 q 544 1169 524 1149 q 596 1189 565 1189 q 648 1169 628 1189 q 668 1118 668 1149 q 647 1067 668 1088 q 596 1047 626 1047 z "},"Ǖ":{"ha":913,"x_min":107,"x_max":806,"o":"m 457 -14 q 195 85 283 -14 q 107 381 107 185 l 107 972 l 236 972 l 236 383 q 457 92 236 92 q 678 383 678 92 l 678 972 l 806 972 l 806 381 q 717 86 806 186 q 457 -14 629 -14 m 263 1325 l 653 1325 l 653 1250 l 263 1250 l 263 1325 m 318 1047 q 267 1067 288 1047 q 246 1118 246 1088 q 266 1169 246 1149 q 318 1189 286 1189 q 369 1169 349 1189 q 390 1118 390 1149 q 369 1067 390 1088 q 318 1047 349 1047 m 596 1047 q 544 1067 565 1047 q 524 1118 524 1088 q 544 1169 524 1149 q 596 1189 565 1189 q 648 1169 628 1189 q 668 1118 668 1149 q 647 1067 668 1088 q 596 1047 626 1047 z "},"Ụ":{"ha":913,"x_min":107,"x_max":806,"o":"m 457 -14 q 195 85 283 -14 q 107 381 107 185 l 107 972 l 236 972 l 236 383 q 457 92 236 92 q 678 383 678 92 l 678 972 l 806 972 l 806 381 q 717 86 806 186 q 457 -14 629 -14 m 457 -242 q 405 -222 425 -242 q 385 -171 385 -201 q 405 -120 385 -140 q 457 -100 425 -100 q 509 -120 489 -100 q 529 -171 529 -140 q 509 -222 529 -201 q 457 -242 489 -242 z "},"Ù":{"ha":913,"x_min":107,"x_max":806,"o":"m 457 -14 q 195 85 283 -14 q 107 381 107 185 l 107 972 l 236 972 l 236 383 q 457 92 236 92 q 678 383 678 92 l 678 972 l 806 972 l 806 381 q 717 86 806 186 q 457 -14 629 -14 m 275 1250 l 396 1250 l 504 1047 l 410 1047 l 275 1250 z "},"Ủ":{"ha":913,"x_min":107,"x_max":806,"o":"m 457 -14 q 195 85 283 -14 q 107 381 107 185 l 107 972 l 236 972 l 236 383 q 457 92 236 92 q 678 383 678 92 l 678 972 l 806 972 l 806 381 q 717 86 806 186 q 457 -14 629 -14 m 410 1047 q 424 1103 410 1082 q 465 1149 439 1125 q 499 1187 489 1172 q 510 1224 510 1201 q 453 1268 510 1268 q 365 1206 399 1268 l 313 1253 q 372 1316 333 1293 q 463 1339 411 1339 q 562 1310 525 1339 q 599 1228 599 1282 q 584 1171 599 1194 q 542 1118 569 1147 q 509 1081 519 1096 q 499 1047 499 1065 l 410 1047 z "},"Ư":{"ha":964,"x_min":107,"x_max":1011,"o":"m 1011 972 l 1011 921 q 953 748 1011 822 q 806 646 896 674 l 806 381 q 717 86 806 186 q 457 -14 629 -14 q 195 85 283 -14 q 107 381 107 185 l 107 972 l 236 972 l 236 383 q 457 92 236 92 q 678 383 678 92 l 678 972 l 806 972 l 806 718 q 882 803 858 756 q 906 921 906 850 l 906 972 l 1011 972 z "},"Ứ":{"ha":964,"x_min":107,"x_max":1011,"o":"m 1011 972 l 1011 921 q 953 748 1011 822 q 806 646 896 674 l 806 381 q 717 86 806 186 q 457 -14 629 -14 q 195 85 283 -14 q 107 381 107 185 l 107 972 l 236 972 l 236 383 q 457 92 236 92 q 678 383 678 92 l 678 972 l 806 972 l 806 718 q 882 803 858 756 q 906 921 906 850 l 906 972 l 1011 972 m 524 1250 l 644 1250 l 510 1047 l 415 1047 l 524 1250 z "},"Ự":{"ha":964,"x_min":107,"x_max":1011,"o":"m 1011 972 l 1011 921 q 953 748 1011 822 q 806 646 896 674 l 806 381 q 717 86 806 186 q 457 -14 629 -14 q 195 85 283 -14 q 107 381 107 185 l 107 972 l 236 972 l 236 383 q 457 92 236 92 q 678 383 678 92 l 678 972 l 806 972 l 806 718 q 882 803 858 756 q 906 921 906 850 l 906 972 l 1011 972 m 457 -242 q 405 -222 425 -242 q 385 -171 385 -201 q 405 -120 385 -140 q 457 -100 425 -100 q 509 -120 489 -100 q 529 -171 529 -140 q 509 -222 529 -201 q 457 -242 489 -242 z "},"Ừ":{"ha":964,"x_min":107,"x_max":1011,"o":"m 1011 972 l 1011 921 q 953 748 1011 822 q 806 646 896 674 l 806 381 q 717 86 806 186 q 457 -14 629 -14 q 195 85 283 -14 q 107 381 107 185 l 107 972 l 236 972 l 236 383 q 457 92 236 92 q 678 383 678 92 l 678 972 l 806 972 l 806 718 q 882 803 858 756 q 906 921 906 850 l 906 972 l 1011 972 m 275 1250 l 396 1250 l 504 1047 l 410 1047 l 275 1250 z "},"Ử":{"ha":964,"x_min":107,"x_max":1011,"o":"m 1011 972 l 1011 921 q 953 748 1011 822 q 806 646 896 674 l 806 381 q 717 86 806 186 q 457 -14 629 -14 q 195 85 283 -14 q 107 381 107 185 l 107 972 l 236 972 l 236 383 q 457 92 236 92 q 678 383 678 92 l 678 972 l 806 972 l 806 718 q 882 803 858 756 q 906 921 906 850 l 906 972 l 1011 972 m 410 1047 q 424 1103 410 1082 q 465 1149 439 1125 q 499 1187 489 1172 q 510 1224 510 1201 q 453 1268 510 1268 q 365 1206 399 1268 l 313 1253 q 372 1316 333 1293 q 463 1339 411 1339 q 562 1310 525 1339 q 599 1228 599 1282 q 584 1171 599 1194 q 542 1118 569 1147 q 509 1081 519 1096 q 499 1047 499 1065 l 410 1047 z "},"Ữ":{"ha":964,"x_min":107,"x_max":1011,"o":"m 1011 972 l 1011 921 q 953 748 1011 822 q 806 646 896 674 l 806 381 q 717 86 806 186 q 457 -14 629 -14 q 195 85 283 -14 q 107 381 107 185 l 107 972 l 236 972 l 236 383 q 457 92 236 92 q 678 383 678 92 l 678 972 l 806 972 l 806 718 q 882 803 858 756 q 906 921 906 850 l 906 972 l 1011 972 m 254 1047 q 285 1149 254 1110 q 367 1188 317 1188 q 412 1179 392 1188 q 469 1150 432 1171 q 535 1122 513 1122 q 565 1139 554 1122 q 578 1193 575 1156 l 650 1193 q 617 1087 649 1126 q 533 1047 585 1047 q 483 1058 507 1047 q 426 1088 460 1068 q 369 1113 386 1113 q 340 1095 351 1113 q 326 1047 328 1078 l 254 1047 z "},"Ű":{"ha":913,"x_min":107,"x_max":806,"o":"m 457 -14 q 195 85 283 -14 q 107 381 107 185 l 107 972 l 236 972 l 236 383 q 457 92 236 92 q 678 383 678 92 l 678 972 l 806 972 l 806 381 q 717 86 806 186 q 457 -14 629 -14 m 404 1250 l 524 1250 l 390 1047 l 294 1047 l 404 1250 m 585 1250 l 704 1250 l 571 1047 l 475 1047 l 585 1250 z "},"Ū":{"ha":913,"x_min":107,"x_max":806,"o":"m 457 -14 q 195 85 283 -14 q 107 381 107 185 l 107 972 l 236 972 l 236 383 q 457 92 236 92 q 678 383 678 92 l 678 972 l 806 972 l 806 381 q 717 86 806 186 q 457 -14 629 -14 m 240 1143 l 674 1143 l 674 1061 l 240 1061 l 240 1143 z "},"Ų":{"ha":913,"x_min":107,"x_max":806,"o":"m 806 972 l 806 381 q 731 102 806 201 q 511 -11 657 3 q 414 -151 414 -83 q 435 -200 414 -182 q 501 -218 457 -218 q 574 -201 532 -218 l 589 -251 q 533 -282 565 -271 q 464 -293 500 -293 q 365 -262 401 -293 q 328 -168 328 -231 q 424 -12 328 -76 q 187 95 267 -4 q 107 381 107 194 l 107 972 l 236 972 l 236 383 q 457 92 236 92 q 678 383 678 92 l 678 972 l 806 972 z "},"Ů":{"ha":913,"x_min":107,"x_max":806,"o":"m 457 -14 q 195 85 283 -14 q 107 381 107 185 l 107 972 l 236 972 l 236 383 q 457 92 236 92 q 678 383 678 92 l 678 972 l 806 972 l 806 381 q 717 86 806 186 q 457 -14 629 -14 m 457 1025 q 362 1060 399 1025 q 325 1149 325 1094 q 362 1238 325 1203 q 457 1272 399 1272 q 552 1238 515 1272 q 589 1149 589 1203 q 552 1060 589 1094 q 457 1025 515 1025 m 457 1078 q 507 1098 488 1078 q 526 1149 526 1118 q 507 1199 526 1179 q 457 1219 488 1219 q 407 1199 426 1219 q 388 1149 388 1179 q 407 1098 388 1118 q 457 1078 426 1078 z "},"Ũ":{"ha":913,"x_min":107,"x_max":806,"o":"m 457 -14 q 195 85 283 -14 q 107 381 107 185 l 107 972 l 236 972 l 236 383 q 457 92 236 92 q 678 383 678 92 l 678 972 l 806 972 l 806 381 q 717 86 806 186 q 457 -14 629 -14 m 254 1047 q 285 1149 254 1110 q 367 1188 317 1188 q 412 1179 392 1188 q 469 1150 432 1171 q 535 1122 513 1122 q 565 1139 554 1122 q 578 1193 575 1156 l 650 1193 q 617 1087 649 1126 q 533 1047 585 1047 q 483 1058 507 1047 q 426 1088 460 1068 q 369 1113 386 1113 q 340 1095 351 1113 q 326 1047 328 1078 l 254 1047 z "},"V":{"ha":836,"x_min":24,"x_max":813,"o":"m 813 972 l 481 0 l 356 0 l 24 972 l 160 972 l 418 169 l 676 972 l 813 972 z "},"W":{"ha":1154,"x_min":38,"x_max":1115,"o":"m 1115 972 l 914 0 l 788 0 l 578 797 l 367 0 l 240 0 l 38 972 l 175 972 l 311 196 l 513 972 l 642 972 l 842 199 l 978 972 l 1115 972 z "},"Ẃ":{"ha":1154,"x_min":38,"x_max":1115,"o":"m 1115 972 l 914 0 l 788 0 l 578 797 l 367 0 l 240 0 l 38 972 l 175 972 l 311 196 l 513 972 l 642 972 l 842 199 l 978 972 l 1115 972 m 643 1250 l 764 1250 l 629 1047 l 535 1047 l 643 1250 z "},"Ŵ":{"ha":1154,"x_min":38,"x_max":1115,"o":"m 1115 972 l 914 0 l 788 0 l 578 797 l 367 0 l 240 0 l 38 972 l 175 972 l 311 196 l 513 972 l 642 972 l 842 199 l 978 972 l 1115 972 m 536 1246 l 617 1246 l 772 1047 l 669 1047 l 576 1169 l 483 1047 l 381 1047 l 536 1246 z "},"Ẅ":{"ha":1154,"x_min":38,"x_max":1115,"o":"m 1115 972 l 914 0 l 788 0 l 578 797 l 367 0 l 240 0 l 38 972 l 175 972 l 311 196 l 513 972 l 642 972 l 842 199 l 978 972 l 1115 972 m 438 1047 q 386 1067 407 1047 q 365 1118 365 1088 q 385 1169 365 1149 q 438 1189 406 1189 q 489 1169 468 1189 q 510 1118 510 1149 q 489 1067 510 1088 q 438 1047 468 1047 m 715 1047 q 664 1067 685 1047 q 643 1118 643 1088 q 664 1169 643 1149 q 715 1189 685 1189 q 767 1169 747 1189 q 788 1118 788 1149 q 767 1067 788 1088 q 715 1047 746 1047 z "},"Ẁ":{"ha":1154,"x_min":38,"x_max":1115,"o":"m 1115 972 l 914 0 l 788 0 l 578 797 l 367 0 l 240 0 l 38 972 l 175 972 l 311 196 l 513 972 l 642 972 l 842 199 l 978 972 l 1115 972 m 394 1250 l 515 1250 l 624 1047 l 529 1047 l 394 1250 z "},"X":{"ha":840,"x_min":47,"x_max":793,"o":"m 346 499 l 61 972 l 208 972 l 421 592 l 632 972 l 781 972 l 494 499 l 793 0 l 649 0 l 421 396 l 193 0 l 47 0 l 346 499 z "},"Y":{"ha":796,"x_min":24,"x_max":771,"o":"m 333 386 l 24 972 l 165 972 l 397 508 l 629 972 l 771 972 l 463 386 l 463 0 l 333 0 l 333 386 z "},"Ý":{"ha":796,"x_min":24,"x_max":771,"o":"m 333 386 l 24 972 l 165 972 l 397 508 l 629 972 l 771 972 l 463 386 l 463 0 l 333 0 l 333 386 m 464 1250 l 585 1250 l 450 1047 l 356 1047 l 464 1250 z "},"Ŷ":{"ha":796,"x_min":24,"x_max":771,"o":"m 333 386 l 24 972 l 165 972 l 397 508 l 629 972 l 771 972 l 463 386 l 463 0 l 333 0 l 333 386 m 357 1246 l 438 1246 l 593 1047 l 490 1047 l 397 1169 l 304 1047 l 201 1047 l 357 1246 z "},"Ÿ":{"ha":796,"x_min":24,"x_max":771,"o":"m 333 386 l 24 972 l 165 972 l 397 508 l 629 972 l 771 972 l 463 386 l 463 0 l 333 0 l 333 386 m 258 1047 q 207 1067 228 1047 q 186 1118 186 1088 q 206 1169 186 1149 q 258 1189 226 1189 q 310 1169 289 1189 q 331 1118 331 1149 q 310 1067 331 1088 q 258 1047 289 1047 m 536 1047 q 485 1067 506 1047 q 464 1118 464 1088 q 485 1169 464 1149 q 536 1189 506 1189 q 588 1169 568 1189 q 608 1118 608 1149 q 588 1067 608 1088 q 536 1047 567 1047 z "},"Ẏ":{"ha":796,"x_min":24,"x_max":771,"o":"m 333 386 l 24 972 l 165 972 l 397 508 l 629 972 l 771 972 l 463 386 l 463 0 l 333 0 l 333 386 m 397 1047 q 346 1067 367 1047 q 325 1118 325 1088 q 345 1169 325 1149 q 397 1189 365 1189 q 449 1169 429 1189 q 469 1118 469 1149 q 449 1067 469 1088 q 397 1047 428 1047 z "},"Ỵ":{"ha":796,"x_min":24,"x_max":771,"o":"m 333 386 l 24 972 l 165 972 l 397 508 l 629 972 l 771 972 l 463 386 l 463 0 l 333 0 l 333 386 m 397 -242 q 345 -222 365 -242 q 325 -171 325 -201 q 345 -120 325 -140 q 397 -100 365 -100 q 449 -120 429 -100 q 469 -171 469 -140 q 449 -222 469 -201 q 397 -242 429 -242 z "},"Ỳ":{"ha":796,"x_min":24,"x_max":771,"o":"m 333 386 l 24 972 l 165 972 l 397 508 l 629 972 l 771 972 l 463 386 l 463 0 l 333 0 l 333 386 m 215 1250 l 336 1250 l 444 1047 l 350 1047 l 215 1250 z "},"Ỷ":{"ha":796,"x_min":24,"x_max":771,"o":"m 333 386 l 24 972 l 165 972 l 397 508 l 629 972 l 771 972 l 463 386 l 463 0 l 333 0 l 333 386 m 350 1047 q 365 1103 350 1082 q 406 1149 379 1125 q 440 1187 429 1172 q 450 1224 450 1201 q 393 1268 450 1268 q 306 1206 339 1268 l 253 1253 q 313 1316 274 1293 q 403 1339 351 1339 q 502 1310 465 1339 q 539 1228 539 1282 q 524 1171 539 1194 q 482 1118 510 1147 q 449 1081 460 1096 q 439 1047 439 1065 l 350 1047 z "},"Ỹ":{"ha":796,"x_min":24,"x_max":771,"o":"m 333 386 l 24 972 l 165 972 l 397 508 l 629 972 l 771 972 l 463 386 l 463 0 l 333 0 l 333 386 m 194 1047 q 226 1149 194 1110 q 307 1188 257 1188 q 352 1179 332 1188 q 410 1150 372 1171 q 475 1122 453 1122 q 505 1139 494 1122 q 518 1193 515 1156 l 590 1193 q 557 1087 589 1126 q 474 1047 525 1047 q 424 1058 447 1047 q 367 1088 400 1068 q 310 1113 326 1113 q 280 1095 292 1113 q 267 1047 268 1078 l 194 1047 z "},"Z":{"ha":788,"x_min":47,"x_max":740,"o":"m 47 71 l 564 867 l 88 867 l 88 972 l 722 972 l 722 899 l 207 106 l 740 106 l 740 0 l 47 0 l 47 71 z "},"Ź":{"ha":788,"x_min":47,"x_max":740,"o":"m 47 71 l 564 867 l 88 867 l 88 972 l 722 972 l 722 899 l 207 106 l 740 106 l 740 0 l 47 0 l 47 71 m 460 1250 l 581 1250 l 446 1047 l 351 1047 l 460 1250 z "},"Ž":{"ha":788,"x_min":47,"x_max":740,"o":"m 47 71 l 564 867 l 88 867 l 88 972 l 722 972 l 722 899 l 207 106 l 740 106 l 740 0 l 47 0 l 47 71 m 197 1246 l 300 1246 l 393 1124 l 486 1246 l 589 1246 l 433 1047 l 353 1047 l 197 1246 z "},"Ż":{"ha":788,"x_min":47,"x_max":740,"o":"m 47 71 l 564 867 l 88 867 l 88 972 l 722 972 l 722 899 l 207 106 l 740 106 l 740 0 l 47 0 l 47 71 m 393 1047 q 342 1067 363 1047 q 321 1118 321 1088 q 341 1169 321 1149 q 393 1189 361 1189 q 445 1169 425 1189 q 465 1118 465 1149 q 444 1067 465 1088 q 393 1047 424 1047 z "},"Ẓ":{"ha":788,"x_min":47,"x_max":740,"o":"m 47 71 l 564 867 l 88 867 l 88 972 l 722 972 l 722 899 l 207 106 l 740 106 l 740 0 l 47 0 l 47 71 m 393 -242 q 341 -222 361 -242 q 321 -171 321 -201 q 341 -120 321 -140 q 393 -100 361 -100 q 445 -120 425 -100 q 465 -171 465 -140 q 445 -222 465 -201 q 393 -242 425 -242 z "},"a":{"ha":714,"x_min":56,"x_max":635,"o":"m 289 -14 q 121 46 186 -14 q 56 200 56 106 q 134 361 56 304 q 357 418 213 418 l 500 418 l 500 454 q 459 573 500 532 q 340 614 418 614 q 226 588 278 614 q 139 514 174 563 l 79 586 q 194 677 126 646 q 346 708 263 708 q 547 644 476 708 q 618 461 618 581 l 618 135 q 635 0 618 81 l 532 0 q 514 97 519 32 l 511 97 q 415 15 472 43 q 289 -14 358 -14 m 307 79 q 404 99 360 79 q 474 154 449 119 q 500 231 500 189 l 500 333 l 353 333 q 218 299 265 333 q 171 200 171 264 q 208 112 171 144 q 307 79 244 79 z "},"á":{"ha":714,"x_min":56,"x_max":635,"o":"m 289 -14 q 121 46 186 -14 q 56 200 56 106 q 134 361 56 304 q 357 418 213 418 l 500 418 l 500 454 q 459 573 500 532 q 340 614 418 614 q 226 588 278 614 q 139 514 174 563 l 79 586 q 194 677 126 646 q 346 708 263 708 q 547 644 476 708 q 618 461 618 581 l 618 135 q 635 0 618 81 l 532 0 q 514 97 519 32 l 511 97 q 415 15 472 43 q 289 -14 358 -14 m 307 79 q 404 99 360 79 q 474 154 449 119 q 500 231 500 189 l 500 333 l 353 333 q 218 299 265 333 q 171 200 171 264 q 208 112 171 144 q 307 79 244 79 m 419 972 l 540 972 l 406 769 l 311 769 l 419 972 z "},"ă":{"ha":714,"x_min":56,"x_max":635,"o":"m 289 -14 q 121 46 186 -14 q 56 200 56 106 q 134 361 56 304 q 357 418 213 418 l 500 418 l 500 454 q 459 573 500 532 q 340 614 418 614 q 226 588 278 614 q 139 514 174 563 l 79 586 q 194 677 126 646 q 346 708 263 708 q 547 644 476 708 q 618 461 618 581 l 618 135 q 635 0 618 81 l 532 0 q 514 97 519 32 l 511 97 q 415 15 472 43 q 289 -14 358 -14 m 307 79 q 404 99 360 79 q 474 154 449 119 q 500 231 500 189 l 500 333 l 353 333 q 218 299 265 333 q 171 200 171 264 q 208 112 171 144 q 307 79 244 79 m 353 769 q 209 816 263 769 q 151 954 156 863 l 226 954 q 261 877 229 906 q 353 849 293 849 q 442 875 408 849 q 479 954 475 901 l 554 954 q 501 819 551 868 q 353 769 450 769 z "},"ắ":{"ha":714,"x_min":56,"x_max":635,"o":"m 289 -14 q 121 46 186 -14 q 56 200 56 106 q 134 361 56 304 q 357 418 213 418 l 500 418 l 500 454 q 459 573 500 532 q 340 614 418 614 q 226 588 278 614 q 139 514 174 563 l 79 586 q 194 677 126 646 q 346 708 263 708 q 547 644 476 708 q 618 461 618 581 l 618 135 q 635 0 618 81 l 532 0 q 514 97 519 32 l 511 97 q 415 15 472 43 q 289 -14 358 -14 m 307 79 q 404 99 360 79 q 474 154 449 119 q 500 231 500 189 l 500 333 l 353 333 q 218 299 265 333 q 171 200 171 264 q 208 112 171 144 q 307 79 244 79 m 374 1129 l 475 1129 l 383 979 l 303 979 l 374 1129 m 353 769 q 209 816 263 769 q 151 954 156 863 l 226 954 q 261 877 229 906 q 353 849 293 849 q 442 875 408 849 q 479 954 475 901 l 554 954 q 501 819 551 868 q 353 769 450 769 z "},"ặ":{"ha":714,"x_min":56,"x_max":635,"o":"m 289 -14 q 121 46 186 -14 q 56 200 56 106 q 134 361 56 304 q 357 418 213 418 l 500 418 l 500 454 q 459 573 500 532 q 340 614 418 614 q 226 588 278 614 q 139 514 174 563 l 79 586 q 194 677 126 646 q 346 708 263 708 q 547 644 476 708 q 618 461 618 581 l 618 135 q 635 0 618 81 l 532 0 q 514 97 519 32 l 511 97 q 415 15 472 43 q 289 -14 358 -14 m 307 79 q 404 99 360 79 q 474 154 449 119 q 500 231 500 189 l 500 333 l 353 333 q 218 299 265 333 q 171 200 171 264 q 208 112 171 144 q 307 79 244 79 m 354 -242 q 302 -222 322 -242 q 282 -171 282 -201 q 302 -120 282 -140 q 354 -100 322 -100 q 406 -120 386 -100 q 426 -171 426 -140 q 406 -222 426 -201 q 354 -242 386 -242 m 353 769 q 209 816 263 769 q 151 954 156 863 l 226 954 q 261 877 229 906 q 353 849 293 849 q 442 875 408 849 q 479 954 475 901 l 554 954 q 501 819 551 868 q 353 769 450 769 z "},"ằ":{"ha":714,"x_min":56,"x_max":635,"o":"m 289 -14 q 121 46 186 -14 q 56 200 56 106 q 134 361 56 304 q 357 418 213 418 l 500 418 l 500 454 q 459 573 500 532 q 340 614 418 614 q 226 588 278 614 q 139 514 174 563 l 79 586 q 194 677 126 646 q 346 708 263 708 q 547 644 476 708 q 618 461 618 581 l 618 135 q 635 0 618 81 l 532 0 q 514 97 519 32 l 511 97 q 415 15 472 43 q 289 -14 358 -14 m 307 79 q 404 99 360 79 q 474 154 449 119 q 500 231 500 189 l 500 333 l 353 333 q 218 299 265 333 q 171 200 171 264 q 208 112 171 144 q 307 79 244 79 m 219 1129 l 321 1129 l 392 979 l 311 979 l 219 1129 m 353 769 q 209 816 263 769 q 151 954 156 863 l 226 954 q 261 877 229 906 q 353 849 293 849 q 442 875 408 849 q 479 954 475 901 l 554 954 q 501 819 551 868 q 353 769 450 769 z "},"ẳ":{"ha":714,"x_min":56,"x_max":635,"o":"m 289 -14 q 121 46 186 -14 q 56 200 56 106 q 134 361 56 304 q 357 418 213 418 l 500 418 l 500 454 q 459 573 500 532 q 340 614 418 614 q 226 588 278 614 q 139 514 174 563 l 79 586 q 194 677 126 646 q 346 708 263 708 q 547 644 476 708 q 618 461 618 581 l 618 135 q 635 0 618 81 l 532 0 q 514 97 519 32 l 511 97 q 415 15 472 43 q 289 -14 358 -14 m 307 79 q 404 99 360 79 q 474 154 449 119 q 500 231 500 189 l 500 333 l 353 333 q 218 299 265 333 q 171 200 171 264 q 208 112 171 144 q 307 79 244 79 m 317 967 q 329 1015 317 999 q 367 1051 342 1032 q 394 1077 386 1067 q 403 1104 403 1088 q 390 1131 403 1121 q 356 1140 378 1140 q 316 1130 335 1140 q 285 1099 297 1119 l 246 1133 q 294 1180 263 1163 q 363 1197 325 1197 q 438 1173 408 1197 q 467 1107 467 1149 q 455 1063 467 1081 q 421 1026 443 1046 q 391 997 400 1008 q 382 967 382 985 l 317 967 m 353 769 q 209 816 263 769 q 151 954 156 863 l 226 954 q 261 877 229 906 q 353 849 293 849 q 442 875 408 849 q 479 954 475 901 l 554 954 q 501 819 551 868 q 353 769 450 769 z "},"ẵ":{"ha":714,"x_min":56,"x_max":635,"o":"m 289 -14 q 121 46 186 -14 q 56 200 56 106 q 134 361 56 304 q 357 418 213 418 l 500 418 l 500 454 q 459 573 500 532 q 340 614 418 614 q 226 588 278 614 q 139 514 174 563 l 79 586 q 194 677 126 646 q 346 708 263 708 q 547 644 476 708 q 618 461 618 581 l 618 135 q 635 0 618 81 l 532 0 q 514 97 519 32 l 511 97 q 415 15 472 43 q 289 -14 358 -14 m 307 79 q 404 99 360 79 q 474 154 449 119 q 500 231 500 189 l 500 333 l 353 333 q 218 299 265 333 q 171 200 171 264 q 208 112 171 144 q 307 79 244 79 m 425 1010 q 388 1017 406 1010 q 357 1032 371 1024 q 339 1043 343 1040 q 275 1071 299 1071 q 224 1017 239 1071 l 167 1017 q 206 1104 176 1072 q 281 1136 235 1136 q 324 1127 303 1136 q 369 1103 344 1118 q 407 1083 393 1089 q 436 1076 421 1076 q 488 1135 475 1076 l 543 1135 q 502 1043 533 1076 q 425 1010 471 1010 m 353 769 q 209 816 263 769 q 151 954 156 863 l 226 954 q 261 877 229 906 q 353 849 293 849 q 442 875 408 849 q 479 954 475 901 l 554 954 q 501 819 551 868 q 353 769 450 769 z "},"ǎ":{"ha":714,"x_min":56,"x_max":635,"o":"m 289 -14 q 121 46 186 -14 q 56 200 56 106 q 134 361 56 304 q 357 418 213 418 l 500 418 l 500 454 q 459 573 500 532 q 340 614 418 614 q 226 588 278 614 q 139 514 174 563 l 79 586 q 194 677 126 646 q 346 708 263 708 q 547 644 476 708 q 618 461 618 581 l 618 135 q 635 0 618 81 l 532 0 q 514 97 519 32 l 511 97 q 415 15 472 43 q 289 -14 358 -14 m 307 79 q 404 99 360 79 q 474 154 449 119 q 500 231 500 189 l 500 333 l 353 333 q 218 299 265 333 q 171 200 171 264 q 208 112 171 144 q 307 79 244 79 m 157 968 l 260 968 l 353 846 l 446 968 l 549 968 l 393 769 l 313 769 l 157 968 z "},"â":{"ha":714,"x_min":56,"x_max":635,"o":"m 289 -14 q 121 46 186 -14 q 56 200 56 106 q 134 361 56 304 q 357 418 213 418 l 500 418 l 500 454 q 459 573 500 532 q 340 614 418 614 q 226 588 278 614 q 139 514 174 563 l 79 586 q 194 677 126 646 q 346 708 263 708 q 547 644 476 708 q 618 461 618 581 l 618 135 q 635 0 618 81 l 532 0 q 514 97 519 32 l 511 97 q 415 15 472 43 q 289 -14 358 -14 m 307 79 q 404 99 360 79 q 474 154 449 119 q 500 231 500 189 l 500 333 l 353 333 q 218 299 265 333 q 171 200 171 264 q 208 112 171 144 q 307 79 244 79 m 313 968 l 393 968 l 549 769 l 446 769 l 353 892 l 260 769 l 157 769 l 313 968 z "},"ấ":{"ha":714,"x_min":56,"x_max":642,"o":"m 289 -14 q 121 46 186 -14 q 56 200 56 106 q 134 361 56 304 q 357 418 213 418 l 500 418 l 500 454 q 459 573 500 532 q 340 614 418 614 q 226 588 278 614 q 139 514 174 563 l 79 586 q 194 677 126 646 q 346 708 263 708 q 547 644 476 708 q 618 461 618 581 l 618 135 q 635 0 618 81 l 532 0 q 514 97 519 32 l 511 97 q 415 15 472 43 q 289 -14 358 -14 m 307 79 q 404 99 360 79 q 474 154 449 119 q 500 231 500 189 l 500 333 l 353 333 q 218 299 265 333 q 171 200 171 264 q 208 112 171 144 q 307 79 244 79 m 543 1074 l 642 1074 l 554 931 l 478 931 l 543 1074 m 313 968 l 393 968 l 549 769 l 446 769 l 353 892 l 260 769 l 157 769 l 313 968 z "},"ậ":{"ha":714,"x_min":56,"x_max":635,"o":"m 289 -14 q 121 46 186 -14 q 56 200 56 106 q 134 361 56 304 q 357 418 213 418 l 500 418 l 500 454 q 459 573 500 532 q 340 614 418 614 q 226 588 278 614 q 139 514 174 563 l 79 586 q 194 677 126 646 q 346 708 263 708 q 547 644 476 708 q 618 461 618 581 l 618 135 q 635 0 618 81 l 532 0 q 514 97 519 32 l 511 97 q 415 15 472 43 q 289 -14 358 -14 m 307 79 q 404 99 360 79 q 474 154 449 119 q 500 231 500 189 l 500 333 l 353 333 q 218 299 265 333 q 171 200 171 264 q 208 112 171 144 q 307 79 244 79 m 354 -242 q 302 -222 322 -242 q 282 -171 282 -201 q 302 -120 282 -140 q 354 -100 322 -100 q 406 -120 386 -100 q 426 -171 426 -140 q 406 -222 426 -201 q 354 -242 386 -242 m 313 968 l 393 968 l 549 769 l 446 769 l 353 892 l 260 769 l 157 769 l 313 968 z "},"ầ":{"ha":714,"x_min":56,"x_max":635,"o":"m 289 -14 q 121 46 186 -14 q 56 200 56 106 q 134 361 56 304 q 357 418 213 418 l 500 418 l 500 454 q 459 573 500 532 q 340 614 418 614 q 226 588 278 614 q 139 514 174 563 l 79 586 q 194 677 126 646 q 346 708 263 708 q 547 644 476 708 q 618 461 618 581 l 618 135 q 635 0 618 81 l 532 0 q 514 97 519 32 l 511 97 q 415 15 472 43 q 289 -14 358 -14 m 307 79 q 404 99 360 79 q 474 154 449 119 q 500 231 500 189 l 500 333 l 353 333 q 218 299 265 333 q 171 200 171 264 q 208 112 171 144 q 307 79 244 79 m 436 1074 l 535 1074 l 600 931 l 524 931 l 436 1074 m 313 968 l 393 968 l 549 769 l 446 769 l 353 892 l 260 769 l 157 769 l 313 968 z "},"ẩ":{"ha":714,"x_min":56,"x_max":669,"o":"m 289 -14 q 121 46 186 -14 q 56 200 56 106 q 134 361 56 304 q 357 418 213 418 l 500 418 l 500 454 q 459 573 500 532 q 340 614 418 614 q 226 588 278 614 q 139 514 174 563 l 79 586 q 194 677 126 646 q 346 708 263 708 q 547 644 476 708 q 618 461 618 581 l 618 135 q 635 0 618 81 l 532 0 q 514 97 519 32 l 511 97 q 415 15 472 43 q 289 -14 358 -14 m 307 79 q 404 99 360 79 q 474 154 449 119 q 500 231 500 189 l 500 333 l 353 333 q 218 299 265 333 q 171 200 171 264 q 208 112 171 144 q 307 79 244 79 m 518 921 q 531 969 518 951 q 567 1006 543 986 q 594 1029 585 1018 q 603 1057 603 1040 q 591 1082 603 1072 q 558 1092 579 1092 q 519 1081 538 1092 q 488 1050 500 1071 l 446 1088 q 494 1133 463 1115 q 565 1150 526 1150 q 641 1126 613 1150 q 669 1060 669 1103 q 658 1017 669 1033 q 624 981 647 1001 q 594 952 604 965 q 585 921 585 939 l 518 921 m 313 968 l 393 968 l 549 769 l 446 769 l 353 892 l 260 769 l 157 769 l 313 968 z "},"ẫ":{"ha":714,"x_min":56,"x_max":635,"o":"m 289 -14 q 121 46 186 -14 q 56 200 56 106 q 134 361 56 304 q 357 418 213 418 l 500 418 l 500 454 q 459 573 500 532 q 340 614 418 614 q 226 588 278 614 q 139 514 174 563 l 79 586 q 194 677 126 646 q 346 708 263 708 q 547 644 476 708 q 618 461 618 581 l 618 135 q 635 0 618 81 l 532 0 q 514 97 519 32 l 511 97 q 415 15 472 43 q 289 -14 358 -14 m 307 79 q 404 99 360 79 q 474 154 449 119 q 500 231 500 189 l 500 333 l 353 333 q 218 299 265 333 q 171 200 171 264 q 208 112 171 144 q 307 79 244 79 m 424 1011 q 384 1020 403 1011 q 340 1046 365 1029 q 303 1067 317 1061 q 275 1074 290 1074 q 224 1018 239 1074 l 167 1018 q 206 1106 176 1074 q 281 1138 235 1138 q 322 1129 301 1138 q 368 1106 342 1121 q 408 1085 393 1092 q 436 1079 422 1079 q 488 1136 475 1079 l 543 1136 q 502 1044 533 1078 q 424 1011 471 1011 m 313 968 l 393 968 l 549 769 l 446 769 l 353 892 l 260 769 l 157 769 l 313 968 z "},"ä":{"ha":714,"x_min":56,"x_max":635,"o":"m 289 -14 q 121 46 186 -14 q 56 200 56 106 q 134 361 56 304 q 357 418 213 418 l 500 418 l 500 454 q 459 573 500 532 q 340 614 418 614 q 226 588 278 614 q 139 514 174 563 l 79 586 q 194 677 126 646 q 346 708 263 708 q 547 644 476 708 q 618 461 618 581 l 618 135 q 635 0 618 81 l 532 0 q 514 97 519 32 l 511 97 q 415 15 472 43 q 289 -14 358 -14 m 307 79 q 404 99 360 79 q 474 154 449 119 q 500 231 500 189 l 500 333 l 353 333 q 218 299 265 333 q 171 200 171 264 q 208 112 171 144 q 307 79 244 79 m 214 769 q 163 790 183 769 q 142 840 142 810 q 162 891 142 871 q 214 911 182 911 q 265 891 244 911 q 286 840 286 871 q 265 790 286 810 q 214 769 244 769 m 492 769 q 440 790 461 769 q 419 840 419 810 q 440 891 419 871 q 492 911 461 911 q 544 891 524 911 q 564 840 564 871 q 543 790 564 810 q 492 769 522 769 z "},"ạ":{"ha":714,"x_min":56,"x_max":635,"o":"m 289 -14 q 121 46 186 -14 q 56 200 56 106 q 134 361 56 304 q 357 418 213 418 l 500 418 l 500 454 q 459 573 500 532 q 340 614 418 614 q 226 588 278 614 q 139 514 174 563 l 79 586 q 194 677 126 646 q 346 708 263 708 q 547 644 476 708 q 618 461 618 581 l 618 135 q 635 0 618 81 l 532 0 q 514 97 519 32 l 511 97 q 415 15 472 43 q 289 -14 358 -14 m 307 79 q 404 99 360 79 q 474 154 449 119 q 500 231 500 189 l 500 333 l 353 333 q 218 299 265 333 q 171 200 171 264 q 208 112 171 144 q 307 79 244 79 m 354 -242 q 302 -222 322 -242 q 282 -171 282 -201 q 302 -120 282 -140 q 354 -100 322 -100 q 406 -120 386 -100 q 426 -171 426 -140 q 406 -222 426 -201 q 354 -242 386 -242 z "},"à":{"ha":714,"x_min":56,"x_max":635,"o":"m 289 -14 q 121 46 186 -14 q 56 200 56 106 q 134 361 56 304 q 357 418 213 418 l 500 418 l 500 454 q 459 573 500 532 q 340 614 418 614 q 226 588 278 614 q 139 514 174 563 l 79 586 q 194 677 126 646 q 346 708 263 708 q 547 644 476 708 q 618 461 618 581 l 618 135 q 635 0 618 81 l 532 0 q 514 97 519 32 l 511 97 q 415 15 472 43 q 289 -14 358 -14 m 307 79 q 404 99 360 79 q 474 154 449 119 q 500 231 500 189 l 500 333 l 353 333 q 218 299 265 333 q 171 200 171 264 q 208 112 171 144 q 307 79 244 79 m 171 972 l 292 972 l 400 769 l 306 769 l 171 972 z "},"ả":{"ha":714,"x_min":56,"x_max":635,"o":"m 289 -14 q 121 46 186 -14 q 56 200 56 106 q 134 361 56 304 q 357 418 213 418 l 500 418 l 500 454 q 459 573 500 532 q 340 614 418 614 q 226 588 278 614 q 139 514 174 563 l 79 586 q 194 677 126 646 q 346 708 263 708 q 547 644 476 708 q 618 461 618 581 l 618 135 q 635 0 618 81 l 532 0 q 514 97 519 32 l 511 97 q 415 15 472 43 q 289 -14 358 -14 m 307 79 q 404 99 360 79 q 474 154 449 119 q 500 231 500 189 l 500 333 l 353 333 q 218 299 265 333 q 171 200 171 264 q 208 112 171 144 q 307 79 244 79 m 306 769 q 320 826 306 804 q 361 871 335 847 q 395 909 385 894 q 406 946 406 924 q 349 990 406 990 q 261 928 294 990 l 208 975 q 268 1038 229 1015 q 358 1061 307 1061 q 458 1033 421 1061 q 494 950 494 1004 q 480 893 494 917 q 438 840 465 869 q 405 803 415 818 q 394 769 394 788 l 306 769 z "},"ɑ":{"ha":744,"x_min":47,"x_max":663,"o":"m 335 -14 q 124 87 201 -14 q 47 360 47 188 q 125 614 47 519 q 336 708 203 708 q 539 601 471 708 l 542 601 l 542 694 l 658 694 l 658 175 q 663 0 658 49 l 554 0 q 551 110 550 60 l 549 110 q 459 19 517 51 q 335 -14 401 -14 m 351 81 q 490 134 439 81 q 542 278 542 188 l 542 404 q 490 559 542 500 q 351 618 438 618 q 213 549 263 618 q 164 357 164 479 q 213 155 164 229 q 351 81 263 81 z "},"ā":{"ha":714,"x_min":56,"x_max":635,"o":"m 289 -14 q 121 46 186 -14 q 56 200 56 106 q 134 361 56 304 q 357 418 213 418 l 500 418 l 500 454 q 459 573 500 532 q 340 614 418 614 q 226 588 278 614 q 139 514 174 563 l 79 586 q 194 677 126 646 q 346 708 263 708 q 547 644 476 708 q 618 461 618 581 l 618 135 q 635 0 618 81 l 532 0 q 514 97 519 32 l 511 97 q 415 15 472 43 q 289 -14 358 -14 m 307 79 q 404 99 360 79 q 474 154 449 119 q 500 231 500 189 l 500 333 l 353 333 q 218 299 265 333 q 171 200 171 264 q 208 112 171 144 q 307 79 244 79 m 136 865 l 569 865 l 569 783 l 136 783 l 136 865 z "},"ą":{"ha":714,"x_min":56,"x_max":682,"o":"m 682 -251 q 626 -282 658 -271 q 557 -293 593 -293 q 458 -262 494 -293 q 421 -168 421 -231 q 539 0 421 -65 l 532 0 q 514 97 519 32 l 511 97 q 415 15 472 43 q 289 -14 358 -14 q 121 46 186 -14 q 56 200 56 106 q 134 361 56 304 q 357 418 213 418 l 500 418 l 500 454 q 459 573 500 532 q 340 614 418 614 q 226 588 278 614 q 139 514 174 563 l 79 586 q 194 677 126 646 q 346 708 263 708 q 547 644 476 708 q 618 461 618 581 l 618 135 q 635 0 618 81 l 619 0 q 507 -151 507 -78 q 528 -200 507 -182 q 594 -218 550 -218 q 667 -201 625 -218 l 682 -251 m 500 333 l 353 333 q 218 299 265 333 q 171 200 171 264 q 208 112 171 144 q 307 79 244 79 q 404 99 360 79 q 474 154 449 119 q 500 231 500 189 l 500 333 z "},"å":{"ha":714,"x_min":56,"x_max":635,"o":"m 289 -14 q 121 46 186 -14 q 56 200 56 106 q 134 361 56 304 q 357 418 213 418 l 500 418 l 500 454 q 459 573 500 532 q 340 614 418 614 q 226 588 278 614 q 139 514 174 563 l 79 586 q 194 677 126 646 q 346 708 263 708 q 547 644 476 708 q 618 461 618 581 l 618 135 q 635 0 618 81 l 532 0 q 514 97 519 32 l 511 97 q 415 15 472 43 q 289 -14 358 -14 m 307 79 q 404 99 360 79 q 474 154 449 119 q 500 231 500 189 l 500 333 l 353 333 q 218 299 265 333 q 171 200 171 264 q 208 112 171 144 q 307 79 244 79 m 353 747 q 258 782 294 747 q 221 871 221 817 q 258 960 221 925 q 353 994 294 994 q 448 960 411 994 q 485 871 485 925 q 448 782 485 817 q 353 747 411 747 m 353 800 q 403 820 383 800 q 422 871 422 840 q 403 922 422 901 q 353 942 383 942 q 303 922 322 942 q 283 871 283 901 q 303 820 283 840 q 353 800 322 800 z "},"ǻ":{"ha":714,"x_min":56,"x_max":635,"o":"m 386 1178 l 493 1178 l 401 1033 l 315 1033 l 386 1178 m 353 747 q 258 782 294 747 q 221 871 221 817 q 258 960 221 925 q 353 994 294 994 q 448 960 411 994 q 485 871 485 925 q 448 782 485 817 q 353 747 411 747 m 353 800 q 403 820 383 800 q 422 871 422 840 q 403 922 422 901 q 353 942 383 942 q 303 922 322 942 q 283 871 283 901 q 303 820 283 840 q 353 800 322 800 m 289 -14 q 121 46 186 -14 q 56 200 56 106 q 134 361 56 304 q 357 418 213 418 l 500 418 l 500 454 q 459 573 500 532 q 340 614 418 614 q 226 588 278 614 q 139 514 174 563 l 79 586 q 194 677 126 646 q 346 708 263 708 q 547 644 476 708 q 618 461 618 581 l 618 135 q 635 0 618 81 l 532 0 q 514 97 519 32 l 511 97 q 415 15 472 43 q 289 -14 358 -14 m 307 79 q 404 99 360 79 q 474 154 449 119 q 500 231 500 189 l 500 333 l 353 333 q 218 299 265 333 q 171 200 171 264 q 208 112 171 144 q 307 79 244 79 z "},"ã":{"ha":714,"x_min":56,"x_max":635,"o":"m 289 -14 q 121 46 186 -14 q 56 200 56 106 q 134 361 56 304 q 357 418 213 418 l 500 418 l 500 454 q 459 573 500 532 q 340 614 418 614 q 226 588 278 614 q 139 514 174 563 l 79 586 q 194 677 126 646 q 346 708 263 708 q 547 644 476 708 q 618 461 618 581 l 618 135 q 635 0 618 81 l 532 0 q 514 97 519 32 l 511 97 q 415 15 472 43 q 289 -14 358 -14 m 307 79 q 404 99 360 79 q 474 154 449 119 q 500 231 500 189 l 500 333 l 353 333 q 218 299 265 333 q 171 200 171 264 q 208 112 171 144 q 307 79 244 79 m 150 769 q 181 871 150 832 q 263 910 213 910 q 308 901 288 910 q 365 872 328 893 q 431 844 408 844 q 460 861 450 844 q 474 915 471 878 l 546 915 q 513 809 544 849 q 429 769 481 769 q 379 780 403 769 q 322 810 356 790 q 265 835 282 835 q 235 817 247 835 q 222 769 224 800 l 150 769 z "},"æ":{"ha":1153,"x_min":56,"x_max":1103,"o":"m 1103 324 l 608 324 q 667 147 614 208 q 815 86 721 86 q 1010 185 936 86 l 1076 121 q 967 22 1036 57 q 811 -14 897 -14 q 557 106 642 -14 q 445 19 514 51 q 299 -14 376 -14 q 123 44 190 -14 q 56 194 56 101 q 129 352 56 296 q 336 408 203 408 l 492 408 l 492 454 q 452 573 492 532 q 336 614 413 614 q 222 588 274 614 q 138 514 171 563 l 79 586 q 192 677 125 646 q 342 708 260 708 q 480 681 421 708 q 571 604 539 654 q 808 708 657 708 q 1026 620 950 708 q 1103 368 1103 532 l 1103 324 m 988 415 q 940 563 988 513 q 803 613 893 613 q 673 560 722 613 q 611 408 624 507 l 988 408 l 988 415 m 492 324 l 347 324 q 217 290 264 324 q 169 194 169 256 q 206 111 169 143 q 304 79 243 79 q 399 99 356 79 q 467 154 442 119 q 492 231 492 189 l 492 324 z "},"ǽ":{"ha":1153,"x_min":56,"x_max":1103,"o":"m 1103 324 l 608 324 q 667 147 614 208 q 815 86 721 86 q 1010 185 936 86 l 1076 121 q 967 22 1036 57 q 811 -14 897 -14 q 557 106 642 -14 q 445 19 514 51 q 299 -14 376 -14 q 123 44 190 -14 q 56 194 56 101 q 129 352 56 296 q 336 408 203 408 l 492 408 l 492 454 q 452 573 492 532 q 336 614 413 614 q 222 588 274 614 q 138 514 171 563 l 79 586 q 192 677 125 646 q 342 708 260 708 q 480 681 421 708 q 571 604 539 654 q 808 708 657 708 q 1026 620 950 708 q 1103 368 1103 532 l 1103 324 m 988 415 q 940 563 988 513 q 803 613 893 613 q 673 560 722 613 q 611 408 624 507 l 988 408 l 988 415 m 492 324 l 347 324 q 217 290 264 324 q 169 194 169 256 q 206 111 169 143 q 304 79 243 79 q 399 99 356 79 q 467 154 442 119 q 492 231 492 189 l 492 324 m 644 972 l 765 972 l 631 769 l 536 769 l 644 972 z "},"b":{"ha":753,"x_min":82,"x_max":706,"o":"m 414 -14 q 288 20 349 -14 q 196 110 226 54 l 193 110 q 190 0 194 65 l 82 0 q 86 175 86 46 l 86 1031 l 204 1031 l 204 601 l 207 601 q 417 708 276 708 q 628 615 550 708 q 706 360 706 521 q 627 86 706 186 q 414 -14 549 -14 m 397 81 q 537 154 486 81 q 588 357 588 228 q 537 549 588 481 q 397 618 486 618 q 258 559 311 618 q 204 404 204 500 l 204 278 q 256 134 204 188 q 397 81 308 81 z "},"c":{"ha":657,"x_min":47,"x_max":633,"o":"m 372 -14 q 133 81 218 -14 q 47 347 47 176 q 133 613 47 518 q 372 708 218 708 q 527 674 460 708 q 633 576 594 640 l 563 513 q 483 587 532 560 q 376 614 433 614 q 222 544 278 614 q 165 347 165 474 q 222 151 165 222 q 376 81 278 81 q 483 108 433 81 q 563 182 532 135 l 633 118 q 527 20 594 54 q 372 -14 460 -14 z "},"ć":{"ha":657,"x_min":47,"x_max":633,"o":"m 372 -14 q 133 81 218 -14 q 47 347 47 176 q 133 613 47 518 q 372 708 218 708 q 527 674 460 708 q 633 576 594 640 l 563 513 q 483 587 532 560 q 376 614 433 614 q 222 544 278 614 q 165 347 165 474 q 222 151 165 222 q 376 81 278 81 q 483 108 433 81 q 563 182 532 135 l 633 118 q 527 20 594 54 q 372 -14 460 -14 m 443 972 l 564 972 l 429 769 l 335 769 l 443 972 z "},"č":{"ha":657,"x_min":47,"x_max":633,"o":"m 372 -14 q 133 81 218 -14 q 47 347 47 176 q 133 613 47 518 q 372 708 218 708 q 527 674 460 708 q 633 576 594 640 l 563 513 q 483 587 532 560 q 376 614 433 614 q 222 544 278 614 q 165 347 165 474 q 222 151 165 222 q 376 81 278 81 q 483 108 433 81 q 563 182 532 135 l 633 118 q 527 20 594 54 q 372 -14 460 -14 m 181 968 l 283 968 l 376 846 l 469 968 l 572 968 l 417 769 l 336 769 l 181 968 z "},"ç":{"ha":657,"x_min":47,"x_max":633,"o":"m 376 81 q 483 108 433 81 q 563 182 532 135 l 633 118 q 411 -12 563 3 l 372 -86 q 464 -112 429 -86 q 499 -185 499 -137 q 460 -274 499 -240 q 356 -307 422 -307 q 297 -302 328 -307 q 250 -289 267 -297 l 261 -235 q 339 -244 293 -244 q 394 -230 372 -244 q 415 -187 415 -215 q 388 -149 415 -162 q 308 -136 360 -135 l 281 -106 l 333 -12 q 122 94 197 0 q 47 347 47 188 q 133 613 47 518 q 372 708 218 708 q 527 674 460 708 q 633 576 594 640 l 563 513 q 483 587 532 560 q 376 614 433 614 q 222 544 278 614 q 165 347 165 474 q 222 151 165 222 q 376 81 278 81 z "},"ĉ":{"ha":657,"x_min":47,"x_max":633,"o":"m 372 -14 q 133 81 218 -14 q 47 347 47 176 q 133 613 47 518 q 372 708 218 708 q 527 674 460 708 q 633 576 594 640 l 563 513 q 483 587 532 560 q 376 614 433 614 q 222 544 278 614 q 165 347 165 474 q 222 151 165 222 q 376 81 278 81 q 483 108 433 81 q 563 182 532 135 l 633 118 q 527 20 594 54 q 372 -14 460 -14 m 336 968 l 417 968 l 572 769 l 469 769 l 376 892 l 283 769 l 181 769 l 336 968 z "},"ċ":{"ha":657,"x_min":47,"x_max":633,"o":"m 372 -14 q 133 81 218 -14 q 47 347 47 176 q 133 613 47 518 q 372 708 218 708 q 527 674 460 708 q 633 576 594 640 l 563 513 q 483 587 532 560 q 376 614 433 614 q 222 544 278 614 q 165 347 165 474 q 222 151 165 222 q 376 81 278 81 q 483 108 433 81 q 563 182 532 135 l 633 118 q 527 20 594 54 q 372 -14 460 -14 m 376 769 q 325 790 346 769 q 304 840 304 810 q 324 891 304 871 q 376 911 344 911 q 428 891 408 911 q 449 840 449 871 q 428 790 449 810 q 376 769 407 769 z "},"d":{"ha":753,"x_min":47,"x_max":671,"o":"m 339 -14 q 126 86 204 -14 q 47 360 47 186 q 83 544 47 465 q 186 665 119 622 q 342 708 253 708 q 547 601 469 708 l 550 601 l 550 1031 l 667 1031 l 667 175 q 671 0 667 46 l 563 0 q 560 110 560 33 l 557 110 q 465 20 525 54 q 339 -14 406 -14 m 356 81 q 497 134 444 81 q 549 278 549 188 l 549 404 q 496 560 549 501 q 356 618 443 618 q 216 549 267 618 q 165 357 165 481 q 216 154 165 228 q 356 81 267 81 z "},"ð":{"ha":692,"x_min":50,"x_max":642,"o":"m 432 822 q 586 612 531 735 q 642 351 642 489 q 604 158 642 240 q 498 31 567 75 q 338 -14 429 -14 q 188 25 253 -14 q 86 134 122 64 q 50 294 50 204 q 87 459 50 386 q 188 574 124 532 q 333 615 253 615 q 426 596 382 615 q 496 544 469 576 q 350 771 457 674 l 172 656 l 125 725 l 279 825 q 101 903 200 879 l 111 975 q 360 878 246 954 l 522 983 l 568 911 l 432 822 m 344 83 q 478 142 428 83 q 528 300 528 201 q 478 461 528 401 q 344 521 429 521 q 215 461 263 521 q 167 300 167 401 q 215 142 167 201 q 344 83 264 83 z "},"ď":{"ha":921,"x_min":47,"x_max":907,"o":"m 339 -14 q 126 86 204 -14 q 47 360 47 186 q 83 544 47 465 q 186 665 119 622 q 342 708 253 708 q 547 601 469 708 l 550 601 l 550 1031 l 667 1031 l 667 175 q 671 0 667 46 l 563 0 q 560 110 560 33 l 557 110 q 465 20 525 54 q 339 -14 406 -14 m 356 81 q 497 134 444 81 q 549 278 549 188 l 549 404 q 496 560 549 501 q 356 618 443 618 q 216 549 267 618 q 165 357 165 481 q 216 154 165 228 q 356 81 267 81 m 822 1060 q 885 1034 863 1060 q 907 968 907 1008 q 883 869 907 922 q 819 778 858 817 l 769 814 q 792 849 772 819 q 822 908 813 878 l 819 908 q 767 929 788 908 q 746 982 746 950 q 767 1038 746 1017 q 822 1060 788 1060 z "},"đ":{"ha":775,"x_min":47,"x_max":747,"o":"m 667 833 l 667 175 q 671 0 667 46 l 563 0 q 560 110 560 33 l 557 110 q 465 20 525 54 q 339 -14 406 -14 q 126 86 204 -14 q 47 360 47 186 q 83 544 47 465 q 186 665 119 622 q 342 708 253 708 q 547 601 469 708 l 550 601 l 550 833 l 350 833 l 350 914 l 550 914 l 550 1031 l 667 1031 l 667 914 l 747 914 l 747 833 l 667 833 m 549 404 q 496 560 549 501 q 356 618 443 618 q 216 549 267 618 q 165 357 165 481 q 216 154 165 228 q 356 81 267 81 q 497 134 444 81 q 549 278 549 188 l 549 404 z "},"ḍ":{"ha":753,"x_min":47,"x_max":671,"o":"m 339 -14 q 126 86 204 -14 q 47 360 47 186 q 83 544 47 465 q 186 665 119 622 q 342 708 253 708 q 547 601 469 708 l 550 601 l 550 1031 l 667 1031 l 667 175 q 671 0 667 46 l 563 0 q 560 110 560 33 l 557 110 q 465 20 525 54 q 339 -14 406 -14 m 356 81 q 497 134 444 81 q 549 278 549 188 l 549 404 q 496 560 549 501 q 356 618 443 618 q 216 549 267 618 q 165 357 165 481 q 216 154 165 228 q 356 81 267 81 m 382 -242 q 330 -222 350 -242 q 310 -171 310 -201 q 330 -120 310 -140 q 382 -100 350 -100 q 434 -120 414 -100 q 454 -171 454 -140 q 434 -222 454 -201 q 382 -242 414 -242 z "},"ḏ":{"ha":753,"x_min":47,"x_max":671,"o":"m 339 -14 q 126 86 204 -14 q 47 360 47 186 q 83 544 47 465 q 186 665 119 622 q 342 708 253 708 q 547 601 469 708 l 550 601 l 550 1031 l 667 1031 l 667 175 q 671 0 667 46 l 563 0 q 560 110 560 33 l 557 110 q 465 20 525 54 q 339 -14 406 -14 m 356 81 q 497 134 444 81 q 549 278 549 188 l 549 404 q 496 560 549 501 q 356 618 443 618 q 216 549 267 618 q 165 357 165 481 q 216 154 165 228 q 356 81 267 81 m 165 -89 l 599 -89 l 599 -171 l 165 -171 l 165 -89 z "},"e":{"ha":719,"x_min":50,"x_max":669,"o":"m 669 301 l 169 301 q 232 141 179 196 q 378 86 285 86 q 576 185 503 86 l 643 121 q 531 22 603 57 q 374 -14 460 -14 q 135 81 219 -14 q 50 346 50 175 q 135 612 50 515 q 371 708 221 708 q 590 613 511 708 q 669 347 669 518 l 669 301 m 561 399 q 509 556 561 499 q 365 613 457 613 q 228 554 279 613 q 169 389 178 496 l 561 389 l 561 399 z "},"é":{"ha":719,"x_min":50,"x_max":669,"o":"m 669 301 l 169 301 q 232 141 179 196 q 378 86 285 86 q 576 185 503 86 l 643 121 q 531 22 603 57 q 374 -14 460 -14 q 135 81 219 -14 q 50 346 50 175 q 135 612 50 515 q 371 708 221 708 q 590 613 511 708 q 669 347 669 518 l 669 301 m 561 399 q 509 556 561 499 q 365 613 457 613 q 228 554 279 613 q 169 389 178 496 l 561 389 l 561 399 m 436 972 l 557 972 l 422 769 l 328 769 l 436 972 z "},"ĕ":{"ha":719,"x_min":50,"x_max":669,"o":"m 669 301 l 169 301 q 232 141 179 196 q 378 86 285 86 q 576 185 503 86 l 643 121 q 531 22 603 57 q 374 -14 460 -14 q 135 81 219 -14 q 50 346 50 175 q 135 612 50 515 q 371 708 221 708 q 590 613 511 708 q 669 347 669 518 l 669 301 m 561 399 q 509 556 561 499 q 365 613 457 613 q 228 554 279 613 q 169 389 178 496 l 561 389 l 561 399 m 369 769 q 226 816 279 769 q 168 954 172 863 l 243 954 q 278 877 246 906 q 369 849 310 849 q 458 875 425 849 q 496 954 492 901 l 571 954 q 517 819 568 868 q 369 769 467 769 z "},"ě":{"ha":719,"x_min":50,"x_max":669,"o":"m 669 301 l 169 301 q 232 141 179 196 q 378 86 285 86 q 576 185 503 86 l 643 121 q 531 22 603 57 q 374 -14 460 -14 q 135 81 219 -14 q 50 346 50 175 q 135 612 50 515 q 371 708 221 708 q 590 613 511 708 q 669 347 669 518 l 669 301 m 561 399 q 509 556 561 499 q 365 613 457 613 q 228 554 279 613 q 169 389 178 496 l 561 389 l 561 399 m 174 968 l 276 968 l 369 846 l 463 968 l 565 968 l 410 769 l 329 769 l 174 968 z "},"ê":{"ha":719,"x_min":50,"x_max":669,"o":"m 669 301 l 169 301 q 232 141 179 196 q 378 86 285 86 q 576 185 503 86 l 643 121 q 531 22 603 57 q 374 -14 460 -14 q 135 81 219 -14 q 50 346 50 175 q 135 612 50 515 q 371 708 221 708 q 590 613 511 708 q 669 347 669 518 l 669 301 m 561 399 q 509 556 561 499 q 365 613 457 613 q 228 554 279 613 q 169 389 178 496 l 561 389 l 561 399 m 329 968 l 410 968 l 565 769 l 463 769 l 369 892 l 276 769 l 174 769 l 329 968 z "},"ế":{"ha":719,"x_min":50,"x_max":669,"o":"m 669 301 l 169 301 q 232 141 179 196 q 378 86 285 86 q 576 185 503 86 l 643 121 q 531 22 603 57 q 374 -14 460 -14 q 135 81 219 -14 q 50 346 50 175 q 135 612 50 515 q 371 708 221 708 q 590 613 511 708 q 669 347 669 518 l 669 301 m 561 399 q 509 556 561 499 q 365 613 457 613 q 228 554 279 613 q 169 389 178 496 l 561 389 l 561 399 m 560 1074 l 658 1074 l 571 931 l 494 931 l 560 1074 m 329 968 l 410 968 l 565 769 l 463 769 l 369 892 l 276 769 l 174 769 l 329 968 z "},"ệ":{"ha":719,"x_min":50,"x_max":669,"o":"m 669 301 l 169 301 q 232 141 179 196 q 378 86 285 86 q 576 185 503 86 l 643 121 q 531 22 603 57 q 374 -14 460 -14 q 135 81 219 -14 q 50 346 50 175 q 135 612 50 515 q 371 708 221 708 q 590 613 511 708 q 669 347 669 518 l 669 301 m 561 399 q 509 556 561 499 q 365 613 457 613 q 228 554 279 613 q 169 389 178 496 l 561 389 l 561 399 m 372 -242 q 320 -222 340 -242 q 300 -171 300 -201 q 320 -120 300 -140 q 372 -100 340 -100 q 424 -120 404 -100 q 444 -171 444 -140 q 424 -222 444 -201 q 372 -242 404 -242 m 329 968 l 410 968 l 565 769 l 463 769 l 369 892 l 276 769 l 174 769 l 329 968 z "},"ề":{"ha":719,"x_min":50,"x_max":669,"o":"m 669 301 l 169 301 q 232 141 179 196 q 378 86 285 86 q 576 185 503 86 l 643 121 q 531 22 603 57 q 374 -14 460 -14 q 135 81 219 -14 q 50 346 50 175 q 135 612 50 515 q 371 708 221 708 q 590 613 511 708 q 669 347 669 518 l 669 301 m 561 399 q 509 556 561 499 q 365 613 457 613 q 228 554 279 613 q 169 389 178 496 l 561 389 l 561 399 m 453 1074 l 551 1074 l 617 931 l 540 931 l 453 1074 m 329 968 l 410 968 l 565 769 l 463 769 l 369 892 l 276 769 l 174 769 l 329 968 z "},"ể":{"ha":719,"x_min":50,"x_max":686,"o":"m 669 301 l 169 301 q 232 141 179 196 q 378 86 285 86 q 576 185 503 86 l 643 121 q 531 22 603 57 q 374 -14 460 -14 q 135 81 219 -14 q 50 346 50 175 q 135 612 50 515 q 371 708 221 708 q 590 613 511 708 q 669 347 669 518 l 669 301 m 561 399 q 509 556 561 499 q 365 613 457 613 q 228 554 279 613 q 169 389 178 496 l 561 389 l 561 399 m 535 921 q 547 969 535 951 q 583 1006 560 986 q 610 1029 601 1018 q 619 1057 619 1040 q 608 1082 619 1072 q 575 1092 596 1092 q 535 1081 554 1092 q 504 1050 517 1071 l 463 1088 q 511 1133 479 1115 q 582 1150 543 1150 q 658 1126 629 1150 q 686 1060 686 1103 q 675 1017 686 1033 q 640 981 664 1001 q 611 952 621 965 q 601 921 601 939 l 535 921 m 329 968 l 410 968 l 565 769 l 463 769 l 369 892 l 276 769 l 174 769 l 329 968 z "},"ễ":{"ha":719,"x_min":50,"x_max":669,"o":"m 669 301 l 169 301 q 232 141 179 196 q 378 86 285 86 q 576 185 503 86 l 643 121 q 531 22 603 57 q 374 -14 460 -14 q 135 81 219 -14 q 50 346 50 175 q 135 612 50 515 q 371 708 221 708 q 590 613 511 708 q 669 347 669 518 l 669 301 m 561 399 q 509 556 561 499 q 365 613 457 613 q 228 554 279 613 q 169 389 178 496 l 561 389 l 561 399 m 440 1011 q 401 1020 419 1011 q 357 1046 382 1029 q 320 1067 333 1061 q 292 1074 307 1074 q 240 1018 256 1074 l 183 1018 q 222 1106 193 1074 q 297 1138 251 1138 q 338 1129 318 1138 q 385 1106 358 1121 q 424 1085 410 1092 q 453 1079 439 1079 q 504 1136 492 1079 l 560 1136 q 519 1044 550 1078 q 440 1011 488 1011 m 329 968 l 410 968 l 565 769 l 463 769 l 369 892 l 276 769 l 174 769 l 329 968 z "},"ë":{"ha":719,"x_min":50,"x_max":669,"o":"m 669 301 l 169 301 q 232 141 179 196 q 378 86 285 86 q 576 185 503 86 l 643 121 q 531 22 603 57 q 374 -14 460 -14 q 135 81 219 -14 q 50 346 50 175 q 135 612 50 515 q 371 708 221 708 q 590 613 511 708 q 669 347 669 518 l 669 301 m 561 399 q 509 556 561 499 q 365 613 457 613 q 228 554 279 613 q 169 389 178 496 l 561 389 l 561 399 m 231 769 q 179 790 200 769 q 158 840 158 810 q 178 891 158 871 q 231 911 199 911 q 282 891 261 911 q 303 840 303 871 q 282 790 303 810 q 231 769 261 769 m 508 769 q 457 790 478 769 q 436 840 436 810 q 457 891 436 871 q 508 911 478 911 q 560 891 540 911 q 581 840 581 871 q 560 790 581 810 q 508 769 539 769 z "},"ė":{"ha":719,"x_min":50,"x_max":669,"o":"m 669 301 l 169 301 q 232 141 179 196 q 378 86 285 86 q 576 185 503 86 l 643 121 q 531 22 603 57 q 374 -14 460 -14 q 135 81 219 -14 q 50 346 50 175 q 135 612 50 515 q 371 708 221 708 q 590 613 511 708 q 669 347 669 518 l 669 301 m 561 399 q 509 556 561 499 q 365 613 457 613 q 228 554 279 613 q 169 389 178 496 l 561 389 l 561 399 m 369 769 q 318 790 339 769 q 297 840 297 810 q 317 891 297 871 q 369 911 338 911 q 422 891 401 911 q 442 840 442 871 q 421 790 442 810 q 369 769 400 769 z "},"ẹ":{"ha":719,"x_min":50,"x_max":669,"o":"m 669 301 l 169 301 q 232 141 179 196 q 378 86 285 86 q 576 185 503 86 l 643 121 q 531 22 603 57 q 374 -14 460 -14 q 135 81 219 -14 q 50 346 50 175 q 135 612 50 515 q 371 708 221 708 q 590 613 511 708 q 669 347 669 518 l 669 301 m 561 399 q 509 556 561 499 q 365 613 457 613 q 228 554 279 613 q 169 389 178 496 l 561 389 l 561 399 m 372 -242 q 320 -222 340 -242 q 300 -171 300 -201 q 320 -120 300 -140 q 372 -100 340 -100 q 424 -120 404 -100 q 444 -171 444 -140 q 424 -222 444 -201 q 372 -242 404 -242 z "},"è":{"ha":719,"x_min":50,"x_max":669,"o":"m 669 301 l 169 301 q 232 141 179 196 q 378 86 285 86 q 576 185 503 86 l 643 121 q 531 22 603 57 q 374 -14 460 -14 q 135 81 219 -14 q 50 346 50 175 q 135 612 50 515 q 371 708 221 708 q 590 613 511 708 q 669 347 669 518 l 669 301 m 561 399 q 509 556 561 499 q 365 613 457 613 q 228 554 279 613 q 169 389 178 496 l 561 389 l 561 399 m 188 972 l 308 972 l 417 769 l 322 769 l 188 972 z "},"ẻ":{"ha":719,"x_min":50,"x_max":669,"o":"m 669 301 l 169 301 q 232 141 179 196 q 378 86 285 86 q 576 185 503 86 l 643 121 q 531 22 603 57 q 374 -14 460 -14 q 135 81 219 -14 q 50 346 50 175 q 135 612 50 515 q 371 708 221 708 q 590 613 511 708 q 669 347 669 518 l 669 301 m 561 399 q 509 556 561 499 q 365 613 457 613 q 228 554 279 613 q 169 389 178 496 l 561 389 l 561 399 m 322 769 q 337 826 322 804 q 378 871 351 847 q 412 909 401 894 q 422 946 422 924 q 365 990 422 990 q 278 928 311 990 l 225 975 q 285 1038 246 1015 q 375 1061 324 1061 q 474 1033 438 1061 q 511 950 511 1004 q 497 893 511 917 q 454 840 482 869 q 422 803 432 818 q 411 769 411 788 l 322 769 z "},"ē":{"ha":719,"x_min":50,"x_max":669,"o":"m 669 301 l 169 301 q 232 141 179 196 q 378 86 285 86 q 576 185 503 86 l 643 121 q 531 22 603 57 q 374 -14 460 -14 q 135 81 219 -14 q 50 346 50 175 q 135 612 50 515 q 371 708 221 708 q 590 613 511 708 q 669 347 669 518 l 669 301 m 561 399 q 509 556 561 499 q 365 613 457 613 q 228 554 279 613 q 169 389 178 496 l 561 389 l 561 399 m 153 865 l 586 865 l 586 783 l 153 783 l 153 865 z "},"ę":{"ha":719,"x_min":50,"x_max":669,"o":"m 669 301 l 169 301 q 232 141 179 196 q 378 86 285 86 q 576 185 503 86 l 643 121 q 557 36 611 71 q 486 -83 486 -25 q 508 -132 486 -114 q 574 -150 529 -150 q 646 -133 604 -150 l 661 -183 q 605 -214 638 -203 q 536 -225 572 -225 q 437 -194 474 -225 q 400 -100 400 -162 q 428 -10 400 -50 q 374 -14 401 -14 q 135 81 219 -14 q 50 346 50 175 q 135 612 50 515 q 371 708 221 708 q 590 613 511 708 q 669 347 669 518 l 669 301 m 561 399 q 509 556 561 499 q 365 613 457 613 q 228 554 279 613 q 169 389 178 496 l 561 389 l 561 399 z "},"ẽ":{"ha":719,"x_min":50,"x_max":669,"o":"m 669 301 l 169 301 q 232 141 179 196 q 378 86 285 86 q 576 185 503 86 l 643 121 q 531 22 603 57 q 374 -14 460 -14 q 135 81 219 -14 q 50 346 50 175 q 135 612 50 515 q 371 708 221 708 q 590 613 511 708 q 669 347 669 518 l 669 301 m 561 399 q 509 556 561 499 q 365 613 457 613 q 228 554 279 613 q 169 389 178 496 l 561 389 l 561 399 m 167 769 q 198 871 167 832 q 279 910 229 910 q 324 901 304 910 q 382 872 344 893 q 447 844 425 844 q 477 861 467 844 q 490 915 488 878 l 563 915 q 529 809 561 849 q 446 769 497 769 q 396 780 419 769 q 339 810 372 790 q 282 835 299 835 q 252 817 264 835 q 239 769 240 800 l 167 769 z "},"ə":{"ha":719,"x_min":50,"x_max":669,"o":"m 346 708 q 585 614 500 708 q 669 349 669 519 q 584 83 669 179 q 349 -14 499 -14 q 129 81 208 -14 q 50 347 50 176 l 50 393 l 550 393 q 488 553 540 499 q 342 608 435 608 q 143 510 217 608 l 76 574 q 188 673 117 638 q 346 708 260 708 m 354 82 q 491 140 440 82 q 550 306 542 199 l 158 306 l 158 296 q 210 139 158 196 q 354 82 263 82 z "},"f":{"ha":460,"x_min":11,"x_max":483,"o":"m 126 608 l 11 608 l 11 694 l 126 694 l 126 782 q 185 938 126 881 q 346 996 244 996 q 424 983 388 996 q 483 947 461 969 l 440 874 q 353 904 406 904 q 274 871 303 904 q 244 779 244 838 l 244 694 l 443 694 l 443 608 l 244 608 l 244 0 l 126 0 l 126 608 z "},"g":{"ha":751,"x_min":47,"x_max":667,"o":"m 667 694 l 667 22 q 585 -231 667 -144 q 344 -317 503 -317 q 209 -300 275 -317 q 90 -253 143 -283 l 129 -167 q 340 -217 233 -217 q 557 40 557 -217 l 557 104 q 472 21 529 51 q 343 -10 415 -10 q 126 89 206 -10 q 47 358 47 188 q 125 615 47 522 q 339 708 203 708 q 466 679 411 708 q 553 594 521 650 l 556 594 l 569 694 l 667 694 m 549 393 q 499 558 549 499 q 360 618 449 618 q 217 548 269 618 q 165 356 165 478 q 217 156 165 228 q 360 85 268 85 q 499 138 449 85 q 549 288 549 192 l 549 393 z "},"ğ":{"ha":751,"x_min":47,"x_max":667,"o":"m 667 694 l 667 22 q 585 -231 667 -144 q 344 -317 503 -317 q 209 -300 275 -317 q 90 -253 143 -283 l 129 -167 q 340 -217 233 -217 q 557 40 557 -217 l 557 104 q 472 21 529 51 q 343 -10 415 -10 q 126 89 206 -10 q 47 358 47 188 q 125 615 47 522 q 339 708 203 708 q 466 679 411 708 q 553 594 521 650 l 556 594 l 569 694 l 667 694 m 549 393 q 499 558 549 499 q 360 618 449 618 q 217 548 269 618 q 165 356 165 478 q 217 156 165 228 q 360 85 268 85 q 499 138 449 85 q 549 288 549 192 l 549 393 m 354 769 q 210 816 264 769 q 153 954 157 863 l 228 954 q 263 877 231 906 q 354 849 294 849 q 443 875 410 849 q 481 954 476 901 l 556 954 q 502 819 553 868 q 354 769 451 769 z "},"ǧ":{"ha":751,"x_min":47,"x_max":667,"o":"m 667 694 l 667 22 q 585 -231 667 -144 q 344 -317 503 -317 q 209 -300 275 -317 q 90 -253 143 -283 l 129 -167 q 340 -217 233 -217 q 557 40 557 -217 l 557 104 q 472 21 529 51 q 343 -10 415 -10 q 126 89 206 -10 q 47 358 47 188 q 125 615 47 522 q 339 708 203 708 q 466 679 411 708 q 553 594 521 650 l 556 594 l 569 694 l 667 694 m 549 393 q 499 558 549 499 q 360 618 449 618 q 217 548 269 618 q 165 356 165 478 q 217 156 165 228 q 360 85 268 85 q 499 138 449 85 q 549 288 549 192 l 549 393 m 158 968 l 261 968 l 354 846 l 447 968 l 550 968 l 394 769 l 314 769 l 158 968 z "},"ĝ":{"ha":751,"x_min":47,"x_max":667,"o":"m 667 694 l 667 22 q 585 -231 667 -144 q 344 -317 503 -317 q 209 -300 275 -317 q 90 -253 143 -283 l 129 -167 q 340 -217 233 -217 q 557 40 557 -217 l 557 104 q 472 21 529 51 q 343 -10 415 -10 q 126 89 206 -10 q 47 358 47 188 q 125 615 47 522 q 339 708 203 708 q 466 679 411 708 q 553 594 521 650 l 556 594 l 569 694 l 667 694 m 549 393 q 499 558 549 499 q 360 618 449 618 q 217 548 269 618 q 165 356 165 478 q 217 156 165 228 q 360 85 268 85 q 499 138 449 85 q 549 288 549 192 l 549 393 m 314 968 l 394 968 l 550 769 l 447 769 l 354 892 l 261 769 l 158 769 l 314 968 z "},"ģ":{"ha":751,"x_min":47,"x_max":667,"o":"m 667 694 l 667 22 q 585 -231 667 -144 q 344 -317 503 -317 q 209 -300 275 -317 q 90 -253 143 -283 l 129 -167 q 340 -217 233 -217 q 557 40 557 -217 l 557 104 q 472 21 529 51 q 343 -10 415 -10 q 126 89 206 -10 q 47 358 47 188 q 125 615 47 522 q 339 708 203 708 q 466 679 411 708 q 553 594 521 650 l 556 594 l 569 694 l 667 694 m 549 393 q 499 558 549 499 q 360 618 449 618 q 217 548 269 618 q 165 356 165 478 q 217 156 165 228 q 360 85 268 85 q 499 138 449 85 q 549 288 549 192 l 549 393 m 361 921 q 413 900 393 921 q 433 847 433 879 q 413 791 433 813 q 358 769 393 769 q 295 795 318 769 q 272 861 272 821 q 297 959 272 907 q 361 1051 321 1011 l 411 1015 q 357 921 371 958 l 361 921 z "},"ġ":{"ha":751,"x_min":47,"x_max":667,"o":"m 667 694 l 667 22 q 585 -231 667 -144 q 344 -317 503 -317 q 209 -300 275 -317 q 90 -253 143 -283 l 129 -167 q 340 -217 233 -217 q 557 40 557 -217 l 557 104 q 472 21 529 51 q 343 -10 415 -10 q 126 89 206 -10 q 47 358 47 188 q 125 615 47 522 q 339 708 203 708 q 466 679 411 708 q 553 594 521 650 l 556 594 l 569 694 l 667 694 m 549 393 q 499 558 549 499 q 360 618 449 618 q 217 548 269 618 q 165 356 165 478 q 217 156 165 228 q 360 85 268 85 q 499 138 449 85 q 549 288 549 192 l 549 393 m 354 769 q 303 790 324 769 q 282 840 282 810 q 302 891 282 871 q 354 911 322 911 q 406 891 386 911 q 426 840 426 871 q 406 790 426 810 q 354 769 385 769 z "},"ḡ":{"ha":751,"x_min":47,"x_max":667,"o":"m 667 694 l 667 22 q 585 -231 667 -144 q 344 -317 503 -317 q 209 -300 275 -317 q 90 -253 143 -283 l 129 -167 q 340 -217 233 -217 q 557 40 557 -217 l 557 104 q 472 21 529 51 q 343 -10 415 -10 q 126 89 206 -10 q 47 358 47 188 q 125 615 47 522 q 339 708 203 708 q 466 679 411 708 q 553 594 521 650 l 556 594 l 569 694 l 667 694 m 549 393 q 499 558 549 499 q 360 618 449 618 q 217 548 269 618 q 165 356 165 478 q 217 156 165 228 q 360 85 268 85 q 499 138 449 85 q 549 288 549 192 l 549 393 m 138 865 l 571 865 l 571 783 l 138 783 l 138 865 z "},"h":{"ha":775,"x_min":85,"x_max":690,"o":"m 85 1031 l 203 1031 l 203 586 q 297 676 235 643 q 435 708 358 708 q 624 627 557 708 q 690 397 690 546 l 690 0 l 572 0 l 572 399 q 531 562 572 506 q 414 618 490 618 q 306 588 354 618 q 230 502 257 557 q 203 379 203 447 l 203 0 l 85 0 l 85 1031 z "},"ħ":{"ha":775,"x_min":6,"x_max":690,"o":"m 435 708 q 624 627 557 708 q 690 397 690 546 l 690 0 l 572 0 l 572 399 q 531 562 572 506 q 414 618 490 618 q 306 588 354 618 q 230 502 257 557 q 203 379 203 447 l 203 0 l 85 0 l 85 833 l 6 833 l 6 914 l 85 914 l 85 1031 l 203 1031 l 203 914 l 394 914 l 394 833 l 203 833 l 203 586 q 297 676 235 643 q 435 708 358 708 z "},"ḫ":{"ha":775,"x_min":85,"x_max":690,"o":"m 85 1031 l 203 1031 l 203 586 q 297 676 235 643 q 435 708 358 708 q 624 627 557 708 q 690 397 690 546 l 690 0 l 572 0 l 572 399 q 531 562 572 506 q 414 618 490 618 q 306 588 354 618 q 230 502 257 557 q 203 379 203 447 l 203 0 l 85 0 l 85 1031 m 388 -283 q 244 -237 297 -283 q 186 -100 190 -192 l 261 -100 q 296 -177 264 -149 q 388 -206 328 -206 q 476 -179 443 -206 q 514 -100 510 -153 l 589 -100 q 535 -235 586 -186 q 388 -283 485 -283 z "},"ĥ":{"ha":775,"x_min":85,"x_max":690,"o":"m 85 1031 l 203 1031 l 203 586 q 297 676 235 643 q 435 708 358 708 q 624 627 557 708 q 690 397 690 546 l 690 0 l 572 0 l 572 399 q 531 562 572 506 q 414 618 490 618 q 306 588 354 618 q 230 502 257 557 q 203 379 203 447 l 203 0 l 85 0 l 85 1031 m 242 1304 l 322 1304 l 478 1106 l 375 1106 l 282 1228 l 189 1106 l 86 1106 l 242 1304 z "},"ḥ":{"ha":775,"x_min":85,"x_max":690,"o":"m 85 1031 l 203 1031 l 203 586 q 297 676 235 643 q 435 708 358 708 q 624 627 557 708 q 690 397 690 546 l 690 0 l 572 0 l 572 399 q 531 562 572 506 q 414 618 490 618 q 306 588 354 618 q 230 502 257 557 q 203 379 203 447 l 203 0 l 85 0 l 85 1031 m 388 -242 q 335 -222 356 -242 q 315 -171 315 -201 q 335 -120 315 -140 q 388 -100 356 -100 q 440 -120 419 -100 q 460 -171 460 -140 q 440 -222 460 -201 q 388 -242 419 -242 z "},"i":{"ha":340,"x_min":86,"x_max":254,"o":"m 169 815 q 108 836 131 815 q 86 893 86 857 q 108 951 86 929 q 169 972 131 972 q 231 951 208 972 q 254 893 254 929 q 231 836 254 857 q 169 815 208 815 m 111 694 l 229 694 l 229 0 l 111 0 l 111 694 z "},"ı":{"ha":351,"x_min":117,"x_max":235,"o":"m 117 694 l 235 694 l 235 0 l 117 0 l 117 694 z "},"í":{"ha":351,"x_min":117,"x_max":363,"o":"m 117 694 l 235 694 l 235 0 l 117 0 l 117 694 m 242 972 l 363 972 l 228 769 l 133 769 l 242 972 z "},"ĭ":{"ha":351,"x_min":-26,"x_max":376,"o":"m 117 694 l 235 694 l 235 0 l 117 0 l 117 694 m 175 769 q 31 816 85 769 q -26 954 -22 863 l 49 954 q 83 877 51 906 q 175 849 115 849 q 264 875 231 849 q 301 954 297 901 l 376 954 q 323 819 374 868 q 175 769 272 769 z "},"ǐ":{"ha":351,"x_min":-21,"x_max":371,"o":"m 117 694 l 235 694 l 235 0 l 117 0 l 117 694 m -21 968 l 82 968 l 175 846 l 268 968 l 371 968 l 215 769 l 135 769 l -21 968 z "},"î":{"ha":351,"x_min":-21,"x_max":371,"o":"m 117 694 l 235 694 l 235 0 l 117 0 l 117 694 m 135 968 l 215 968 l 371 769 l 268 769 l 175 892 l 82 769 l -21 769 l 135 968 z "},"ï":{"ha":351,"x_min":-36,"x_max":386,"o":"m 117 694 l 235 694 l 235 0 l 117 0 l 117 694 m 36 769 q -15 790 6 769 q -36 840 -36 810 q -16 891 -36 871 q 36 911 4 911 q 88 891 67 911 q 108 840 108 871 q 88 790 108 810 q 36 769 67 769 m 314 769 q 263 790 283 769 q 242 840 242 810 q 263 891 242 871 q 314 911 283 911 q 366 891 346 911 q 386 840 386 871 q 365 790 386 810 q 314 769 344 769 z "},"ị":{"ha":340,"x_min":86,"x_max":254,"o":"m 169 815 q 108 836 131 815 q 86 893 86 857 q 108 951 86 929 q 169 972 131 972 q 231 951 208 972 q 254 893 254 929 q 231 836 254 857 q 169 815 208 815 m 111 694 l 229 694 l 229 0 l 111 0 l 111 694 m 169 -242 q 117 -222 138 -242 q 97 -171 97 -201 q 117 -120 97 -140 q 169 -100 138 -100 q 222 -120 201 -100 q 242 -171 242 -140 q 222 -222 242 -201 q 169 -242 201 -242 z "},"ì":{"ha":351,"x_min":-7,"x_max":235,"o":"m 117 694 l 235 694 l 235 0 l 117 0 l 117 694 m -7 972 l 114 972 l 222 769 l 128 769 l -7 972 z "},"ỉ":{"ha":351,"x_min":31,"x_max":317,"o":"m 117 694 l 235 694 l 235 0 l 117 0 l 117 694 m 128 769 q 142 826 128 804 q 183 871 157 847 q 217 909 207 894 q 228 946 228 924 q 171 990 228 990 q 83 928 117 990 l 31 975 q 90 1038 51 1015 q 181 1061 129 1061 q 280 1033 243 1061 q 317 950 317 1004 q 302 893 317 917 q 260 840 288 869 q 227 803 238 818 q 217 769 217 788 l 128 769 z "},"ĳ":{"ha":683,"x_min":86,"x_max":607,"o":"m 169 815 q 108 836 131 815 q 86 893 86 857 q 108 951 86 929 q 169 972 131 972 q 231 951 208 972 q 254 893 254 929 q 231 836 254 857 q 169 815 208 815 m 111 694 l 229 694 l 229 0 l 111 0 l 111 694 m 524 815 q 462 837 485 815 q 439 893 439 858 q 462 951 439 929 q 524 972 485 972 q 584 951 561 972 q 607 893 607 929 q 584 837 607 858 q 524 815 561 815 m 363 -264 q 274 -254 318 -264 l 278 -167 q 333 -169 300 -169 q 438 -128 407 -169 q 468 3 468 -86 l 468 694 l 586 694 l 586 -1 q 532 -197 586 -131 q 363 -264 478 -264 z "},"ī":{"ha":351,"x_min":-42,"x_max":392,"o":"m 117 694 l 235 694 l 235 0 l 117 0 l 117 694 m -42 865 l 392 865 l 392 783 l -42 783 l -42 865 z "},"į":{"ha":340,"x_min":14,"x_max":275,"o":"m 169 815 q 108 836 131 815 q 86 893 86 857 q 108 951 86 929 q 169 972 131 972 q 231 951 208 972 q 254 893 254 929 q 231 836 254 857 q 169 815 208 815 m 275 -251 q 219 -282 251 -271 q 150 -293 186 -293 q 51 -262 88 -293 q 14 -168 14 -231 q 132 0 14 -65 l 111 0 l 111 694 l 229 694 l 229 0 l 213 0 q 100 -151 100 -78 q 122 -200 100 -182 q 188 -218 143 -218 q 260 -201 218 -218 l 275 -251 z "},"ĩ":{"ha":351,"x_min":-28,"x_max":368,"o":"m 117 694 l 235 694 l 235 0 l 117 0 l 117 694 m -28 769 q 3 871 -28 832 q 85 910 35 910 q 130 901 110 910 q 188 872 150 893 q 253 844 231 844 q 283 861 272 844 q 296 915 293 878 l 368 915 q 335 809 367 849 q 251 769 303 769 q 201 780 225 769 q 144 810 178 790 q 88 835 104 835 q 58 817 69 835 q 44 769 46 800 l -28 769 z "},"j":{"ha":343,"x_min":-67,"x_max":267,"o":"m 183 815 q 122 837 144 815 q 99 893 99 858 q 122 951 99 929 q 183 972 144 972 q 244 951 221 972 q 267 893 267 929 q 244 837 267 858 q 183 815 221 815 m 22 -264 q -67 -254 -22 -264 l -62 -167 q -7 -169 -40 -169 q 97 -128 67 -169 q 128 3 128 -86 l 128 694 l 246 694 l 246 -1 q 192 -197 246 -131 q 22 -264 138 -264 z "},"ȷ":{"ha":343,"x_min":-67,"x_max":239,"o":"m 21 -264 q -67 -254 -22 -264 l -62 -167 q -7 -169 -40 -169 q 92 -128 63 -169 q 121 3 121 -86 l 121 694 l 239 694 l 239 -1 q 186 -197 239 -131 q 21 -264 133 -264 z "},"ĵ":{"ha":343,"x_min":-67,"x_max":375,"o":"m 21 -264 q -67 -254 -22 -264 l -62 -167 q -7 -169 -40 -169 q 92 -128 63 -169 q 121 3 121 -86 l 121 694 l 239 694 l 239 -1 q 186 -197 239 -131 q 21 -264 133 -264 m 139 968 l 219 968 l 375 769 l 272 769 l 179 892 l 86 769 l -17 769 l 139 968 z "},"k":{"ha":676,"x_min":85,"x_max":668,"o":"m 533 0 l 304 349 l 203 247 l 203 0 l 85 0 l 85 1031 l 203 1031 l 203 389 l 507 694 l 649 694 l 383 428 l 668 0 l 533 0 z "},"ķ":{"ha":676,"x_min":85,"x_max":668,"o":"m 533 0 l 304 349 l 203 247 l 203 0 l 85 0 l 85 1031 l 203 1031 l 203 389 l 507 694 l 649 694 l 383 428 l 668 0 l 533 0 m 339 -100 q 401 -126 379 -100 q 424 -192 424 -151 q 399 -290 424 -237 q 336 -382 375 -343 l 286 -346 q 309 -312 289 -342 q 339 -250 329 -282 l 336 -250 q 283 -230 304 -250 q 263 -176 263 -210 q 283 -122 263 -143 q 339 -100 304 -100 z "},"ĸ":{"ha":676,"x_min":85,"x_max":668,"o":"m 533 0 l 314 343 l 203 225 l 203 0 l 85 0 l 85 694 l 203 694 l 203 368 l 507 694 l 649 694 l 392 425 l 668 0 l 533 0 z "},"l":{"ha":404,"x_min":97,"x_max":374,"o":"m 247 -14 q 97 163 97 -14 l 97 1031 l 215 1031 l 215 164 q 231 95 215 115 q 286 75 247 75 q 356 92 317 75 l 374 21 q 247 -14 321 -14 z "},"ĺ":{"ha":404,"x_min":97,"x_max":374,"o":"m 247 -14 q 97 163 97 -14 l 97 1031 l 215 1031 l 215 164 q 231 95 215 115 q 286 75 247 75 q 356 92 317 75 l 374 21 q 247 -14 321 -14 m 224 1308 l 344 1308 l 210 1106 l 115 1106 l 224 1308 z "},"ľ":{"ha":461,"x_min":97,"x_max":468,"o":"m 247 -14 q 97 163 97 -14 l 97 1031 l 215 1031 l 215 164 q 231 95 215 115 q 286 75 247 75 q 356 92 317 75 l 374 21 q 247 -14 321 -14 m 383 1033 q 446 1008 424 1033 q 468 942 468 982 q 444 843 468 896 q 381 751 419 790 l 331 788 q 353 822 333 793 q 383 882 374 851 l 381 882 q 328 903 349 882 q 307 956 307 924 q 328 1012 307 990 q 383 1033 349 1033 z "},"ļ":{"ha":404,"x_min":97,"x_max":374,"o":"m 247 -14 q 97 163 97 -14 l 97 1031 l 215 1031 l 215 164 q 231 95 215 115 q 286 75 247 75 q 356 92 317 75 l 374 21 q 247 -14 321 -14 m 244 -100 q 307 -126 285 -100 q 329 -192 329 -151 q 305 -290 329 -237 q 242 -382 281 -343 l 192 -346 q 215 -312 194 -342 q 244 -250 235 -282 l 242 -250 q 189 -230 210 -250 q 168 -176 168 -210 q 189 -122 168 -143 q 244 -100 210 -100 z "},"ŀ":{"ha":467,"x_min":97,"x_max":460,"o":"m 247 -14 q 97 163 97 -14 l 97 1031 l 215 1031 l 215 164 q 231 95 215 115 q 286 75 247 75 q 356 92 317 75 l 374 21 q 247 -14 321 -14 m 374 368 q 312 394 336 368 q 288 458 288 419 q 312 524 288 499 q 374 550 336 550 q 435 524 411 550 q 460 458 460 499 q 435 394 460 419 q 374 368 411 368 z "},"ḷ":{"ha":404,"x_min":97,"x_max":374,"o":"m 247 -14 q 97 163 97 -14 l 97 1031 l 215 1031 l 215 164 q 231 95 215 115 q 286 75 247 75 q 356 92 317 75 l 374 21 q 247 -14 321 -14 m 244 -242 q 192 -222 213 -242 q 172 -171 172 -201 q 192 -120 172 -140 q 244 -100 213 -100 q 297 -120 276 -100 q 317 -171 317 -140 q 297 -222 317 -201 q 244 -242 276 -242 z "},"ḹ":{"ha":404,"x_min":-60,"x_max":374,"o":"m 247 -14 q 97 163 97 -14 l 97 1031 l 215 1031 l 215 164 q 231 95 215 115 q 286 75 247 75 q 356 92 317 75 l 374 21 q 247 -14 321 -14 m 244 -242 q 192 -222 213 -242 q 172 -171 172 -201 q 192 -120 172 -140 q 244 -100 213 -100 q 297 -120 276 -100 q 317 -171 317 -140 q 297 -222 317 -201 q 244 -242 276 -242 m -60 1201 l 374 1201 l 374 1119 l -60 1119 l -60 1201 z "},"ḻ":{"ha":404,"x_min":28,"x_max":461,"o":"m 247 -14 q 97 163 97 -14 l 97 1031 l 215 1031 l 215 164 q 231 95 215 115 q 286 75 247 75 q 356 92 317 75 l 374 21 q 247 -14 321 -14 m 28 -89 l 461 -89 l 461 -171 l 28 -171 l 28 -89 z "},"ł":{"ha":404,"x_min":26,"x_max":374,"o":"m 374 21 q 247 -14 321 -14 q 97 163 97 -14 l 97 463 l 26 432 l 26 524 l 97 554 l 97 1031 l 215 1031 l 215 604 l 357 665 l 357 572 l 215 513 l 215 164 q 231 95 215 115 q 286 75 247 75 q 356 92 317 75 l 374 21 z "},"m":{"ha":1165,"x_min":78,"x_max":1078,"o":"m 85 519 q 78 694 85 625 l 183 694 q 189 571 189 639 l 193 571 q 281 672 221 635 q 414 708 340 708 q 540 671 488 708 q 611 567 593 633 q 700 670 640 632 q 835 708 760 708 q 1013 635 949 708 q 1078 429 1078 561 l 1078 0 l 961 0 l 961 419 q 922 564 961 514 q 807 614 882 614 q 686 559 733 614 q 639 418 639 504 l 639 0 l 522 0 l 522 414 q 486 565 522 515 q 376 614 450 614 q 290 586 331 614 q 226 513 250 558 q 201 414 201 467 l 201 0 l 85 0 l 85 519 z "},"ṃ":{"ha":1165,"x_min":78,"x_max":1078,"o":"m 85 519 q 78 694 85 625 l 183 694 q 189 571 189 639 l 193 571 q 281 672 221 635 q 414 708 340 708 q 540 671 488 708 q 611 567 593 633 q 700 670 640 632 q 835 708 760 708 q 1013 635 949 708 q 1078 429 1078 561 l 1078 0 l 961 0 l 961 419 q 922 564 961 514 q 807 614 882 614 q 686 559 733 614 q 639 418 639 504 l 639 0 l 522 0 l 522 414 q 486 565 522 515 q 376 614 450 614 q 290 586 331 614 q 226 513 250 558 q 201 414 201 467 l 201 0 l 85 0 l 85 519 m 581 -242 q 528 -222 549 -242 q 508 -171 508 -201 q 528 -120 508 -140 q 581 -100 549 -100 q 633 -120 613 -100 q 653 -171 653 -140 q 633 -222 653 -201 q 581 -242 613 -242 z "},"n":{"ha":763,"x_min":78,"x_max":676,"o":"m 83 519 q 78 694 83 651 l 188 694 q 193 571 193 649 l 197 571 q 291 672 228 635 q 432 708 354 708 q 615 629 554 708 q 676 393 676 550 l 676 0 l 558 0 l 558 394 q 521 560 558 506 q 407 614 483 614 q 301 584 349 614 q 228 501 254 554 q 201 381 201 447 l 201 0 l 83 0 l 83 519 z "},"ń":{"ha":763,"x_min":78,"x_max":676,"o":"m 83 519 q 78 694 83 651 l 188 694 q 193 571 193 649 l 197 571 q 291 672 228 635 q 432 708 354 708 q 615 629 554 708 q 676 393 676 550 l 676 0 l 558 0 l 558 394 q 521 560 558 506 q 407 614 483 614 q 301 584 349 614 q 228 501 254 554 q 201 381 201 447 l 201 0 l 83 0 l 83 519 m 447 972 l 568 972 l 433 769 l 339 769 l 447 972 z "},"ŉ":{"ha":876,"x_min":13,"x_max":790,"o":"m 89 986 q 151 960 129 986 q 174 894 174 935 q 149 796 174 849 q 86 704 125 743 l 36 740 q 59 775 39 746 q 89 835 79 804 l 86 835 q 33 856 54 835 q 13 908 13 876 q 33 965 13 943 q 89 986 54 986 m 197 519 q 192 694 197 651 l 301 694 q 307 571 307 649 l 311 571 q 405 672 342 635 q 546 708 468 708 q 729 629 668 708 q 790 393 790 550 l 790 0 l 672 0 l 672 394 q 635 560 672 506 q 521 614 597 614 q 415 584 463 614 q 342 501 368 554 q 315 381 315 447 l 315 0 l 197 0 l 197 519 z "},"ň":{"ha":763,"x_min":78,"x_max":676,"o":"m 83 519 q 78 694 83 651 l 188 694 q 193 571 193 649 l 197 571 q 291 672 228 635 q 432 708 354 708 q 615 629 554 708 q 676 393 676 550 l 676 0 l 558 0 l 558 394 q 521 560 558 506 q 407 614 483 614 q 301 584 349 614 q 228 501 254 554 q 201 381 201 447 l 201 0 l 83 0 l 83 519 m 185 968 l 288 968 l 381 846 l 474 968 l 576 968 l 421 769 l 340 769 l 185 968 z "},"ņ":{"ha":763,"x_min":78,"x_max":676,"o":"m 83 519 q 78 694 83 651 l 188 694 q 193 571 193 649 l 197 571 q 291 672 228 635 q 432 708 354 708 q 615 629 554 708 q 676 393 676 550 l 676 0 l 558 0 l 558 394 q 521 560 558 506 q 407 614 483 614 q 301 584 349 614 q 228 501 254 554 q 201 381 201 447 l 201 0 l 83 0 l 83 519 m 381 -100 q 443 -126 421 -100 q 465 -192 465 -151 q 441 -290 465 -237 q 378 -382 417 -343 l 328 -346 q 351 -312 331 -342 q 381 -250 371 -282 l 378 -250 q 325 -230 346 -250 q 304 -176 304 -210 q 325 -122 304 -143 q 381 -100 346 -100 z "},"ṅ":{"ha":763,"x_min":78,"x_max":676,"o":"m 83 519 q 78 694 83 651 l 188 694 q 193 571 193 649 l 197 571 q 291 672 228 635 q 432 708 354 708 q 615 629 554 708 q 676 393 676 550 l 676 0 l 558 0 l 558 394 q 521 560 558 506 q 407 614 483 614 q 301 584 349 614 q 228 501 254 554 q 201 381 201 447 l 201 0 l 83 0 l 83 519 m 381 769 q 329 790 350 769 q 308 840 308 810 q 328 891 308 871 q 381 911 349 911 q 433 891 413 911 q 453 840 453 871 q 432 790 453 810 q 381 769 411 769 z "},"ṇ":{"ha":763,"x_min":78,"x_max":676,"o":"m 83 519 q 78 694 83 651 l 188 694 q 193 571 193 649 l 197 571 q 291 672 228 635 q 432 708 354 708 q 615 629 554 708 q 676 393 676 550 l 676 0 l 558 0 l 558 394 q 521 560 558 506 q 407 614 483 614 q 301 584 349 614 q 228 501 254 554 q 201 381 201 447 l 201 0 l 83 0 l 83 519 m 381 -242 q 328 -222 349 -242 q 308 -171 308 -201 q 328 -120 308 -140 q 381 -100 349 -100 q 433 -120 413 -100 q 453 -171 453 -140 q 433 -222 453 -201 q 381 -242 413 -242 z "},"ŋ":{"ha":763,"x_min":78,"x_max":676,"o":"m 460 -264 q 371 -256 408 -264 l 375 -167 q 431 -169 392 -169 q 528 -130 499 -169 q 558 1 558 -90 l 558 394 q 521 560 558 506 q 407 614 483 614 q 301 584 349 614 q 228 501 254 554 q 201 381 201 447 l 201 0 l 83 0 l 83 519 q 78 694 83 651 l 188 694 q 193 571 193 649 l 197 571 q 291 672 228 635 q 432 708 354 708 q 615 629 554 708 q 676 393 676 550 l 676 -3 q 460 -264 676 -264 z "},"ṉ":{"ha":763,"x_min":78,"x_max":676,"o":"m 83 519 q 78 694 83 651 l 188 694 q 193 571 193 649 l 197 571 q 291 672 228 635 q 432 708 354 708 q 615 629 554 708 q 676 393 676 550 l 676 0 l 558 0 l 558 394 q 521 560 558 506 q 407 614 483 614 q 301 584 349 614 q 228 501 254 554 q 201 381 201 447 l 201 0 l 83 0 l 83 519 m 164 -89 l 597 -89 l 597 -171 l 164 -171 l 164 -89 z "},"ñ":{"ha":763,"x_min":78,"x_max":676,"o":"m 83 519 q 78 694 83 651 l 188 694 q 193 571 193 649 l 197 571 q 291 672 228 635 q 432 708 354 708 q 615 629 554 708 q 676 393 676 550 l 676 0 l 558 0 l 558 394 q 521 560 558 506 q 407 614 483 614 q 301 584 349 614 q 228 501 254 554 q 201 381 201 447 l 201 0 l 83 0 l 83 519 m 178 769 q 209 871 178 832 q 290 910 240 910 q 335 901 315 910 q 393 872 356 893 q 458 844 436 844 q 488 861 478 844 q 501 915 499 878 l 574 915 q 540 809 572 849 q 457 769 508 769 q 407 780 431 769 q 350 810 383 790 q 293 835 310 835 q 263 817 275 835 q 250 769 251 800 l 178 769 z "},"o":{"ha":774,"x_min":50,"x_max":724,"o":"m 386 -14 q 208 30 283 -14 q 91 156 132 74 q 50 347 50 238 q 91 539 50 457 q 208 665 132 621 q 386 708 283 708 q 633 611 542 708 q 724 347 724 514 q 633 83 724 181 q 386 -14 542 -14 m 386 76 q 547 149 489 76 q 606 347 606 221 q 547 546 606 474 q 386 618 489 618 q 226 546 285 618 q 168 347 168 474 q 226 149 168 221 q 386 76 285 76 z "},"ó":{"ha":774,"x_min":50,"x_max":724,"o":"m 386 -14 q 208 30 283 -14 q 91 156 132 74 q 50 347 50 238 q 91 539 50 457 q 208 665 132 621 q 386 708 283 708 q 633 611 542 708 q 724 347 724 514 q 633 83 724 181 q 386 -14 542 -14 m 386 76 q 547 149 489 76 q 606 347 606 221 q 547 546 606 474 q 386 618 489 618 q 226 546 285 618 q 168 347 168 474 q 226 149 168 221 q 386 76 285 76 m 453 972 l 574 972 l 439 769 l 344 769 l 453 972 z "},"ŏ":{"ha":774,"x_min":50,"x_max":724,"o":"m 386 -14 q 208 30 283 -14 q 91 156 132 74 q 50 347 50 238 q 91 539 50 457 q 208 665 132 621 q 386 708 283 708 q 633 611 542 708 q 724 347 724 514 q 633 83 724 181 q 386 -14 542 -14 m 386 76 q 547 149 489 76 q 606 347 606 221 q 547 546 606 474 q 386 618 489 618 q 226 546 285 618 q 168 347 168 474 q 226 149 168 221 q 386 76 285 76 m 386 769 q 242 816 296 769 q 185 954 189 863 l 260 954 q 294 877 263 906 q 386 849 326 849 q 475 875 442 849 q 513 954 508 901 l 588 954 q 534 819 585 868 q 386 769 483 769 z "},"ǒ":{"ha":774,"x_min":50,"x_max":724,"o":"m 386 -14 q 208 30 283 -14 q 91 156 132 74 q 50 347 50 238 q 91 539 50 457 q 208 665 132 621 q 386 708 283 708 q 633 611 542 708 q 724 347 724 514 q 633 83 724 181 q 386 -14 542 -14 m 386 76 q 547 149 489 76 q 606 347 606 221 q 547 546 606 474 q 386 618 489 618 q 226 546 285 618 q 168 347 168 474 q 226 149 168 221 q 386 76 285 76 m 190 968 l 293 968 l 386 846 l 479 968 l 582 968 l 426 769 l 346 769 l 190 968 z "},"ô":{"ha":774,"x_min":50,"x_max":724,"o":"m 386 -14 q 208 30 283 -14 q 91 156 132 74 q 50 347 50 238 q 91 539 50 457 q 208 665 132 621 q 386 708 283 708 q 633 611 542 708 q 724 347 724 514 q 633 83 724 181 q 386 -14 542 -14 m 386 76 q 547 149 489 76 q 606 347 606 221 q 547 546 606 474 q 386 618 489 618 q 226 546 285 618 q 168 347 168 474 q 226 149 168 221 q 386 76 285 76 m 346 968 l 426 968 l 582 769 l 479 769 l 386 892 l 293 769 l 190 769 l 346 968 z "},"ố":{"ha":774,"x_min":50,"x_max":724,"o":"m 386 -14 q 208 30 283 -14 q 91 156 132 74 q 50 347 50 238 q 91 539 50 457 q 208 665 132 621 q 386 708 283 708 q 633 611 542 708 q 724 347 724 514 q 633 83 724 181 q 386 -14 542 -14 m 386 76 q 547 149 489 76 q 606 347 606 221 q 547 546 606 474 q 386 618 489 618 q 226 546 285 618 q 168 347 168 474 q 226 149 168 221 q 386 76 285 76 m 576 1074 l 675 1074 l 588 931 l 511 931 l 576 1074 m 346 968 l 426 968 l 582 769 l 479 769 l 386 892 l 293 769 l 190 769 l 346 968 z "},"ộ":{"ha":774,"x_min":50,"x_max":724,"o":"m 386 -14 q 208 30 283 -14 q 91 156 132 74 q 50 347 50 238 q 91 539 50 457 q 208 665 132 621 q 386 708 283 708 q 633 611 542 708 q 724 347 724 514 q 633 83 724 181 q 386 -14 542 -14 m 386 76 q 547 149 489 76 q 606 347 606 221 q 547 546 606 474 q 386 618 489 618 q 226 546 285 618 q 168 347 168 474 q 226 149 168 221 q 386 76 285 76 m 386 -242 q 334 -222 354 -242 q 314 -171 314 -201 q 334 -120 314 -140 q 386 -100 354 -100 q 438 -120 418 -100 q 458 -171 458 -140 q 438 -222 458 -201 q 386 -242 418 -242 m 346 968 l 426 968 l 582 769 l 479 769 l 386 892 l 293 769 l 190 769 l 346 968 z "},"ồ":{"ha":774,"x_min":50,"x_max":724,"o":"m 386 -14 q 208 30 283 -14 q 91 156 132 74 q 50 347 50 238 q 91 539 50 457 q 208 665 132 621 q 386 708 283 708 q 633 611 542 708 q 724 347 724 514 q 633 83 724 181 q 386 -14 542 -14 m 386 76 q 547 149 489 76 q 606 347 606 221 q 547 546 606 474 q 386 618 489 618 q 226 546 285 618 q 168 347 168 474 q 226 149 168 221 q 386 76 285 76 m 469 1074 l 568 1074 l 633 931 l 557 931 l 469 1074 m 346 968 l 426 968 l 582 769 l 479 769 l 386 892 l 293 769 l 190 769 l 346 968 z "},"ổ":{"ha":774,"x_min":50,"x_max":724,"o":"m 386 -14 q 208 30 283 -14 q 91 156 132 74 q 50 347 50 238 q 91 539 50 457 q 208 665 132 621 q 386 708 283 708 q 633 611 542 708 q 724 347 724 514 q 633 83 724 181 q 386 -14 542 -14 m 386 76 q 547 149 489 76 q 606 347 606 221 q 547 546 606 474 q 386 618 489 618 q 226 546 285 618 q 168 347 168 474 q 226 149 168 221 q 386 76 285 76 m 551 921 q 564 969 551 951 q 600 1006 576 986 q 627 1029 618 1018 q 636 1057 636 1040 q 624 1082 636 1072 q 592 1092 613 1092 q 552 1081 571 1092 q 521 1050 533 1071 l 479 1088 q 528 1133 496 1115 q 599 1150 560 1150 q 674 1126 646 1150 q 703 1060 703 1103 q 692 1017 703 1033 q 657 981 681 1001 q 628 952 638 965 q 618 921 618 939 l 551 921 m 346 968 l 426 968 l 582 769 l 479 769 l 386 892 l 293 769 l 190 769 l 346 968 z "},"ỗ":{"ha":774,"x_min":50,"x_max":724,"o":"m 386 -14 q 208 30 283 -14 q 91 156 132 74 q 50 347 50 238 q 91 539 50 457 q 208 665 132 621 q 386 708 283 708 q 633 611 542 708 q 724 347 724 514 q 633 83 724 181 q 386 -14 542 -14 m 386 76 q 547 149 489 76 q 606 347 606 221 q 547 546 606 474 q 386 618 489 618 q 226 546 285 618 q 168 347 168 474 q 226 149 168 221 q 386 76 285 76 m 457 1011 q 417 1020 436 1011 q 374 1046 399 1029 q 337 1067 350 1061 q 308 1074 324 1074 q 257 1018 272 1074 l 200 1018 q 239 1106 210 1074 q 314 1138 268 1138 q 355 1129 335 1138 q 401 1106 375 1121 q 441 1085 426 1092 q 469 1079 456 1079 q 521 1136 508 1079 l 576 1136 q 535 1044 567 1078 q 457 1011 504 1011 m 346 968 l 426 968 l 582 769 l 479 769 l 386 892 l 293 769 l 190 769 l 346 968 z "},"ö":{"ha":774,"x_min":50,"x_max":724,"o":"m 386 -14 q 208 30 283 -14 q 91 156 132 74 q 50 347 50 238 q 91 539 50 457 q 208 665 132 621 q 386 708 283 708 q 633 611 542 708 q 724 347 724 514 q 633 83 724 181 q 386 -14 542 -14 m 386 76 q 547 149 489 76 q 606 347 606 221 q 547 546 606 474 q 386 618 489 618 q 226 546 285 618 q 168 347 168 474 q 226 149 168 221 q 386 76 285 76 m 247 769 q 196 790 217 769 q 175 840 175 810 q 195 891 175 871 q 247 911 215 911 q 299 891 278 911 q 319 840 319 871 q 299 790 319 810 q 247 769 278 769 m 525 769 q 474 790 494 769 q 453 840 453 810 q 474 891 453 871 q 525 911 494 911 q 577 891 557 911 q 597 840 597 871 q 576 790 597 810 q 525 769 556 769 z "},"ọ":{"ha":774,"x_min":50,"x_max":724,"o":"m 386 -14 q 208 30 283 -14 q 91 156 132 74 q 50 347 50 238 q 91 539 50 457 q 208 665 132 621 q 386 708 283 708 q 633 611 542 708 q 724 347 724 514 q 633 83 724 181 q 386 -14 542 -14 m 386 76 q 547 149 489 76 q 606 347 606 221 q 547 546 606 474 q 386 618 489 618 q 226 546 285 618 q 168 347 168 474 q 226 149 168 221 q 386 76 285 76 m 386 -242 q 334 -222 354 -242 q 314 -171 314 -201 q 334 -120 314 -140 q 386 -100 354 -100 q 438 -120 418 -100 q 458 -171 458 -140 q 438 -222 458 -201 q 386 -242 418 -242 z "},"ò":{"ha":774,"x_min":50,"x_max":724,"o":"m 386 -14 q 208 30 283 -14 q 91 156 132 74 q 50 347 50 238 q 91 539 50 457 q 208 665 132 621 q 386 708 283 708 q 633 611 542 708 q 724 347 724 514 q 633 83 724 181 q 386 -14 542 -14 m 386 76 q 547 149 489 76 q 606 347 606 221 q 547 546 606 474 q 386 618 489 618 q 226 546 285 618 q 168 347 168 474 q 226 149 168 221 q 386 76 285 76 m 204 972 l 325 972 l 433 769 l 339 769 l 204 972 z "},"ỏ":{"ha":774,"x_min":50,"x_max":724,"o":"m 386 -14 q 208 30 283 -14 q 91 156 132 74 q 50 347 50 238 q 91 539 50 457 q 208 665 132 621 q 386 708 283 708 q 633 611 542 708 q 724 347 724 514 q 633 83 724 181 q 386 -14 542 -14 m 386 76 q 547 149 489 76 q 606 347 606 221 q 547 546 606 474 q 386 618 489 618 q 226 546 285 618 q 168 347 168 474 q 226 149 168 221 q 386 76 285 76 m 339 769 q 353 826 339 804 q 394 871 368 847 q 428 909 418 894 q 439 946 439 924 q 382 990 439 990 q 294 928 328 990 l 242 975 q 301 1038 263 1015 q 392 1061 340 1061 q 491 1033 454 1061 q 528 950 528 1004 q 513 893 528 917 q 471 840 499 869 q 438 803 449 818 q 428 769 428 788 l 339 769 z "},"ơ":{"ha":831,"x_min":50,"x_max":872,"o":"m 872 694 l 872 643 q 831 494 872 560 q 722 392 790 428 q 724 347 724 376 q 633 83 724 181 q 386 -14 542 -14 q 208 30 283 -14 q 91 156 132 74 q 50 347 50 238 q 91 539 50 457 q 208 665 132 621 q 386 708 283 708 q 593 647 510 708 q 707 475 676 585 q 753 547 739 507 q 767 643 767 588 l 767 694 l 872 694 m 386 76 q 547 149 489 76 q 606 347 606 221 q 547 546 606 474 q 386 618 489 618 q 226 546 285 618 q 168 347 168 474 q 226 149 168 221 q 386 76 285 76 z "},"ớ":{"ha":831,"x_min":50,"x_max":872,"o":"m 872 694 l 872 643 q 831 494 872 560 q 722 392 790 428 q 724 347 724 376 q 633 83 724 181 q 386 -14 542 -14 q 208 30 283 -14 q 91 156 132 74 q 50 347 50 238 q 91 539 50 457 q 208 665 132 621 q 386 708 283 708 q 593 647 510 708 q 707 475 676 585 q 753 547 739 507 q 767 643 767 588 l 767 694 l 872 694 m 386 76 q 547 149 489 76 q 606 347 606 221 q 547 546 606 474 q 386 618 489 618 q 226 546 285 618 q 168 347 168 474 q 226 149 168 221 q 386 76 285 76 m 453 972 l 574 972 l 439 769 l 344 769 l 453 972 z "},"ợ":{"ha":831,"x_min":50,"x_max":872,"o":"m 872 694 l 872 643 q 831 494 872 560 q 722 392 790 428 q 724 347 724 376 q 633 83 724 181 q 386 -14 542 -14 q 208 30 283 -14 q 91 156 132 74 q 50 347 50 238 q 91 539 50 457 q 208 665 132 621 q 386 708 283 708 q 593 647 510 708 q 707 475 676 585 q 753 547 739 507 q 767 643 767 588 l 767 694 l 872 694 m 386 76 q 547 149 489 76 q 606 347 606 221 q 547 546 606 474 q 386 618 489 618 q 226 546 285 618 q 168 347 168 474 q 226 149 168 221 q 386 76 285 76 m 386 -242 q 334 -222 354 -242 q 314 -171 314 -201 q 334 -120 314 -140 q 386 -100 354 -100 q 438 -120 418 -100 q 458 -171 458 -140 q 438 -222 458 -201 q 386 -242 418 -242 z "},"ờ":{"ha":831,"x_min":50,"x_max":872,"o":"m 872 694 l 872 643 q 831 494 872 560 q 722 392 790 428 q 724 347 724 376 q 633 83 724 181 q 386 -14 542 -14 q 208 30 283 -14 q 91 156 132 74 q 50 347 50 238 q 91 539 50 457 q 208 665 132 621 q 386 708 283 708 q 593 647 510 708 q 707 475 676 585 q 753 547 739 507 q 767 643 767 588 l 767 694 l 872 694 m 386 76 q 547 149 489 76 q 606 347 606 221 q 547 546 606 474 q 386 618 489 618 q 226 546 285 618 q 168 347 168 474 q 226 149 168 221 q 386 76 285 76 m 204 972 l 325 972 l 433 769 l 339 769 l 204 972 z "},"ở":{"ha":831,"x_min":50,"x_max":872,"o":"m 872 694 l 872 643 q 831 494 872 560 q 722 392 790 428 q 724 347 724 376 q 633 83 724 181 q 386 -14 542 -14 q 208 30 283 -14 q 91 156 132 74 q 50 347 50 238 q 91 539 50 457 q 208 665 132 621 q 386 708 283 708 q 593 647 510 708 q 707 475 676 585 q 753 547 739 507 q 767 643 767 588 l 767 694 l 872 694 m 386 76 q 547 149 489 76 q 606 347 606 221 q 547 546 606 474 q 386 618 489 618 q 226 546 285 618 q 168 347 168 474 q 226 149 168 221 q 386 76 285 76 m 339 769 q 353 826 339 804 q 394 871 368 847 q 428 909 418 894 q 439 946 439 924 q 382 990 439 990 q 294 928 328 990 l 242 975 q 301 1038 263 1015 q 392 1061 340 1061 q 491 1033 454 1061 q 528 950 528 1004 q 513 893 528 917 q 471 840 499 869 q 438 803 449 818 q 428 769 428 788 l 339 769 z "},"ỡ":{"ha":831,"x_min":50,"x_max":872,"o":"m 872 694 l 872 643 q 831 494 872 560 q 722 392 790 428 q 724 347 724 376 q 633 83 724 181 q 386 -14 542 -14 q 208 30 283 -14 q 91 156 132 74 q 50 347 50 238 q 91 539 50 457 q 208 665 132 621 q 386 708 283 708 q 593 647 510 708 q 707 475 676 585 q 753 547 739 507 q 767 643 767 588 l 767 694 l 872 694 m 386 76 q 547 149 489 76 q 606 347 606 221 q 547 546 606 474 q 386 618 489 618 q 226 546 285 618 q 168 347 168 474 q 226 149 168 221 q 386 76 285 76 m 183 769 q 215 871 183 832 q 296 910 246 910 q 341 901 321 910 q 399 872 361 893 q 464 844 442 844 q 494 861 483 844 q 507 915 504 878 l 579 915 q 546 809 578 849 q 463 769 514 769 q 413 780 436 769 q 356 810 389 790 q 299 835 315 835 q 269 817 281 835 q 256 769 257 800 l 183 769 z "},"ő":{"ha":774,"x_min":50,"x_max":724,"o":"m 336 956 l 449 956 l 324 765 l 233 765 l 336 956 m 506 956 l 618 956 l 493 765 l 403 765 l 506 956 m 386 -14 q 208 30 283 -14 q 91 156 132 74 q 50 347 50 238 q 91 539 50 457 q 208 665 132 621 q 386 708 283 708 q 633 611 542 708 q 724 347 724 514 q 633 83 724 181 q 386 -14 542 -14 m 386 76 q 547 149 489 76 q 606 347 606 221 q 547 546 606 474 q 386 618 489 618 q 226 546 285 618 q 168 347 168 474 q 226 149 168 221 q 386 76 285 76 z "},"ō":{"ha":774,"x_min":50,"x_max":724,"o":"m 386 -14 q 208 30 283 -14 q 91 156 132 74 q 50 347 50 238 q 91 539 50 457 q 208 665 132 621 q 386 708 283 708 q 633 611 542 708 q 724 347 724 514 q 633 83 724 181 q 386 -14 542 -14 m 386 76 q 547 149 489 76 q 606 347 606 221 q 547 546 606 474 q 386 618 489 618 q 226 546 285 618 q 168 347 168 474 q 226 149 168 221 q 386 76 285 76 m 169 865 l 603 865 l 603 783 l 169 783 l 169 865 z "},"ø":{"ha":774,"x_min":50,"x_max":724,"o":"m 594 644 q 690 523 657 599 q 724 347 724 447 q 633 83 724 181 q 386 -14 542 -14 q 256 8 313 -14 l 219 -60 l 131 -60 l 185 44 q 85 167 119 90 q 50 347 50 244 q 91 539 50 457 q 208 665 132 621 q 386 708 283 708 q 522 685 460 708 l 553 743 l 647 743 l 594 644 m 168 347 q 235 139 168 210 l 478 600 q 386 618 433 618 q 226 546 285 618 q 168 347 168 474 m 386 76 q 547 149 489 76 q 606 347 606 221 q 544 549 606 476 l 300 93 q 386 76 340 76 z "},"ǿ":{"ha":774,"x_min":50,"x_max":724,"o":"m 594 644 q 690 523 657 599 q 724 347 724 447 q 633 83 724 181 q 386 -14 542 -14 q 256 8 313 -14 l 219 -60 l 131 -60 l 185 44 q 85 167 119 90 q 50 347 50 244 q 91 539 50 457 q 208 665 132 621 q 386 708 283 708 q 522 685 460 708 l 553 743 l 647 743 l 594 644 m 168 347 q 235 139 168 210 l 478 600 q 386 618 433 618 q 226 546 285 618 q 168 347 168 474 m 386 76 q 547 149 489 76 q 606 347 606 221 q 544 549 606 476 l 300 93 q 386 76 340 76 m 453 972 l 574 972 l 439 769 l 344 769 l 453 972 z "},"õ":{"ha":774,"x_min":50,"x_max":724,"o":"m 386 -14 q 208 30 283 -14 q 91 156 132 74 q 50 347 50 238 q 91 539 50 457 q 208 665 132 621 q 386 708 283 708 q 633 611 542 708 q 724 347 724 514 q 633 83 724 181 q 386 -14 542 -14 m 386 76 q 547 149 489 76 q 606 347 606 221 q 547 546 606 474 q 386 618 489 618 q 226 546 285 618 q 168 347 168 474 q 226 149 168 221 q 386 76 285 76 m 183 769 q 215 871 183 832 q 296 910 246 910 q 341 901 321 910 q 399 872 361 893 q 464 844 442 844 q 494 861 483 844 q 507 915 504 878 l 579 915 q 546 809 578 849 q 463 769 514 769 q 413 780 436 769 q 356 810 389 790 q 299 835 315 835 q 269 817 281 835 q 256 769 257 800 l 183 769 z "},"œ":{"ha":1204,"x_min":50,"x_max":1154,"o":"m 1154 324 l 660 324 q 719 147 665 208 q 867 86 772 86 q 1061 185 988 86 l 1128 121 q 1018 22 1088 57 q 863 -14 949 -14 q 710 19 776 -14 q 603 114 644 51 q 505 19 567 51 q 360 -14 443 -14 q 130 80 210 -14 q 50 347 50 174 q 130 615 50 521 q 360 708 210 708 q 604 579 531 708 q 711 675 646 642 q 860 708 776 708 q 1078 620 1001 708 q 1154 368 1154 532 l 1154 324 m 360 76 q 543 347 543 76 q 360 618 543 618 q 216 549 265 618 q 167 347 167 479 q 216 146 167 215 q 360 76 265 76 m 1039 415 q 992 563 1039 513 q 854 613 944 613 q 724 560 774 613 q 663 408 675 507 l 1039 408 l 1039 415 z "},"p":{"ha":757,"x_min":82,"x_max":707,"o":"m 88 519 q 82 694 88 608 l 190 694 q 194 585 194 643 l 197 585 q 288 674 226 640 q 419 708 349 708 q 631 613 554 708 q 707 347 707 517 q 671 156 707 238 q 569 31 635 75 q 415 -14 503 -14 q 289 14 343 -14 q 210 92 235 42 l 206 92 l 206 -336 l 88 -336 l 88 519 m 397 76 q 538 151 486 76 q 589 351 589 225 q 539 546 589 478 q 399 614 489 614 q 260 558 314 614 q 206 417 206 503 l 206 290 q 258 135 206 194 q 397 76 311 76 z "},"þ":{"ha":742,"x_min":82,"x_max":692,"o":"m 82 1031 l 199 1031 l 199 610 q 281 682 225 656 q 404 708 336 708 q 615 614 539 708 q 692 351 692 519 q 655 159 692 242 q 551 31 618 76 q 396 -14 485 -14 q 277 11 329 -14 q 199 81 225 36 l 199 -325 l 82 -325 l 82 1031 m 383 76 q 523 151 471 76 q 575 353 575 226 q 525 546 575 476 q 386 615 475 615 q 251 559 303 615 q 199 414 199 503 l 199 301 q 248 137 199 197 q 383 76 297 76 z "},"q":{"ha":757,"x_min":50,"x_max":675,"o":"m 551 96 l 547 96 q 463 15 518 44 q 340 -14 408 -14 q 187 31 253 -14 q 85 157 121 75 q 50 349 50 239 q 127 613 50 517 q 339 708 204 708 q 472 675 411 708 q 560 586 532 642 l 563 586 q 567 694 563 636 l 675 694 q 669 519 669 614 l 669 -336 l 551 -336 l 551 96 m 360 76 q 499 135 446 76 q 551 290 551 194 l 551 417 q 497 558 551 503 q 358 614 443 614 q 217 546 267 614 q 168 351 168 478 q 219 151 168 225 q 360 76 271 76 z "},"r":{"ha":486,"x_min":89,"x_max":471,"o":"m 93 525 q 89 694 93 643 l 199 694 q 204 572 204 639 l 204 558 l 208 558 q 293 669 235 631 q 431 708 351 708 q 471 704 453 708 l 471 607 q 422 611 453 611 q 315 576 364 611 q 239 479 267 540 q 211 346 211 418 l 211 0 l 93 0 l 93 525 z "},"ŕ":{"ha":486,"x_min":89,"x_max":471,"o":"m 93 525 q 89 694 93 643 l 199 694 q 204 572 204 639 l 204 558 l 208 558 q 293 669 235 631 q 431 708 351 708 q 471 704 453 708 l 471 607 q 422 611 453 611 q 315 576 364 611 q 239 479 267 540 q 211 346 211 418 l 211 0 l 93 0 l 93 525 m 332 972 l 453 972 l 318 769 l 224 769 l 332 972 z "},"ř":{"ha":486,"x_min":69,"x_max":471,"o":"m 93 525 q 89 694 93 643 l 199 694 q 204 572 204 639 l 204 558 l 208 558 q 293 669 235 631 q 431 708 351 708 q 471 704 453 708 l 471 607 q 422 611 453 611 q 315 576 364 611 q 239 479 267 540 q 211 346 211 418 l 211 0 l 93 0 l 93 525 m 69 968 l 172 968 l 265 846 l 358 968 l 461 968 l 306 769 l 225 769 l 69 968 z "},"ŗ":{"ha":486,"x_min":78,"x_max":471,"o":"m 93 525 q 89 694 93 643 l 199 694 q 204 572 204 639 l 204 558 l 208 558 q 293 669 235 631 q 431 708 351 708 q 471 704 453 708 l 471 607 q 422 611 453 611 q 315 576 364 611 q 239 479 267 540 q 211 346 211 418 l 211 0 l 93 0 l 93 525 m 154 -100 q 217 -126 194 -100 q 239 -192 239 -151 q 215 -290 239 -237 q 151 -382 190 -343 l 101 -346 q 124 -312 104 -342 q 154 -250 144 -282 l 151 -250 q 99 -230 119 -250 q 78 -176 78 -210 q 99 -122 78 -143 q 154 -100 119 -100 z "},"ṛ":{"ha":486,"x_min":82,"x_max":471,"o":"m 93 525 q 89 694 93 643 l 199 694 q 204 572 204 639 l 204 558 l 208 558 q 293 669 235 631 q 431 708 351 708 q 471 704 453 708 l 471 607 q 422 611 453 611 q 315 576 364 611 q 239 479 267 540 q 211 346 211 418 l 211 0 l 93 0 l 93 525 m 154 -242 q 102 -222 122 -242 q 82 -171 82 -201 q 102 -120 82 -140 q 154 -100 122 -100 q 206 -120 186 -100 q 226 -171 226 -140 q 206 -222 226 -201 q 154 -242 186 -242 z "},"ṝ":{"ha":486,"x_min":49,"x_max":482,"o":"m 93 525 q 89 694 93 643 l 199 694 q 204 572 204 639 l 204 558 l 208 558 q 293 669 235 631 q 431 708 351 708 q 471 704 453 708 l 471 607 q 422 611 453 611 q 315 576 364 611 q 239 479 267 540 q 211 346 211 418 l 211 0 l 93 0 l 93 525 m 154 -242 q 102 -222 122 -242 q 82 -171 82 -201 q 102 -120 82 -140 q 154 -100 122 -100 q 206 -120 186 -100 q 226 -171 226 -140 q 206 -222 226 -201 q 154 -242 186 -242 m 49 865 l 482 865 l 482 783 l 49 783 l 49 865 z "},"ṟ":{"ha":486,"x_min":51,"x_max":485,"o":"m 93 525 q 89 694 93 643 l 199 694 q 204 572 204 639 l 204 558 l 208 558 q 293 669 235 631 q 431 708 351 708 q 471 704 453 708 l 471 607 q 422 611 453 611 q 315 576 364 611 q 239 479 267 540 q 211 346 211 418 l 211 0 l 93 0 l 93 525 m 51 -89 l 485 -89 l 485 -171 l 51 -171 l 51 -89 z "},"s":{"ha":578,"x_min":47,"x_max":531,"o":"m 278 -14 q 137 18 200 -14 q 47 103 74 50 l 124 156 q 189 97 147 118 q 279 76 231 76 q 376 110 338 76 q 414 196 414 144 q 383 265 414 238 q 275 322 353 293 q 109 413 157 365 q 61 529 61 460 q 125 659 61 610 q 294 708 189 708 q 419 679 363 708 q 506 599 475 650 l 433 546 q 294 618 385 618 q 210 594 243 618 q 178 533 178 571 q 211 470 178 496 q 335 410 244 444 q 486 322 442 369 q 531 200 531 274 q 461 44 531 103 q 278 -14 392 -14 z "},"ś":{"ha":578,"x_min":47,"x_max":531,"o":"m 278 -14 q 137 18 200 -14 q 47 103 74 50 l 124 156 q 189 97 147 118 q 279 76 231 76 q 376 110 338 76 q 414 196 414 144 q 383 265 414 238 q 275 322 353 293 q 109 413 157 365 q 61 529 61 460 q 125 659 61 610 q 294 708 189 708 q 419 679 363 708 q 506 599 475 650 l 433 546 q 294 618 385 618 q 210 594 243 618 q 178 533 178 571 q 211 470 178 496 q 335 410 244 444 q 486 322 442 369 q 531 200 531 274 q 461 44 531 103 q 278 -14 392 -14 m 357 972 l 478 972 l 343 769 l 249 769 l 357 972 z "},"š":{"ha":578,"x_min":47,"x_max":531,"o":"m 278 -14 q 137 18 200 -14 q 47 103 74 50 l 124 156 q 189 97 147 118 q 279 76 231 76 q 376 110 338 76 q 414 196 414 144 q 383 265 414 238 q 275 322 353 293 q 109 413 157 365 q 61 529 61 460 q 125 659 61 610 q 294 708 189 708 q 419 679 363 708 q 506 599 475 650 l 433 546 q 294 618 385 618 q 210 594 243 618 q 178 533 178 571 q 211 470 178 496 q 335 410 244 444 q 486 322 442 369 q 531 200 531 274 q 461 44 531 103 q 278 -14 392 -14 m 94 968 l 197 968 l 290 846 l 383 968 l 486 968 l 331 769 l 250 769 l 94 968 z "},"ş":{"ha":578,"x_min":47,"x_max":531,"o":"m 531 200 q 475 57 531 114 q 325 -11 419 0 l 286 -86 q 378 -112 343 -86 q 413 -185 413 -137 q 374 -274 413 -240 q 269 -307 336 -307 q 211 -302 242 -307 q 164 -289 181 -297 l 175 -235 q 253 -244 207 -244 q 308 -230 286 -244 q 329 -187 329 -215 q 301 -149 329 -162 q 222 -136 274 -135 l 194 -106 l 247 -12 q 124 25 178 -6 q 47 103 69 56 l 124 156 q 189 97 147 118 q 279 76 231 76 q 376 110 338 76 q 414 196 414 144 q 383 265 414 238 q 275 322 353 293 q 109 413 157 365 q 61 529 61 460 q 125 659 61 610 q 294 708 189 708 q 419 679 363 708 q 506 599 475 650 l 433 546 q 294 618 385 618 q 210 594 243 618 q 178 533 178 571 q 211 470 178 496 q 335 410 244 444 q 486 322 442 369 q 531 200 531 274 z "},"ŝ":{"ha":578,"x_min":47,"x_max":531,"o":"m 278 -14 q 137 18 200 -14 q 47 103 74 50 l 124 156 q 189 97 147 118 q 279 76 231 76 q 376 110 338 76 q 414 196 414 144 q 383 265 414 238 q 275 322 353 293 q 109 413 157 365 q 61 529 61 460 q 125 659 61 610 q 294 708 189 708 q 419 679 363 708 q 506 599 475 650 l 433 546 q 294 618 385 618 q 210 594 243 618 q 178 533 178 571 q 211 470 178 496 q 335 410 244 444 q 486 322 442 369 q 531 200 531 274 q 461 44 531 103 q 278 -14 392 -14 m 250 968 l 331 968 l 486 769 l 383 769 l 290 892 l 197 769 l 94 769 l 250 968 z "},"ș":{"ha":578,"x_min":47,"x_max":531,"o":"m 278 -14 q 137 18 200 -14 q 47 103 74 50 l 124 156 q 189 97 147 118 q 279 76 231 76 q 376 110 338 76 q 414 196 414 144 q 383 265 414 238 q 275 322 353 293 q 109 413 157 365 q 61 529 61 460 q 125 659 61 610 q 294 708 189 708 q 419 679 363 708 q 506 599 475 650 l 433 546 q 294 618 385 618 q 210 594 243 618 q 178 533 178 571 q 211 470 178 496 q 335 410 244 444 q 486 322 442 369 q 531 200 531 274 q 461 44 531 103 q 278 -14 392 -14 m 290 -100 q 353 -126 331 -100 q 375 -192 375 -151 q 351 -290 375 -237 q 288 -382 326 -343 l 238 -346 q 260 -312 240 -342 q 290 -250 281 -282 l 288 -250 q 235 -230 256 -250 q 214 -176 214 -210 q 235 -122 214 -143 q 290 -100 256 -100 z "},"ṡ":{"ha":578,"x_min":47,"x_max":531,"o":"m 278 -14 q 137 18 200 -14 q 47 103 74 50 l 124 156 q 189 97 147 118 q 279 76 231 76 q 376 110 338 76 q 414 196 414 144 q 383 265 414 238 q 275 322 353 293 q 109 413 157 365 q 61 529 61 460 q 125 659 61 610 q 294 708 189 708 q 419 679 363 708 q 506 599 475 650 l 433 546 q 294 618 385 618 q 210 594 243 618 q 178 533 178 571 q 211 470 178 496 q 335 410 244 444 q 486 322 442 369 q 531 200 531 274 q 461 44 531 103 q 278 -14 392 -14 m 290 769 q 239 790 260 769 q 218 840 218 810 q 238 891 218 871 q 290 911 258 911 q 342 891 322 911 q 363 840 363 871 q 342 790 363 810 q 290 769 321 769 z "},"ṣ":{"ha":578,"x_min":47,"x_max":531,"o":"m 278 -14 q 137 18 200 -14 q 47 103 74 50 l 124 156 q 189 97 147 118 q 279 76 231 76 q 376 110 338 76 q 414 196 414 144 q 383 265 414 238 q 275 322 353 293 q 109 413 157 365 q 61 529 61 460 q 125 659 61 610 q 294 708 189 708 q 419 679 363 708 q 506 599 475 650 l 433 546 q 294 618 385 618 q 210 594 243 618 q 178 533 178 571 q 211 470 178 496 q 335 410 244 444 q 486 322 442 369 q 531 200 531 274 q 461 44 531 103 q 278 -14 392 -14 m 290 -242 q 238 -222 258 -242 q 218 -171 218 -201 q 238 -120 218 -140 q 290 -100 258 -100 q 342 -120 322 -100 q 363 -171 363 -140 q 342 -222 363 -201 q 290 -242 322 -242 z "},"ß":{"ha":785,"x_min":83,"x_max":738,"o":"m 499 -14 q 363 16 424 -14 q 274 103 303 46 l 350 156 q 412 97 375 117 q 492 76 449 76 q 585 109 549 76 q 621 196 621 142 q 589 276 621 249 q 488 329 557 303 q 380 399 413 358 q 347 497 347 439 q 370 576 347 546 q 439 642 393 606 q 502 701 482 675 q 522 768 522 728 q 485 861 522 829 q 376 893 447 893 q 242 838 285 893 q 200 668 200 782 l 200 0 l 83 0 l 83 675 q 157 907 83 828 q 371 986 231 986 q 568 930 500 986 q 636 767 636 874 q 608 674 636 711 q 528 596 579 638 q 475 547 492 567 q 458 504 458 528 q 492 442 458 467 q 576 400 526 418 q 738 200 738 339 q 672 44 738 103 q 499 -14 606 -14 z "},"t":{"ha":524,"x_min":14,"x_max":471,"o":"m 336 -14 q 192 45 244 -14 q 139 208 139 104 l 139 603 l 14 603 l 14 694 l 139 694 l 139 879 l 251 914 l 257 914 l 257 694 l 454 694 l 454 603 l 257 603 l 257 219 q 283 115 257 149 q 365 81 310 81 q 463 96 425 81 l 471 8 q 336 -14 425 -14 z "},"ŧ":{"ha":524,"x_min":14,"x_max":471,"o":"m 471 8 q 336 -14 425 -14 q 192 45 244 -14 q 139 208 139 104 l 139 342 l 28 342 l 28 418 l 139 418 l 139 603 l 14 603 l 14 694 l 139 694 l 139 879 l 251 914 l 257 914 l 257 694 l 454 694 l 454 603 l 257 603 l 257 418 l 410 418 l 410 342 l 257 342 l 257 219 q 283 115 257 149 q 365 81 310 81 q 463 96 425 81 l 471 8 z "},"ť":{"ha":636,"x_min":14,"x_max":621,"o":"m 336 -14 q 192 45 244 -14 q 139 208 139 104 l 139 603 l 14 603 l 14 694 l 139 694 l 139 879 l 251 914 l 257 914 l 257 694 l 454 694 l 454 603 l 257 603 l 257 219 q 283 115 257 149 q 365 81 310 81 q 463 96 425 81 l 471 8 q 336 -14 425 -14 m 536 1019 q 599 994 576 1019 q 621 928 621 968 q 597 829 621 882 q 533 738 572 776 l 483 774 q 506 808 486 779 q 536 868 526 838 l 533 868 q 481 889 501 868 q 460 942 460 910 q 481 998 460 976 q 536 1019 501 1019 z "},"ţ":{"ha":524,"x_min":14,"x_max":471,"o":"m 318 -86 q 410 -112 375 -86 q 444 -185 444 -137 q 406 -274 444 -240 q 301 -307 368 -307 q 243 -302 274 -307 q 196 -289 213 -297 l 207 -235 q 285 -244 239 -244 q 340 -230 318 -244 q 361 -187 361 -215 q 333 -149 361 -162 q 254 -136 306 -135 l 226 -106 l 282 -8 q 176 65 214 8 q 139 208 139 121 l 139 603 l 14 603 l 14 694 l 139 694 l 139 879 l 251 914 l 257 914 l 257 694 l 454 694 l 454 603 l 257 603 l 257 219 q 283 115 257 149 q 365 81 310 81 q 463 96 425 81 l 471 8 q 356 -14 431 -11 l 318 -86 z "},"ț":{"ha":524,"x_min":14,"x_max":471,"o":"m 336 -14 q 192 45 244 -14 q 139 208 139 104 l 139 603 l 14 603 l 14 694 l 139 694 l 139 879 l 251 914 l 257 914 l 257 694 l 454 694 l 454 603 l 257 603 l 257 219 q 283 115 257 149 q 365 81 310 81 q 463 96 425 81 l 471 8 q 336 -14 425 -14 m 322 -100 q 385 -126 363 -100 q 407 -192 407 -151 q 383 -290 407 -237 q 319 -382 358 -343 l 269 -346 q 292 -312 272 -342 q 322 -250 313 -282 l 319 -250 q 267 -230 288 -250 q 246 -176 246 -210 q 267 -122 246 -143 q 322 -100 288 -100 z "},"ẗ":{"ha":524,"x_min":-12,"x_max":471,"o":"m 336 -14 q 192 45 244 -14 q 139 208 139 104 l 139 603 l 14 603 l 14 694 l 139 694 l 139 879 l 251 914 l 257 914 l 257 694 l 454 694 l 454 603 l 257 603 l 257 219 q 283 115 257 149 q 365 81 310 81 q 463 96 425 81 l 471 8 q 336 -14 425 -14 m 60 989 q 8 1009 29 989 q -12 1060 -12 1029 q 8 1110 -12 1090 q 60 1131 28 1131 q 111 1110 90 1131 q 132 1060 132 1090 q 111 1009 132 1029 q 60 989 90 989 m 338 989 q 286 1009 307 989 q 265 1060 265 1029 q 286 1110 265 1090 q 338 1131 307 1131 q 390 1110 369 1131 q 410 1060 410 1090 q 389 1009 410 1029 q 338 989 368 989 z "},"ṭ":{"ha":524,"x_min":14,"x_max":471,"o":"m 336 -14 q 192 45 244 -14 q 139 208 139 104 l 139 603 l 14 603 l 14 694 l 139 694 l 139 879 l 251 914 l 257 914 l 257 694 l 454 694 l 454 603 l 257 603 l 257 219 q 283 115 257 149 q 365 81 310 81 q 463 96 425 81 l 471 8 q 336 -14 425 -14 m 322 -242 q 270 -222 290 -242 q 250 -171 250 -201 q 270 -120 250 -140 q 322 -100 290 -100 q 374 -120 354 -100 q 394 -171 394 -140 q 374 -222 394 -201 q 322 -242 354 -242 z "},"ṯ":{"ha":524,"x_min":14,"x_max":539,"o":"m 336 -14 q 192 45 244 -14 q 139 208 139 104 l 139 603 l 14 603 l 14 694 l 139 694 l 139 879 l 251 914 l 257 914 l 257 694 l 454 694 l 454 603 l 257 603 l 257 219 q 283 115 257 149 q 365 81 310 81 q 463 96 425 81 l 471 8 q 336 -14 425 -14 m 106 -89 l 539 -89 l 539 -171 l 106 -171 l 106 -89 z "},"u":{"ha":767,"x_min":85,"x_max":689,"o":"m 328 -14 q 147 64 208 -14 q 85 293 85 142 l 85 694 l 203 694 l 203 292 q 353 81 203 81 q 458 110 411 81 q 532 194 506 140 q 558 314 558 247 l 558 694 l 676 694 l 676 147 q 689 0 676 78 l 581 0 q 567 124 568 61 l 563 124 q 469 23 532 60 q 328 -14 406 -14 z "},"ú":{"ha":767,"x_min":85,"x_max":689,"o":"m 328 -14 q 147 64 208 -14 q 85 293 85 142 l 85 694 l 203 694 l 203 292 q 353 81 203 81 q 458 110 411 81 q 532 194 506 140 q 558 314 558 247 l 558 694 l 676 694 l 676 147 q 689 0 676 78 l 581 0 q 567 124 568 61 l 563 124 q 469 23 532 60 q 328 -14 406 -14 m 454 972 l 575 972 l 440 769 l 346 769 l 454 972 z "},"ŭ":{"ha":767,"x_min":85,"x_max":689,"o":"m 328 -14 q 147 64 208 -14 q 85 293 85 142 l 85 694 l 203 694 l 203 292 q 353 81 203 81 q 458 110 411 81 q 532 194 506 140 q 558 314 558 247 l 558 694 l 676 694 l 676 147 q 689 0 676 78 l 581 0 q 567 124 568 61 l 563 124 q 469 23 532 60 q 328 -14 406 -14 m 388 769 q 244 816 297 769 q 186 954 190 863 l 261 954 q 296 877 264 906 q 388 849 328 849 q 476 875 443 849 q 514 954 510 901 l 589 954 q 535 819 586 868 q 388 769 485 769 z "},"ǔ":{"ha":767,"x_min":85,"x_max":689,"o":"m 328 -14 q 147 64 208 -14 q 85 293 85 142 l 85 694 l 203 694 l 203 292 q 353 81 203 81 q 458 110 411 81 q 532 194 506 140 q 558 314 558 247 l 558 694 l 676 694 l 676 147 q 689 0 676 78 l 581 0 q 567 124 568 61 l 563 124 q 469 23 532 60 q 328 -14 406 -14 m 192 968 l 294 968 l 388 846 l 481 968 l 583 968 l 428 769 l 347 769 l 192 968 z "},"û":{"ha":767,"x_min":85,"x_max":689,"o":"m 328 -14 q 147 64 208 -14 q 85 293 85 142 l 85 694 l 203 694 l 203 292 q 353 81 203 81 q 458 110 411 81 q 532 194 506 140 q 558 314 558 247 l 558 694 l 676 694 l 676 147 q 689 0 676 78 l 581 0 q 567 124 568 61 l 563 124 q 469 23 532 60 q 328 -14 406 -14 m 347 968 l 428 968 l 583 769 l 481 769 l 388 892 l 294 769 l 192 769 l 347 968 z "},"ü":{"ha":767,"x_min":85,"x_max":689,"o":"m 328 -14 q 147 64 208 -14 q 85 293 85 142 l 85 694 l 203 694 l 203 292 q 353 81 203 81 q 458 110 411 81 q 532 194 506 140 q 558 314 558 247 l 558 694 l 676 694 l 676 147 q 689 0 676 78 l 581 0 q 567 124 568 61 l 563 124 q 469 23 532 60 q 328 -14 406 -14 m 249 769 q 197 790 218 769 q 176 840 176 810 q 197 891 176 871 q 249 911 217 911 q 300 891 279 911 q 321 840 321 871 q 300 790 321 810 q 249 769 279 769 m 526 769 q 475 790 496 769 q 454 840 454 810 q 475 891 454 871 q 526 911 496 911 q 578 891 558 911 q 599 840 599 871 q 578 790 599 810 q 526 769 557 769 z "},"ǘ":{"ha":767,"x_min":85,"x_max":689,"o":"m 328 -14 q 147 64 208 -14 q 85 293 85 142 l 85 694 l 203 694 l 203 292 q 353 81 203 81 q 458 110 411 81 q 532 194 506 140 q 558 314 558 247 l 558 694 l 676 694 l 676 147 q 689 0 676 78 l 581 0 q 567 124 568 61 l 563 124 q 469 23 532 60 q 328 -14 406 -14 m 407 1092 l 504 1092 l 417 949 l 342 949 l 407 1092 m 249 769 q 197 790 218 769 q 176 840 176 810 q 197 891 176 871 q 249 911 217 911 q 300 891 279 911 q 321 840 321 871 q 300 790 321 810 q 249 769 279 769 m 526 769 q 475 790 496 769 q 454 840 454 810 q 475 891 454 871 q 526 911 496 911 q 578 891 558 911 q 599 840 599 871 q 578 790 599 810 q 526 769 557 769 z "},"ǚ":{"ha":767,"x_min":85,"x_max":689,"o":"m 328 -14 q 147 64 208 -14 q 85 293 85 142 l 85 694 l 203 694 l 203 292 q 353 81 203 81 q 458 110 411 81 q 532 194 506 140 q 558 314 558 247 l 558 694 l 676 694 l 676 147 q 689 0 676 78 l 581 0 q 567 124 568 61 l 563 124 q 469 23 532 60 q 328 -14 406 -14 m 199 1104 l 299 1104 l 388 1001 l 476 1104 l 576 1104 l 424 936 l 350 936 l 199 1104 m 249 769 q 197 790 218 769 q 176 840 176 810 q 197 891 176 871 q 249 911 217 911 q 300 891 279 911 q 321 840 321 871 q 300 790 321 810 q 249 769 279 769 m 526 769 q 475 790 496 769 q 454 840 454 810 q 475 891 454 871 q 526 911 496 911 q 578 891 558 911 q 599 840 599 871 q 578 790 599 810 q 526 769 557 769 z "},"ǜ":{"ha":767,"x_min":85,"x_max":689,"o":"m 328 -14 q 147 64 208 -14 q 85 293 85 142 l 85 694 l 203 694 l 203 292 q 353 81 203 81 q 458 110 411 81 q 532 194 506 140 q 558 314 558 247 l 558 694 l 676 694 l 676 147 q 689 0 676 78 l 581 0 q 567 124 568 61 l 563 124 q 469 23 532 60 q 328 -14 406 -14 m 269 1092 l 367 1092 l 432 949 l 357 949 l 269 1092 m 249 769 q 197 790 218 769 q 176 840 176 810 q 197 891 176 871 q 249 911 217 911 q 300 891 279 911 q 321 840 321 871 q 300 790 321 810 q 249 769 279 769 m 526 769 q 475 790 496 769 q 454 840 454 810 q 475 891 454 871 q 526 911 496 911 q 578 891 558 911 q 599 840 599 871 q 578 790 599 810 q 526 769 557 769 z "},"ǖ":{"ha":767,"x_min":85,"x_max":689,"o":"m 328 -14 q 147 64 208 -14 q 85 293 85 142 l 85 694 l 203 694 l 203 292 q 353 81 203 81 q 458 110 411 81 q 532 194 506 140 q 558 314 558 247 l 558 694 l 676 694 l 676 147 q 689 0 676 78 l 581 0 q 567 124 568 61 l 563 124 q 469 23 532 60 q 328 -14 406 -14 m 193 1047 l 583 1047 l 583 972 l 193 972 l 193 1047 m 249 769 q 197 790 218 769 q 176 840 176 810 q 197 891 176 871 q 249 911 217 911 q 300 891 279 911 q 321 840 321 871 q 300 790 321 810 q 249 769 279 769 m 526 769 q 475 790 496 769 q 454 840 454 810 q 475 891 454 871 q 526 911 496 911 q 578 891 558 911 q 599 840 599 871 q 578 790 599 810 q 526 769 557 769 z "},"ụ":{"ha":767,"x_min":85,"x_max":689,"o":"m 328 -14 q 147 64 208 -14 q 85 293 85 142 l 85 694 l 203 694 l 203 292 q 353 81 203 81 q 458 110 411 81 q 532 194 506 140 q 558 314 558 247 l 558 694 l 676 694 l 676 147 q 689 0 676 78 l 581 0 q 567 124 568 61 l 563 124 q 469 23 532 60 q 328 -14 406 -14 m 388 -242 q 335 -222 356 -242 q 315 -171 315 -201 q 335 -120 315 -140 q 388 -100 356 -100 q 440 -120 419 -100 q 460 -171 460 -140 q 440 -222 460 -201 q 388 -242 419 -242 z "},"ù":{"ha":767,"x_min":85,"x_max":689,"o":"m 328 -14 q 147 64 208 -14 q 85 293 85 142 l 85 694 l 203 694 l 203 292 q 353 81 203 81 q 458 110 411 81 q 532 194 506 140 q 558 314 558 247 l 558 694 l 676 694 l 676 147 q 689 0 676 78 l 581 0 q 567 124 568 61 l 563 124 q 469 23 532 60 q 328 -14 406 -14 m 206 972 l 326 972 l 435 769 l 340 769 l 206 972 z "},"ủ":{"ha":767,"x_min":85,"x_max":689,"o":"m 328 -14 q 147 64 208 -14 q 85 293 85 142 l 85 694 l 203 694 l 203 292 q 353 81 203 81 q 458 110 411 81 q 532 194 506 140 q 558 314 558 247 l 558 694 l 676 694 l 676 147 q 689 0 676 78 l 581 0 q 567 124 568 61 l 563 124 q 469 23 532 60 q 328 -14 406 -14 m 340 769 q 355 826 340 804 q 396 871 369 847 q 430 909 419 894 q 440 946 440 924 q 383 990 440 990 q 296 928 329 990 l 243 975 q 303 1038 264 1015 q 393 1061 342 1061 q 492 1033 456 1061 q 529 950 529 1004 q 515 893 529 917 q 472 840 500 869 q 440 803 450 818 q 429 769 429 788 l 340 769 z "},"ư":{"ha":832,"x_min":85,"x_max":874,"o":"m 874 694 l 874 643 q 819 473 874 546 q 676 371 764 400 l 676 147 q 689 0 676 78 l 581 0 q 567 124 568 61 l 563 124 q 469 23 532 60 q 328 -14 406 -14 q 147 64 208 -14 q 85 293 85 142 l 85 694 l 203 694 l 203 292 q 353 81 203 81 q 458 110 411 81 q 532 194 506 140 q 558 314 558 247 l 558 694 l 676 694 l 676 446 q 747 529 725 483 q 768 643 768 575 l 768 694 l 874 694 z "},"ứ":{"ha":832,"x_min":85,"x_max":874,"o":"m 874 694 l 874 643 q 819 473 874 546 q 676 371 764 400 l 676 147 q 689 0 676 78 l 581 0 q 567 124 568 61 l 563 124 q 469 23 532 60 q 328 -14 406 -14 q 147 64 208 -14 q 85 293 85 142 l 85 694 l 203 694 l 203 292 q 353 81 203 81 q 458 110 411 81 q 532 194 506 140 q 558 314 558 247 l 558 694 l 676 694 l 676 446 q 747 529 725 483 q 768 643 768 575 l 768 694 l 874 694 m 454 972 l 575 972 l 440 769 l 346 769 l 454 972 z "},"ự":{"ha":832,"x_min":85,"x_max":874,"o":"m 874 694 l 874 643 q 819 473 874 546 q 676 371 764 400 l 676 147 q 689 0 676 78 l 581 0 q 567 124 568 61 l 563 124 q 469 23 532 60 q 328 -14 406 -14 q 147 64 208 -14 q 85 293 85 142 l 85 694 l 203 694 l 203 292 q 353 81 203 81 q 458 110 411 81 q 532 194 506 140 q 558 314 558 247 l 558 694 l 676 694 l 676 446 q 747 529 725 483 q 768 643 768 575 l 768 694 l 874 694 m 388 -242 q 335 -222 356 -242 q 315 -171 315 -201 q 335 -120 315 -140 q 388 -100 356 -100 q 440 -120 419 -100 q 460 -171 460 -140 q 440 -222 460 -201 q 388 -242 419 -242 z "},"ừ":{"ha":832,"x_min":85,"x_max":874,"o":"m 874 694 l 874 643 q 819 473 874 546 q 676 371 764 400 l 676 147 q 689 0 676 78 l 581 0 q 567 124 568 61 l 563 124 q 469 23 532 60 q 328 -14 406 -14 q 147 64 208 -14 q 85 293 85 142 l 85 694 l 203 694 l 203 292 q 353 81 203 81 q 458 110 411 81 q 532 194 506 140 q 558 314 558 247 l 558 694 l 676 694 l 676 446 q 747 529 725 483 q 768 643 768 575 l 768 694 l 874 694 m 206 972 l 326 972 l 435 769 l 340 769 l 206 972 z "},"ử":{"ha":832,"x_min":85,"x_max":874,"o":"m 874 694 l 874 643 q 819 473 874 546 q 676 371 764 400 l 676 147 q 689 0 676 78 l 581 0 q 567 124 568 61 l 563 124 q 469 23 532 60 q 328 -14 406 -14 q 147 64 208 -14 q 85 293 85 142 l 85 694 l 203 694 l 203 292 q 353 81 203 81 q 458 110 411 81 q 532 194 506 140 q 558 314 558 247 l 558 694 l 676 694 l 676 446 q 747 529 725 483 q 768 643 768 575 l 768 694 l 874 694 m 340 769 q 355 826 340 804 q 396 871 369 847 q 430 909 419 894 q 440 946 440 924 q 383 990 440 990 q 296 928 329 990 l 243 975 q 303 1038 264 1015 q 393 1061 342 1061 q 492 1033 456 1061 q 529 950 529 1004 q 515 893 529 917 q 472 840 500 869 q 440 803 450 818 q 429 769 429 788 l 340 769 z "},"ữ":{"ha":832,"x_min":85,"x_max":874,"o":"m 874 694 l 874 643 q 819 473 874 546 q 676 371 764 400 l 676 147 q 689 0 676 78 l 581 0 q 567 124 568 61 l 563 124 q 469 23 532 60 q 328 -14 406 -14 q 147 64 208 -14 q 85 293 85 142 l 85 694 l 203 694 l 203 292 q 353 81 203 81 q 458 110 411 81 q 532 194 506 140 q 558 314 558 247 l 558 694 l 676 694 l 676 446 q 747 529 725 483 q 768 643 768 575 l 768 694 l 874 694 m 185 769 q 216 871 185 832 q 297 910 247 910 q 342 901 322 910 q 400 872 363 893 q 465 844 443 844 q 495 861 485 844 q 508 915 506 878 l 581 915 q 547 809 579 849 q 464 769 515 769 q 414 780 438 769 q 357 810 390 790 q 300 835 317 835 q 270 817 282 835 q 257 769 258 800 l 185 769 z "},"ű":{"ha":767,"x_min":85,"x_max":689,"o":"m 328 -14 q 147 64 208 -14 q 85 293 85 142 l 85 694 l 203 694 l 203 292 q 353 81 203 81 q 458 110 411 81 q 532 194 506 140 q 558 314 558 247 l 558 694 l 676 694 l 676 147 q 689 0 676 78 l 581 0 q 567 124 568 61 l 563 124 q 469 23 532 60 q 328 -14 406 -14 m 335 972 l 454 972 l 321 769 l 225 769 l 335 972 m 515 972 l 635 972 l 501 769 l 406 769 l 515 972 z "},"ū":{"ha":767,"x_min":85,"x_max":689,"o":"m 328 -14 q 147 64 208 -14 q 85 293 85 142 l 85 694 l 203 694 l 203 292 q 353 81 203 81 q 458 110 411 81 q 532 194 506 140 q 558 314 558 247 l 558 694 l 676 694 l 676 147 q 689 0 676 78 l 581 0 q 567 124 568 61 l 563 124 q 469 23 532 60 q 328 -14 406 -14 m 171 865 l 604 865 l 604 783 l 171 783 l 171 865 z "},"ų":{"ha":767,"x_min":85,"x_max":732,"o":"m 732 -251 q 676 -282 708 -271 q 607 -293 643 -293 q 508 -262 544 -293 q 471 -168 471 -231 q 589 0 471 -65 l 581 0 q 567 124 568 61 l 563 124 q 469 23 532 60 q 328 -14 406 -14 q 147 64 208 -14 q 85 293 85 142 l 85 694 l 203 694 l 203 292 q 353 81 203 81 q 458 110 411 81 q 532 194 506 140 q 558 314 558 247 l 558 694 l 676 694 l 676 147 q 689 0 676 78 l 669 0 q 557 -151 557 -78 q 578 -200 557 -182 q 644 -218 600 -218 q 717 -201 675 -218 l 732 -251 z "},"ů":{"ha":767,"x_min":85,"x_max":689,"o":"m 328 -14 q 147 64 208 -14 q 85 293 85 142 l 85 694 l 203 694 l 203 292 q 353 81 203 81 q 458 110 411 81 q 532 194 506 140 q 558 314 558 247 l 558 694 l 676 694 l 676 147 q 689 0 676 78 l 581 0 q 567 124 568 61 l 563 124 q 469 23 532 60 q 328 -14 406 -14 m 388 747 q 292 782 329 747 q 256 871 256 817 q 292 960 256 925 q 388 994 329 994 q 483 960 446 994 q 519 871 519 925 q 483 782 519 817 q 388 747 446 747 m 388 800 q 438 820 418 800 q 457 871 457 840 q 438 922 457 901 q 388 942 418 942 q 338 922 357 942 q 318 871 318 901 q 338 820 318 840 q 388 800 357 800 z "},"ũ":{"ha":767,"x_min":85,"x_max":689,"o":"m 328 -14 q 147 64 208 -14 q 85 293 85 142 l 85 694 l 203 694 l 203 292 q 353 81 203 81 q 458 110 411 81 q 532 194 506 140 q 558 314 558 247 l 558 694 l 676 694 l 676 147 q 689 0 676 78 l 581 0 q 567 124 568 61 l 563 124 q 469 23 532 60 q 328 -14 406 -14 m 185 769 q 216 871 185 832 q 297 910 247 910 q 342 901 322 910 q 400 872 363 893 q 465 844 443 844 q 495 861 485 844 q 508 915 506 878 l 581 915 q 547 809 579 849 q 464 769 515 769 q 414 780 438 769 q 357 810 390 790 q 300 835 317 835 q 270 817 282 835 q 257 769 258 800 l 185 769 z "},"v":{"ha":665,"x_min":15,"x_max":650,"o":"m 650 694 l 386 0 l 279 0 l 15 694 l 138 694 l 333 139 l 528 694 l 650 694 z "},"w":{"ha":928,"x_min":15,"x_max":913,"o":"m 913 694 l 739 0 l 632 0 l 464 568 l 296 0 l 189 0 l 15 694 l 139 694 l 251 161 l 410 694 l 518 694 l 676 161 l 789 694 l 913 694 z "},"ẃ":{"ha":928,"x_min":15,"x_max":913,"o":"m 913 694 l 739 0 l 632 0 l 464 568 l 296 0 l 189 0 l 15 694 l 139 694 l 251 161 l 410 694 l 518 694 l 676 161 l 789 694 l 913 694 m 531 972 l 651 972 l 517 769 l 422 769 l 531 972 z "},"ŵ":{"ha":928,"x_min":15,"x_max":913,"o":"m 913 694 l 739 0 l 632 0 l 464 568 l 296 0 l 189 0 l 15 694 l 139 694 l 251 161 l 410 694 l 518 694 l 676 161 l 789 694 l 913 694 m 424 968 l 504 968 l 660 769 l 557 769 l 464 892 l 371 769 l 268 769 l 424 968 z "},"ẅ":{"ha":928,"x_min":15,"x_max":913,"o":"m 913 694 l 739 0 l 632 0 l 464 568 l 296 0 l 189 0 l 15 694 l 139 694 l 251 161 l 410 694 l 518 694 l 676 161 l 789 694 l 913 694 m 325 769 q 274 790 294 769 q 253 840 253 810 q 273 891 253 871 q 325 911 293 911 q 376 891 356 911 q 397 840 397 871 q 376 790 397 810 q 325 769 356 769 m 603 769 q 551 790 572 769 q 531 840 531 810 q 551 891 531 871 q 603 911 572 911 q 655 891 635 911 q 675 840 675 871 q 654 790 675 810 q 603 769 633 769 z "},"ẁ":{"ha":928,"x_min":15,"x_max":913,"o":"m 913 694 l 739 0 l 632 0 l 464 568 l 296 0 l 189 0 l 15 694 l 139 694 l 251 161 l 410 694 l 518 694 l 676 161 l 789 694 l 913 694 m 282 972 l 403 972 l 511 769 l 417 769 l 282 972 z "},"x":{"ha":639,"x_min":15,"x_max":624,"o":"m 258 353 l 33 694 l 165 694 l 319 436 l 474 694 l 606 694 l 381 353 l 624 0 l 490 0 l 319 278 l 149 0 l 15 0 l 258 353 z "},"y":{"ha":642,"x_min":1,"x_max":626,"o":"m 626 694 l 375 -12 q 79 -281 279 -281 q 1 -271 43 -281 l 1 -181 q 63 -189 26 -189 q 183 -137 133 -189 q 279 36 233 -86 l 21 694 l 147 694 l 333 163 l 499 694 l 626 694 z "},"ý":{"ha":642,"x_min":1,"x_max":626,"o":"m 626 694 l 375 -12 q 79 -281 279 -281 q 1 -271 43 -281 l 1 -181 q 63 -189 26 -189 q 183 -137 133 -189 q 279 36 233 -86 l 21 694 l 147 694 l 333 163 l 499 694 l 626 694 m 394 972 l 515 972 l 381 769 l 286 769 l 394 972 z "},"ŷ":{"ha":642,"x_min":1,"x_max":626,"o":"m 626 694 l 375 -12 q 79 -281 279 -281 q 1 -271 43 -281 l 1 -181 q 63 -189 26 -189 q 183 -137 133 -189 q 279 36 233 -86 l 21 694 l 147 694 l 333 163 l 499 694 l 626 694 m 288 968 l 368 968 l 524 769 l 421 769 l 328 892 l 235 769 l 132 769 l 288 968 z "},"ÿ":{"ha":642,"x_min":1,"x_max":626,"o":"m 626 694 l 375 -12 q 79 -281 279 -281 q 1 -271 43 -281 l 1 -181 q 63 -189 26 -189 q 183 -137 133 -189 q 279 36 233 -86 l 21 694 l 147 694 l 333 163 l 499 694 l 626 694 m 189 769 q 138 790 158 769 q 117 840 117 810 q 137 891 117 871 q 189 911 157 911 q 240 891 219 911 q 261 840 261 871 q 240 790 261 810 q 189 769 219 769 m 467 769 q 415 790 436 769 q 394 840 394 810 q 415 891 394 871 q 467 911 436 911 q 519 891 499 911 q 539 840 539 871 q 518 790 539 810 q 467 769 497 769 z "},"ẏ":{"ha":642,"x_min":1,"x_max":626,"o":"m 626 694 l 375 -12 q 79 -281 279 -281 q 1 -271 43 -281 l 1 -181 q 63 -189 26 -189 q 183 -137 133 -189 q 279 36 233 -86 l 21 694 l 147 694 l 333 163 l 499 694 l 626 694 m 328 769 q 276 790 297 769 q 256 840 256 810 q 276 891 256 871 q 328 911 296 911 q 380 891 360 911 q 400 840 400 871 q 379 790 400 810 q 328 769 358 769 z "},"ỵ":{"ha":642,"x_min":1,"x_max":626,"o":"m 626 694 l 375 -12 q 79 -281 279 -281 q 1 -271 43 -281 l 1 -181 q 63 -189 26 -189 q 183 -137 133 -189 q 279 36 233 -86 l 21 694 l 147 694 l 333 163 l 499 694 l 626 694 m 500 -242 q 448 -222 468 -242 q 428 -171 428 -201 q 448 -120 428 -140 q 500 -100 468 -100 q 552 -120 532 -100 q 572 -171 572 -140 q 552 -222 572 -201 q 500 -242 532 -242 z "},"ỳ":{"ha":642,"x_min":1,"x_max":626,"o":"m 626 694 l 375 -12 q 79 -281 279 -281 q 1 -271 43 -281 l 1 -181 q 63 -189 26 -189 q 183 -137 133 -189 q 279 36 233 -86 l 21 694 l 147 694 l 333 163 l 499 694 l 626 694 m 146 972 l 267 972 l 375 769 l 281 769 l 146 972 z "},"ỷ":{"ha":642,"x_min":1,"x_max":626,"o":"m 626 694 l 375 -12 q 79 -281 279 -281 q 1 -271 43 -281 l 1 -181 q 63 -189 26 -189 q 183 -137 133 -189 q 279 36 233 -86 l 21 694 l 147 694 l 333 163 l 499 694 l 626 694 m 281 769 q 295 826 281 804 q 336 871 310 847 q 370 909 360 894 q 381 946 381 924 q 324 990 381 990 q 236 928 269 990 l 183 975 q 243 1038 204 1015 q 333 1061 282 1061 q 433 1033 396 1061 q 469 950 469 1004 q 455 893 469 917 q 413 840 440 869 q 380 803 390 818 q 369 769 369 788 l 281 769 z "},"ỹ":{"ha":642,"x_min":1,"x_max":626,"o":"m 626 694 l 375 -12 q 79 -281 279 -281 q 1 -271 43 -281 l 1 -181 q 63 -189 26 -189 q 183 -137 133 -189 q 279 36 233 -86 l 21 694 l 147 694 l 333 163 l 499 694 l 626 694 m 125 769 q 156 871 125 832 q 238 910 188 910 q 283 901 263 910 q 340 872 303 893 q 406 844 383 844 q 435 861 425 844 q 449 915 446 878 l 521 915 q 488 809 519 849 q 404 769 456 769 q 354 780 378 769 q 297 810 331 790 q 240 835 257 835 q 210 817 222 835 q 197 769 199 800 l 125 769 z "},"z":{"ha":626,"x_min":36,"x_max":590,"o":"m 36 67 l 438 603 l 56 603 l 56 694 l 576 694 l 576 626 l 181 92 l 590 92 l 590 0 l 36 0 l 36 67 z "},"ź":{"ha":626,"x_min":36,"x_max":590,"o":"m 36 67 l 438 603 l 56 603 l 56 694 l 576 694 l 576 626 l 181 92 l 590 92 l 590 0 l 36 0 l 36 67 m 379 972 l 500 972 l 365 769 l 271 769 l 379 972 z "},"ž":{"ha":626,"x_min":36,"x_max":590,"o":"m 36 67 l 438 603 l 56 603 l 56 694 l 576 694 l 576 626 l 181 92 l 590 92 l 590 0 l 36 0 l 36 67 m 117 968 l 219 968 l 313 846 l 406 968 l 508 968 l 353 769 l 272 769 l 117 968 z "},"ż":{"ha":626,"x_min":36,"x_max":590,"o":"m 36 67 l 438 603 l 56 603 l 56 694 l 576 694 l 576 626 l 181 92 l 590 92 l 590 0 l 36 0 l 36 67 m 313 769 q 261 790 282 769 q 240 840 240 810 q 260 891 240 871 q 313 911 281 911 q 365 891 344 911 q 385 840 385 871 q 364 790 385 810 q 313 769 343 769 z "},"ẓ":{"ha":626,"x_min":36,"x_max":590,"o":"m 36 67 l 438 603 l 56 603 l 56 694 l 576 694 l 576 626 l 181 92 l 590 92 l 590 0 l 36 0 l 36 67 m 313 -242 q 260 -222 281 -242 q 240 -171 240 -201 q 260 -120 240 -140 q 313 -100 281 -100 q 365 -120 344 -100 q 385 -171 385 -140 q 365 -222 385 -201 q 313 -242 344 -242 z "},"ﬁ":{"ha":785,"x_min":11,"x_max":707,"o":"m 126 608 l 11 608 l 11 694 l 126 694 l 126 782 q 185 938 126 881 q 346 996 244 996 q 424 983 388 996 q 483 947 461 969 l 440 874 q 353 904 406 904 q 274 871 303 904 q 244 779 244 838 l 244 694 l 443 694 l 443 608 l 244 608 l 244 0 l 126 0 l 126 608 m 622 815 q 561 836 583 815 q 539 893 539 857 q 561 951 539 929 q 622 972 583 972 q 684 951 661 972 q 707 893 707 929 q 684 836 707 857 q 622 815 661 815 m 564 694 l 682 694 l 682 0 l 564 0 l 564 694 z "},"ﬂ":{"ha":854,"x_min":11,"x_max":826,"o":"m 126 608 l 11 608 l 11 694 l 126 694 l 126 782 q 185 938 126 881 q 346 996 244 996 q 424 983 388 996 q 483 947 461 969 l 440 874 q 353 904 406 904 q 274 871 303 904 q 244 779 244 838 l 244 694 l 443 694 l 443 608 l 244 608 l 244 0 l 126 0 l 126 608 m 700 -14 q 550 163 550 -14 l 550 1031 l 668 1031 l 668 164 q 684 95 668 115 q 739 75 700 75 q 808 92 769 75 l 826 21 q 700 -14 774 -14 z "},"ª":{"ha":503,"x_min":56,"x_max":443,"o":"m 207 501 q 98 541 140 501 q 56 644 56 581 q 103 751 56 713 q 242 789 151 789 l 343 789 l 343 810 q 319 886 343 861 q 243 911 294 911 q 121 847 165 911 l 75 899 q 253 982 136 982 q 387 939 340 982 q 433 818 433 896 l 433 603 q 443 511 433 557 l 363 511 q 351 575 361 515 q 292 521 331 540 q 207 501 254 501 m 229 568 q 313 599 283 568 q 343 671 343 631 l 343 728 l 257 728 q 172 706 201 728 q 143 644 143 685 q 167 588 143 607 q 229 568 190 568 z "},"º":{"ha":542,"x_min":46,"x_max":496,"o":"m 271 501 q 106 566 167 501 q 46 742 46 631 q 106 917 46 853 q 271 982 167 982 q 435 917 375 982 q 496 742 496 853 q 435 566 496 631 q 271 501 375 501 m 271 568 q 370 614 336 568 q 404 742 404 660 q 370 870 404 825 q 271 915 336 915 q 172 870 206 915 q 138 742 138 825 q 172 614 138 660 q 271 568 206 568 z "},"ⁿ":{"ha":542,"x_min":58,"x_max":464,"o":"m 61 856 l 60 938 q 58 972 58 951 l 144 972 q 147 890 149 928 l 151 890 q 209 958 172 933 q 297 982 246 982 q 425 925 386 982 q 464 786 464 868 l 464 511 l 372 511 l 372 772 q 276 910 372 910 q 188 869 222 910 q 153 764 153 828 l 153 511 l 61 511 l 61 856 z "},"Δ":{"ha":900,"x_min":7,"x_max":893,"o":"m 7 67 l 428 972 l 472 972 l 893 67 l 893 0 l 7 0 l 7 67 m 757 97 l 450 785 l 143 97 l 757 97 z "},"Ω":{"ha":1074,"x_min":60,"x_max":1014,"o":"m 60 100 l 306 100 q 144 294 203 174 q 86 549 86 414 q 141 782 86 683 q 297 933 196 881 q 538 986 399 986 q 778 933 676 986 q 933 782 879 881 q 988 549 988 683 q 929 294 988 414 q 769 100 871 174 l 1014 100 l 1014 0 l 622 0 l 622 122 q 797 276 733 164 q 860 539 860 388 q 774 790 860 699 q 538 881 688 881 q 301 790 388 881 q 214 539 214 699 q 278 274 214 385 q 453 124 342 163 l 453 0 l 60 0 l 60 100 z "},"μ":{"ha":767,"x_min":85,"x_max":689,"o":"m 85 694 l 201 694 l 201 292 q 242 136 201 192 q 361 81 282 81 q 503 148 449 81 q 558 319 558 215 l 558 694 l 676 694 l 676 147 q 689 0 676 82 l 582 0 q 567 114 571 43 l 563 114 q 361 -14 500 -14 q 270 3 313 -14 q 201 53 228 19 l 201 -299 l 85 -299 l 85 694 z "},"π":{"ha":921,"x_min":35,"x_max":872,"o":"m 747 -14 q 651 20 682 -14 q 621 126 621 54 l 621 603 l 286 603 l 286 0 l 168 0 l 168 603 l 35 603 l 35 694 l 872 694 l 872 603 l 739 603 l 739 143 q 790 85 739 85 q 857 99 821 85 l 857 15 q 747 -14 801 -14 z "},"ก":{"ha":800,"x_min":60,"x_max":697,"o":"m 107 350 q 134 443 107 401 q 208 506 161 485 q 60 529 153 525 q 108 678 65 614 q 225 778 151 743 q 393 814 299 814 q 614 738 531 814 q 697 533 697 661 l 697 0 l 579 0 l 579 522 q 526 665 579 613 q 383 718 474 718 q 253 684 310 718 q 175 592 197 650 q 269 567 225 586 q 338 522 314 547 l 338 497 q 255 444 285 482 q 225 354 225 406 l 225 0 l 107 0 l 107 350 z "},"ข":{"ha":825,"x_min":24,"x_max":722,"o":"m 722 800 l 722 182 q 665 37 722 88 q 499 -14 607 -14 q 333 37 390 -14 q 276 182 276 88 l 276 336 q 290 403 276 374 q 329 476 303 432 q 370 549 356 517 q 385 621 385 582 q 350 703 385 676 q 260 729 315 729 q 153 694 192 729 q 175 697 160 697 q 265 662 229 697 q 300 568 300 626 q 264 474 300 511 q 165 436 228 436 q 61 480 99 436 q 24 597 24 524 q 87 752 24 690 q 263 814 150 814 q 428 766 364 814 q 493 628 493 718 q 480 547 493 581 q 440 465 467 513 q 406 397 417 426 q 394 333 394 368 l 394 176 q 422 106 394 131 q 500 82 449 82 q 578 106 551 82 q 604 176 604 131 l 604 800 l 722 800 m 229 568 q 212 613 229 596 q 167 629 194 629 q 122 613 139 629 q 104 568 104 596 q 122 523 104 540 q 167 506 139 506 q 212 523 194 506 q 229 568 229 540 z "},"ฃ":{"ha":842,"x_min":24,"x_max":739,"o":"m 739 800 l 739 182 q 681 37 739 88 q 515 -14 624 -14 q 351 37 407 -14 q 294 182 294 88 l 294 290 q 310 366 294 331 q 356 456 325 401 q 401 545 386 510 q 417 622 417 581 q 402 683 417 656 q 364 721 388 710 l 282 644 l 194 718 q 136 622 151 688 q 175 629 154 629 q 267 593 232 629 q 303 500 303 557 q 265 406 303 442 q 169 369 228 369 q 64 419 104 369 q 24 547 24 468 q 72 717 24 643 q 199 814 121 792 l 282 736 l 363 814 q 478 751 433 801 q 524 629 524 701 q 508 531 524 574 q 461 435 492 489 q 424 360 436 392 q 411 292 411 328 l 411 176 q 438 106 411 131 q 517 82 465 82 q 594 106 568 82 q 621 176 621 131 l 621 800 l 739 800 m 233 500 q 215 545 233 528 q 169 563 197 563 q 125 545 142 563 q 108 500 108 528 q 125 455 108 472 q 169 438 142 438 q 215 455 197 438 q 233 500 233 472 z "},"ค":{"ha":838,"x_min":58,"x_max":735,"o":"m 404 814 q 646 742 557 814 q 735 549 735 671 l 735 0 l 617 0 l 617 538 q 560 669 617 621 q 404 718 503 718 q 235 664 297 718 q 174 518 174 610 q 181 442 174 488 q 192 385 189 397 q 201 335 196 368 q 276 501 224 438 q 403 564 328 564 q 500 531 464 564 q 536 440 536 499 q 501 349 536 385 q 411 314 467 314 q 349 328 379 314 q 304 371 319 343 q 257 264 276 328 q 238 144 238 200 l 238 0 l 121 0 l 121 199 q 113 257 121 219 q 94 333 104 294 q 58 524 58 464 q 151 735 58 657 q 404 814 244 814 m 408 499 q 366 483 382 499 q 350 440 350 467 q 366 397 350 414 q 408 381 382 381 q 451 397 435 381 q 467 440 467 414 q 451 483 467 467 q 408 499 435 499 z "}}}
